<?xml version="1.0" standalone="no"?>
<!DOCTYPE svg PUBLIC "-//W3C//DTD SVG 1.1//EN" "http://www.w3.org/Graphics/SVG/1.1/DTD/svg11.dtd" >
<svg xmlns="http://www.w3.org/2000/svg" xmlns:xlink="http://www.w3.org/1999/xlink" version="1.1">
<metadata>
Created by FontForge 20161003 at Mon Jun  3 06:13:21 2019
 By www-data
https://vinnytsia.city
</metadata>
<defs>
<font id="VinnytsiaCity" horiz-adv-x="800" >
  <font-face 
    font-family="VinnytsiaCity"
    font-weight="400"
    font-stretch="normal"
    units-per-em="1000"
    panose-1="0 0 0 0 0 0 0 0 0 0"
    ascent="750"
    descent="-250"
    x-height="700"
    cap-height="700"
    bbox="48.7174 -0.0465116 1172 701"
    underline-thickness="50"
    underline-position="-175"
    unicode-range="U+0020-2019"
  />
<missing-glyph horiz-adv-x="533" 
 />
    <glyph glyph-name=".notdef" horiz-adv-x="533" 
 />
    <glyph glyph-name=".null" horiz-adv-x="0" 
 />
    <glyph glyph-name="nonmarkingreturn" horiz-adv-x="250" 
 />
    <glyph glyph-name="space" unicode=" " horiz-adv-x="450" 
 />
    <glyph glyph-name="zero" unicode="0" horiz-adv-x="631" 
d="M465 700q48 0 82 -34t34 -82v-468q0 -48 -34 -82t-82 -34h-299q-48 0 -82 34t-34 82v468q0 48 34 82t82 34h299zM486 350q0 107 -50 183t-120 76t-120 -76t-50 -183t50 -183t120 -76t120 76t50 183z" />
    <glyph glyph-name="one" unicode="1" horiz-adv-x="275" 
d="M225 700v-700h-35v700h35zM155 637v-637h-35v637h35zM50 0v574h35v-574h-35z" />
    <glyph glyph-name="two" unicode="2" horiz-adv-x="648" 
d="M141 336q-38 0 -64.5 26.5t-26.5 63.5q0 115 81.5 194.5t197.5 79.5q131 0 210 -93q70 -84 52 -193q-6 -34 -21.5 -62.5t-32 -46.5t-48 -37.5t-51 -29t-57.5 -26.5q-52 -22 -70 -32h197q37 0 63.5 -26.5t26.5 -63.5t-26.5 -63.5t-63.5 -26.5h-352q-37 0 -63.5 26.5
t-26.5 63.5q0 111 62.5 175t181.5 113q63 27 85 42q16 11 19 23q5 28 -13 47q-25 30 -72 30q-41 0 -69.5 -26.5t-28.5 -67.5q0 -37 -26.5 -63.5t-63.5 -26.5zM335 318q-49 -21 -79.5 -38t-62.5 -43.5t-47.5 -63t-15.5 -83.5q1 -11 8.5 -18t17.5 -7h352q10 0 17.5 7.5
t7.5 17.5q0 11 -7.5 18.5t-17.5 7.5h-307v32q0 29 32 58q32 27 122 66q37 16 57 25.5t49 29t45 43.5t21 55q14 79 -38 140q-58 70 -160 70q-89 0 -151.5 -60t-62.5 -149q0 -10 7.5 -17.5t17.5 -7.5q11 0 18.5 7.5t7.5 17.5q0 68 47.5 113.5t115.5 45.5q77 0 122 -53
q36 -43 27 -99q-7 -39 -45 -66q-28 -19 -98 -49z" />
    <glyph glyph-name="three" unicode="3" horiz-adv-x="512" 
d="M338 494q0 34 -24 57.5t-58 23.5t-57.5 -23.5t-23.5 -57.5h-125q0 86 60 146t146 60t146 -60t60 -146q0 -83 -56 -142q-54 55 -131 63q27 6 45 28t18 51zM175 206q0 -34 23.5 -57.5t57.5 -23.5t58 23.5t24 57.5t-24 58t-58 24v124q86 0 146 -60t60 -146t-60 -146
t-146 -60t-146 60t-60 146h125z" />
    <glyph glyph-name="four" unicode="4" horiz-adv-x="808" 
d="M751 560v-560h-211v221h-490l436 479h272l-128 -140h121zM540 318v143l-131 -143h131z" />
    <glyph glyph-name="five" unicode="5" horiz-adv-x="650" 
d="M50 700h436v-140h-296v-140h185l225 -210l-225 -210h-325v140h325v140h-325v420z" />
    <glyph glyph-name="six" unicode="6" horiz-adv-x="560" 
d="M50 471q0 95 68 162t163 67t162 -67.5t67 -161.5v-12h-112v12q0 49 -34 83.5t-83 34.5t-84.5 -34.5t-35.5 -83.5v-46q49 33 118 33q96 0 162.5 -67t66.5 -162q0 -96 -67 -162.5t-162 -66.5q-93 0 -157.5 62.5t-71.5 154.5v254zM75 333q7 15 18 30v108q0 77 55 131.5
t133 54.5q73 0 127 -50.5t59 -123.5h18q-6 82 -64.5 137t-139.5 55q-86 0 -146 -59.5t-60 -144.5v-138zM118 392q12 12 19 17v62q0 59 42.5 100.5t101.5 41.5q55 0 96 -37.5t46 -92.5h19q-5 62 -51.5 105.5t-109.5 43.5q-68 0 -115.5 -47t-47.5 -114v-79zM75 217
q7 -81 60 -132q57 -60 144 -60q85 0 145 60t60 144q0 85 -60.5 145t-144.5 60q-68 0 -118 -38v-23q52 42 118 42q77 0 131.5 -54.5t54.5 -131.5t-54.5 -131.5t-131.5 -54.5q-73 0 -127 50.5t-59 123.5h-18zM118 217q5 -63 51.5 -106t109.5 -43q67 0 114 47t47 114t-47 114
t-114 47q-70 0 -118 -51v-31q43 64 118 64q59 0 101 -42t42 -101t-42 -100.5t-101 -41.5q-55 0 -95.5 38t-45.5 92h-20zM135 374q-12 -12 -17 -19v-33q10 17 19 27v27zM279 347q-49 0 -83 -34.5t-34 -83.5t34 -83t83 -34t83.5 34t34.5 83t-34.5 83.5t-83.5 34.5zM93 242v72
l-2 -5q-13 -30 -16 -67h18zM137 305q-17 -32 -18 -63h18v63z" />
    <glyph glyph-name="seven" unicode="7" horiz-adv-x="654" 
d="M50 536v164h58v-164h-58zM150 700h57v-164h-57v164zM249 700h58v-164h-58v164zM348 700h58v-164h-58v164zM504 698v-164l-237 -347v-187h-57v187l236 347v164h58zM309 164l237 348v186h58v-186l-237 -348v-164h-58v164z" />
    <glyph glyph-name="eight" unicode="8" horiz-adv-x="782" 
d="M190 639q0 25 18 43t43 18v-61h61q0 -25 -18 -43t-43 -18t-43 18t-18 43zM330 639q0 25 18 43t43 18v-61h61q0 -25 -18 -43t-43 -18t-43 18t-18 43zM592 639q0 -25 -18 -43t-43 -18t-43 18t-18 43t18 43t43 18v-61h61zM111 433q-25 0 -43 18.5t-18 43.5t18 43t43 18v-61
h61q0 -26 -18 -44t-43 -18zM190 495q0 25 18 43t43 18v-61h61q0 -26 -18 -44t-43 -18t-43 18.5t-18 43.5zM531 495h61q0 -25 -18 -43.5t-43 -18.5t-43 18t-18 44q0 25 18 43t43 18v-61zM671 433q-25 0 -43 18t-18 44q0 25 18 43t43 18v-61h61q0 -25 -18 -43.5t-43 -18.5z
M190 350q0 25 18 43t43 18v-61h61q0 -25 -18 -43t-43 -18t-43 18t-18 43zM330 350q0 25 18 43t43 18v-61h61q0 -25 -18 -43t-43 -18t-43 18t-18 43zM531 350h61q0 -25 -18 -43t-43 -18t-43 18t-18 43q0 26 18 43.5t43 17.5v-61zM50 206q0 25 18 43t43 18v-61h61
q0 -26 -18 -43.5t-43 -17.5t-43 18t-18 43zM190 206q0 25 18 43t43 18v-61h61q0 -26 -18 -43.5t-43 -17.5t-43 18t-18 43zM592 206q0 -25 -18 -43t-43 -18t-43 17.5t-18 43.5q0 25 18 43t43 18v-61h61zM732 206q0 -25 -18 -43t-43 -18t-43 17.5t-18 43.5q0 25 18 43t43 18
v-61h61zM190 61q0 25 18 43t43 18v-61h61q0 -25 -18 -43t-43 -18t-43 18t-18 43zM391 0q-25 0 -43 18t-18 43t18 43t43 18v-61h61q0 -25 -18 -43t-43 -18zM531 61h61q0 -25 -18 -43t-43 -18t-43 18t-18 43t18 43t43 18v-61z" />
    <glyph glyph-name="nine" unicode="9" horiz-adv-x="547" 
d="M274 700q92 0 157.5 -65.5t65.5 -158.5q0 -92 -65.5 -157.5t-157.5 -65.5q-93 0 -158.5 65.5t-65.5 157.5q0 93 65.5 158.5t158.5 65.5zM274 566q-38 0 -64 -26t-26 -64q0 -37 26.5 -63t63.5 -26t63 26t26 63t-26 63.5t-63 26.5zM441 250l-162 -250h-161l162 250h161z
" />
    <glyph glyph-name="A" unicode="A" horiz-adv-x="737" 
d="M167 401l87 299h229l87 -299h-403zM135 292h466l86 -292h-637z" />
    <glyph glyph-name="B" unicode="B" horiz-adv-x="643" 
d="M490 499q0 41 -29 69.5t-69 28.5h-236v-494h236q40 0 69 28.5t29 68.5t-29 69t-69 29t-68.5 -28.5t-28.5 -69.5q0 -33 19.5 -58.5t49.5 -34.5h-149q-23 43 -23 93q0 83 58.5 142t141.5 59t142 -58.5t59 -141.5t-59 -142t-142 -59h-342v700h342q83 0 142 -58.5t59 -141.5
q0 -86 -62 -146q-48 43 -114 51q32 8 52.5 34.5t20.5 59.5zM295 499q0 -34 21 -60t53 -34q-66 -9 -113 -52q-64 59 -64 146q0 51 23 94h149q-30 -9 -49.5 -35t-19.5 -59z" />
    <glyph glyph-name="C" unicode="C" horiz-adv-x="450" 
d="M400 0q-145 0 -247.5 102.5t-102.5 247.5t102.5 247.5t247.5 102.5v-700z" />
    <glyph glyph-name="D" unicode="D" horiz-adv-x="602" 
d="M50 700h143v-700h-143v700zM204 700q144 0 246 -102t102 -246h-151q0 82 -57.5 139.5t-139.5 57.5v151zM552 348q0 -144 -102 -246t-246 -102v151q82 0 139.5 57.5t57.5 139.5h151z" />
    <glyph glyph-name="E" unicode="E" horiz-adv-x="583" 
d="M533 700v-209h-483v209h483zM533 245h-483v210h483v-210zM533 0h-483v209h483v-209z" />
    <glyph glyph-name="F" unicode="F" horiz-adv-x="641" 
d="M50 639q0 25 18 43t43 18t43 -18t18 -43t-18 -43t-43 -18v61h-61zM190 639q0 25 18 43t43 18t43 -18t18 -43t-18 -43t-43 -18v61h-61zM329 639q0 25 18.5 43t43.5 18t43 -18t18 -43t-18 -43t-43 -18v61h-62zM530 700q25 0 43 -18t18 -43t-17.5 -43t-43.5 -18v61h-61
q0 25 18 43t43 18zM50 494q0 25 18 43.5t43 18.5t43 -18t18 -44q0 -25 -18 -43t-43 -18v61h-61zM190 494q0 26 18 44t43 18t43 -18.5t18 -43.5t-18 -43t-43 -18v61h-61zM50 350q0 25 18 43t43 18t43 -17.5t18 -43.5t-18 -43.5t-43 -17.5v61h-61zM190 350q0 26 18 43.5
t43 17.5t43 -18t18 -43t-18 -43t-43 -18v61h-61zM329 350q0 25 18 43t44 18q25 0 43 -18t18 -43t-18 -43t-43 -18v61h-62zM530 350h-61q0 25 18 43t43 18q26 0 43.5 -17.5t17.5 -43.5t-17.5 -43.5t-43.5 -17.5v61zM50 206q0 25 18 43t43 18t43 -18t18 -43q0 -26 -18 -44
t-43 -18v62h-61zM190 206q0 25 18 43t43 18t43 -18t18 -43t-18 -43.5t-43 -18.5v62h-61zM50 61q0 25 18 43t43 18t43 -18t18 -43t-18 -43t-43 -18v61h-61zM190 61q0 25 18 43t43 18t43 -18t18 -43t-18 -43t-43 -18v61h-61z" />
    <glyph glyph-name="G" unicode="G" horiz-adv-x="567" 
d="M167 700h233v-117h-233v117zM50 117v466h117v-466h-117zM517 467h-117v116h117v-116zM517 350v-233h-117v116h-117v117h234zM400 0h-233v117h233v-117z" />
    <glyph glyph-name="H" unicode="H" horiz-adv-x="728" 
d="M50 700h217v-700h-217v700zM678 700v-700h-217v700h217zM364 287q-28 0 -48 20t-20 48t20 48t48 20t48 -20t20 -48q0 -29 -20 -48.5t-48 -19.5z" />
    <glyph glyph-name="I" unicode="I" horiz-adv-x="247" 
d="M124 553q-31 0 -52.5 21.5t-21.5 51.5q0 31 21.5 52.5t52.5 21.5q30 0 51.5 -21.5t21.5 -52.5q0 -30 -21.5 -51.5t-51.5 -21.5zM124 516q30 0 51.5 -21.5t21.5 -52.5t-21.5 -52.5t-51.5 -21.5q-31 0 -52.5 21.5t-21.5 52.5t21.5 52.5t52.5 21.5zM124 332q30 0 51.5 -21.5
t21.5 -52.5t-21.5 -52.5t-51.5 -21.5q-31 0 -52.5 21.5t-21.5 52.5t21.5 52.5t52.5 21.5zM124 0q-31 0 -52.5 21.5t-21.5 52.5q0 30 21.5 51.5t52.5 21.5q30 0 51.5 -21.5t21.5 -51.5q0 -31 -21.5 -52.5t-51.5 -21.5z" />
    <glyph glyph-name="J" unicode="J" horiz-adv-x="652" 
d="M602 136q0 -56 -40 -96t-96 -40h-137v700h273v-564zM186 331q57 0 97 -40t40 -96v-195h-137q-56 0 -96 40t-40 96v195h136z" />
    <glyph glyph-name="K" unicode="K" horiz-adv-x="568" 
d="M50 352v348h468zM50 0v348l468 -348h-468z" />
    <glyph glyph-name="L" unicode="L" horiz-adv-x="559" 
d="M50 700h227v-700h-227v700zM509 347v-347h-227z" />
    <glyph glyph-name="M" unicode="M" horiz-adv-x="886" 
d="M130 0q-38 0 -63 30q-23 29 -15 68l119 520q8 36 36.5 59t65.5 23t66 -23t37 -59l67 -296l67 296q8 36 37 59t66 23t65.5 -23t36.5 -59l119 -520q8 -39 -16 -68q-24 -30 -62 -30q-28 0 -49.5 17.5t-28.5 44.5l-65 288l-60 -262q-9 -39 -39.5 -63.5t-70.5 -24.5t-71 24.5
t-39 63.5l-60 262l-65 -288q-7 -27 -28.5 -44.5t-49.5 -17.5zM89 47q17 -20 41 -20q19 0 33 11.5t18 29.5l79 346h26l73 -320q7 -29 30.5 -48t53.5 -19t53.5 19t30.5 48l73 320h26l79 -346q4 -18 18 -29.5t33 -11.5q26 0 41 20q16 21 10 44l-118 521q-6 27 -27.5 44
t-48.5 17q-28 0 -49 -17t-27 -44l-81 -354h-26l-81 354q-6 27 -27 44t-49 17t-49 -17t-27 -44l-118 -521q-6 -23 10 -44z" />
    <glyph glyph-name="N" unicode="N" horiz-adv-x="701" 
d="M50 700h146v-700h-146v700zM651 700v-700h-146v700h146zM224 534q-8 22 2 43.5t32 29.5q9 3 20 3q18 0 32.5 -10t21.5 -27q8 -23 -2.5 -44.5t-32.5 -28.5q-14 -4 -20 -4q-38 0 -53 38zM273 398q-8 22 2 43.5t32 29.5q14 4 20 4q40 0 53 -38q8 -22 -1.5 -43.5t-32.5 -29.5
q-9 -3 -19 -3q-40 0 -54 37zM356 336q9 3 20 3q40 0 53 -37q8 -23 -2 -44.5t-32 -29.5q-9 -3 -19 -3q-41 0 -54 38q-8 22 1.5 43.5t32.5 29.5zM371 127q-8 23 2 44.5t32 28.5q14 4 20 4q38 0 53 -38q8 -22 -2 -43.5t-32 -29.5q-9 -3 -20 -3q-40 0 -53 37z" />
    <glyph glyph-name="O" unicode="O" horiz-adv-x="793" 
d="M78 495l206 -73l-152 157l177 -128l-102 193l134 -172l-43 214l79 -204l19 218l19 -218l80 204l-43 -214l134 172l-102 -193l177 128l-152 -157l206 73l-190 -107l218 12l-213 -50l213 -50l-218 12l190 -107l-206 73l152 -157l-177 128l102 -193l-134 172l43 -214
l-80 204l-19 -218l-19 218l-79 -204l43 214l-134 -172l102 193l-177 -128l152 157l-206 -73l190 107l-218 -12l213 50l-213 50l218 -12z" />
    <glyph glyph-name="P" unicode="P" horiz-adv-x="819" 
d="M165 0h-115v700h115v-700zM502 700q110 0 188.5 -78.5t78.5 -188.5t-78.5 -188.5t-188.5 -78.5h-331v534h331z" />
    <glyph glyph-name="Q" unicode="Q" horiz-adv-x="564" 
d="M477 0q-9 0 -14 4l-153 96q-32 -13 -67 -13q-61 0 -108.5 38.5t-68.5 98.5q-33 96 1 225q12 46 32.5 88t50.5 80t72 60.5t90 22.5q67 0 119.5 -38t71.5 -102q27 -89 -9 -224q-15 -54 -43 -103l52 -200q5 -18 -10 -28q-8 -5 -16 -5zM397 230q-3 12 3 21q26 42 42 99
q33 121 10 195q-13 46 -52 74t-87 28q-38 0 -72 -20t-57.5 -53t-39.5 -67.5t-26 -71.5q-30 -114 -1 -193q26 -79 99 -98q12 -4 28 -4q27 0 57 14q6 3 12 3q7 0 14 -4l108 -68z" />
    <glyph glyph-name="R" unicode="R" horiz-adv-x="586" 
d="M50 700h71v-700h-71v700zM150 0v700h71v-700h-71zM250 350v350h71v-348l115 -352h-72l-113 350h-1zM421 352l115 -352h-72l-113 350h-1v350h71v-348zM450 367v333h71v-333h-71z" />
    <glyph glyph-name="S" unicode="S" horiz-adv-x="877" 
d="M827 234q0 -97 -70 -165.5t-168 -68.5h-404q-49 0 -84.5 35t-35.5 85t35.5 85t84.5 35h39q-75 20 -124 82t-50 141q-1 97 68 167t166 70h365q49 0 84 -35t35 -85q0 -46 -30.5 -80t-75.5 -39q55 -17 97 -59q70 -71 68 -168zM649 526q22 0 38 16t16 38t-16 38t-38 16h-365
q-71 0 -119 -50q-51 -51 -49 -120q1 -69 51 -118t120 -49h305q27 0 44 -19q19 -19 17 -45q-2 -25 -19.5 -42t-42.5 -17h-406q-22 0 -38 -16t-16 -38t16 -38t38 -16h404q71 0 121.5 49.5t51.5 119.5q0 71 -50 121t-120 50h-308q-26 0 -43 18.5t-17 44.5q1 24 19 40.5t42 16.5
h364z" />
    <glyph glyph-name="T" unicode="T" horiz-adv-x="761" 
d="M380 700l331 -139v-209l-331 139l-330 -139v209zM411 0h-61v472l30 12l31 -12v-472z" />
    <glyph glyph-name="U" unicode="U" horiz-adv-x="571" 
d="M168 502l117 198l118 -198l118 198v-465q0 -97 -69 -166t-167 -69q-97 0 -166 69t-69 166v465z" />
    <glyph glyph-name="V" unicode="V" horiz-adv-x="776" 
d="M597 572q-44 0 -79 27l-158 -599h-125l-185 700h274q0 -53 -38 -90.5t-91 -37.5q-19 0 -35 4l137 -518l170 642h259q0 -53 -38 -90.5t-91 -37.5z" />
    <glyph glyph-name="W" unicode="W" horiz-adv-x="902" 
d="M57 524q-22 65 17.5 120.5t108.5 55.5q68 0 107.5 -56t17.5 -120l-125 -361zM326 524q-22 64 17.5 120t107.5 56t107.5 -56t17.5 -120l-125 -361zM594 524q-22 64 17.5 120t107.5 56t107.5 -56t17.5 -120l-125 -361zM317 0q-68 0 -107.5 56t-17.5 120l125 361l125 -361
q22 -64 -17.5 -120t-107.5 -56zM710 176q22 -64 -17.5 -120t-107.5 -56t-107.5 56t-17.5 120l125 361z" />
    <glyph glyph-name="X" unicode="X" horiz-adv-x="592" 
d="M293 530v-174l-243 170v174zM542 700v-174l-243 -170v174zM293 170l-243 -170v174l243 170v-174zM299 170v174l243 -170v-174z" />
    <glyph glyph-name="Y" unicode="Y" horiz-adv-x="807" 
d="M549 700l-250 -503l-249 503h499zM561 700h196l-248 -503v-197h-196v197z" />
    <glyph glyph-name="Z" unicode="Z" horiz-adv-x="814" 
d="M50 486v214h714v-214h-714zM628 404q0 25 17 42.5t42 17.5t42.5 -17.5t17.5 -42.5q0 -24 -17.5 -41.5t-42.5 -17.5t-42 17.5t-17 41.5zM363 345q0 25 17 42t42 17t42 -17t17 -42t-17 -42t-42 -17t-42 17t-17 42zM223 296q0 -25 -17 -42.5t-42 -17.5t-42.5 17.5
t-17.5 42.5q0 24 17.5 41.5t42.5 17.5t42 -17.5t17 -41.5zM50 0v214h714v-214h-714z" />
    <glyph glyph-name="a" unicode="a" horiz-adv-x="737" 
d="M167 401l87 299h229l87 -299h-403zM135 292h466l86 -292h-637z" />
    <glyph glyph-name="b" unicode="b" horiz-adv-x="643" 
d="M490 499q0 41 -29 69.5t-69 28.5h-236v-494h236q40 0 69 28.5t29 68.5t-29 69t-69 29t-68.5 -28.5t-28.5 -69.5q0 -33 19.5 -58.5t49.5 -34.5h-149q-23 43 -23 93q0 83 58.5 142t141.5 59t142 -58.5t59 -141.5t-59 -142t-142 -59h-342v700h342q83 0 142 -58.5t59 -141.5
q0 -86 -62 -146q-48 43 -114 51q32 8 52.5 34.5t20.5 59.5zM295 499q0 -34 21 -60t53 -34q-66 -9 -113 -52q-64 59 -64 146q0 51 23 94h149q-30 -9 -49.5 -35t-19.5 -59z" />
    <glyph glyph-name="c" unicode="c" horiz-adv-x="450" 
d="M400 0q-145 0 -247.5 102.5t-102.5 247.5t102.5 247.5t247.5 102.5v-700z" />
    <glyph glyph-name="d" unicode="d" horiz-adv-x="602" 
d="M50 700h143v-700h-143v700zM204 700q144 0 246 -102t102 -246h-151q0 82 -57.5 139.5t-139.5 57.5v151zM552 348q0 -144 -102 -246t-246 -102v151q82 0 139.5 57.5t57.5 139.5h151z" />
    <glyph glyph-name="e" unicode="e" horiz-adv-x="583" 
d="M533 700v-209h-483v209h483zM533 245h-483v210h483v-210zM533 0h-483v209h483v-209z" />
    <glyph glyph-name="f" unicode="f" horiz-adv-x="641" 
d="M50 639q0 25 18 43t43 18t43 -18t18 -43t-18 -43t-43 -18v61h-61zM190 639q0 25 18 43t43 18t43 -18t18 -43t-18 -43t-43 -18v61h-61zM329 639q0 25 18.5 43t43.5 18t43 -18t18 -43t-18 -43t-43 -18v61h-62zM530 700q25 0 43 -18t18 -43t-17.5 -43t-43.5 -18v61h-61
q0 25 18 43t43 18zM50 494q0 25 18 43.5t43 18.5t43 -18t18 -44q0 -25 -18 -43t-43 -18v61h-61zM190 494q0 26 18 44t43 18t43 -18.5t18 -43.5t-18 -43t-43 -18v61h-61zM50 350q0 25 18 43t43 18t43 -17.5t18 -43.5t-18 -43.5t-43 -17.5v61h-61zM190 350q0 26 18 43.5
t43 17.5t43 -18t18 -43t-18 -43t-43 -18v61h-61zM329 350q0 25 18 43t44 18q25 0 43 -18t18 -43t-18 -43t-43 -18v61h-62zM530 350h-61q0 25 18 43t43 18q26 0 43.5 -17.5t17.5 -43.5t-17.5 -43.5t-43.5 -17.5v61zM50 206q0 25 18 43t43 18t43 -18t18 -43q0 -26 -18 -44
t-43 -18v62h-61zM190 206q0 25 18 43t43 18t43 -18t18 -43t-18 -43.5t-43 -18.5v62h-61zM50 61q0 25 18 43t43 18t43 -18t18 -43t-18 -43t-43 -18v61h-61zM190 61q0 25 18 43t43 18t43 -18t18 -43t-18 -43t-43 -18v61h-61z" />
    <glyph glyph-name="g" unicode="g" horiz-adv-x="567" 
d="M167 700h233v-117h-233v117zM50 117v466h117v-466h-117zM517 467h-117v116h117v-116zM517 350v-233h-117v116h-117v117h234zM400 0h-233v117h233v-117z" />
    <glyph glyph-name="h" unicode="h" horiz-adv-x="728" 
d="M50 700h217v-700h-217v700zM678 700v-700h-217v700h217zM364 287q-28 0 -48 20t-20 48t20 48t48 20t48 -20t20 -48q0 -29 -20 -48.5t-48 -19.5z" />
    <glyph glyph-name="i" unicode="i" horiz-adv-x="247" 
d="M124 553q-31 0 -52.5 21.5t-21.5 51.5q0 31 21.5 52.5t52.5 21.5q30 0 51.5 -21.5t21.5 -52.5q0 -30 -21.5 -51.5t-51.5 -21.5zM124 516q30 0 51.5 -21.5t21.5 -52.5t-21.5 -52.5t-51.5 -21.5q-31 0 -52.5 21.5t-21.5 52.5t21.5 52.5t52.5 21.5zM124 332q30 0 51.5 -21.5
t21.5 -52.5t-21.5 -52.5t-51.5 -21.5q-31 0 -52.5 21.5t-21.5 52.5t21.5 52.5t52.5 21.5zM124 0q-31 0 -52.5 21.5t-21.5 52.5q0 30 21.5 51.5t52.5 21.5q30 0 51.5 -21.5t21.5 -51.5q0 -31 -21.5 -52.5t-51.5 -21.5z" />
    <glyph glyph-name="j" unicode="j" horiz-adv-x="652" 
d="M602 136q0 -56 -40 -96t-96 -40h-137v700h273v-564zM186 331q57 0 97 -40t40 -96v-195h-137q-56 0 -96 40t-40 96v195h136z" />
    <glyph glyph-name="k" unicode="k" horiz-adv-x="568" 
d="M50 352v348h468zM50 0v348l468 -348h-468z" />
    <glyph glyph-name="l" unicode="l" horiz-adv-x="559" 
d="M50 700h227v-700h-227v700zM509 347v-347h-227z" />
    <glyph glyph-name="m" unicode="m" horiz-adv-x="886" 
d="M130 0q-38 0 -63 30q-23 29 -15 68l119 520q8 36 36.5 59t65.5 23t66 -23t37 -59l67 -296l67 296q8 36 37 59t66 23t65.5 -23t36.5 -59l119 -520q8 -39 -16 -68q-24 -30 -62 -30q-28 0 -49.5 17.5t-28.5 44.5l-65 288l-60 -262q-9 -39 -39.5 -63.5t-70.5 -24.5t-71 24.5
t-39 63.5l-60 262l-65 -288q-7 -27 -28.5 -44.5t-49.5 -17.5zM89 47q17 -20 41 -20q19 0 33 11.5t18 29.5l79 346h26l73 -320q7 -29 30.5 -48t53.5 -19t53.5 19t30.5 48l73 320h26l79 -346q4 -18 18 -29.5t33 -11.5q26 0 41 20q16 21 10 44l-118 521q-6 27 -27.5 44
t-48.5 17q-28 0 -49 -17t-27 -44l-81 -354h-26l-81 354q-6 27 -27 44t-49 17t-49 -17t-27 -44l-118 -521q-6 -23 10 -44z" />
    <glyph glyph-name="n" unicode="n" horiz-adv-x="701" 
d="M50 700h146v-700h-146v700zM651 700v-700h-146v700h146zM224 534q-8 22 2 43.5t32 29.5q9 3 20 3q18 0 32.5 -10t21.5 -27q8 -23 -2.5 -44.5t-32.5 -28.5q-14 -4 -20 -4q-38 0 -53 38zM273 398q-8 22 2 43.5t32 29.5q14 4 20 4q40 0 53 -38q8 -22 -1.5 -43.5t-32.5 -29.5
q-9 -3 -19 -3q-40 0 -54 37zM356 336q9 3 20 3q40 0 53 -37q8 -23 -2 -44.5t-32 -29.5q-9 -3 -19 -3q-41 0 -54 38q-8 22 1.5 43.5t32.5 29.5zM371 127q-8 23 2 44.5t32 28.5q14 4 20 4q38 0 53 -38q8 -22 -2 -43.5t-32 -29.5q-9 -3 -20 -3q-40 0 -53 37z" />
    <glyph glyph-name="o" unicode="o" horiz-adv-x="793" 
d="M78 495l206 -73l-152 157l177 -128l-102 193l134 -172l-43 214l79 -204l19 218l19 -218l80 204l-43 -214l134 172l-102 -193l177 128l-152 -157l206 73l-190 -107l218 12l-213 -50l213 -50l-218 12l190 -107l-206 73l152 -157l-177 128l102 -193l-134 172l43 -214
l-80 204l-19 -218l-19 218l-79 -204l43 214l-134 -172l102 193l-177 -128l152 157l-206 -73l190 107l-218 -12l213 50l-213 50l218 -12z" />
    <glyph glyph-name="p" unicode="p" horiz-adv-x="819" 
d="M165 0h-115v700h115v-700zM502 700q110 0 188.5 -78.5t78.5 -188.5t-78.5 -188.5t-188.5 -78.5h-331v534h331z" />
    <glyph glyph-name="q" unicode="q" horiz-adv-x="564" 
d="M477 0q-9 0 -14 4l-153 96q-32 -13 -67 -13q-61 0 -108.5 38.5t-68.5 98.5q-33 96 1 225q12 46 32.5 88t50.5 80t72 60.5t90 22.5q67 0 119.5 -38t71.5 -102q27 -89 -9 -224q-15 -54 -43 -103l52 -200q5 -18 -10 -28q-8 -5 -16 -5zM397 230q-3 12 3 21q26 42 42 99
q33 121 10 195q-13 46 -52 74t-87 28q-38 0 -72 -20t-57.5 -53t-39.5 -67.5t-26 -71.5q-30 -114 -1 -193q26 -79 99 -98q12 -4 28 -4q27 0 57 14q6 3 12 3q7 0 14 -4l108 -68z" />
    <glyph glyph-name="r" unicode="r" horiz-adv-x="586" 
d="M50 700h71v-700h-71v700zM150 0v700h71v-700h-71zM250 350v350h71v-348l115 -352h-72l-113 350h-1zM421 352l115 -352h-72l-113 350h-1v350h71v-348zM450 367v333h71v-333h-71z" />
    <glyph glyph-name="s" unicode="s" horiz-adv-x="877" 
d="M827 234q0 -97 -70 -165.5t-168 -68.5h-404q-49 0 -84.5 35t-35.5 85t35.5 85t84.5 35h39q-75 20 -124 82t-50 141q-1 97 68 167t166 70h365q49 0 84 -35t35 -85q0 -46 -30.5 -80t-75.5 -39q55 -17 97 -59q70 -71 68 -168zM649 526q22 0 38 16t16 38t-16 38t-38 16h-365
q-71 0 -119 -50q-51 -51 -49 -120q1 -69 51 -118t120 -49h305q27 0 44 -19q19 -19 17 -45q-2 -25 -19.5 -42t-42.5 -17h-406q-22 0 -38 -16t-16 -38t16 -38t38 -16h404q71 0 121.5 49.5t51.5 119.5q0 71 -50 121t-120 50h-308q-26 0 -43 18.5t-17 44.5q1 24 19 40.5t42 16.5
h364z" />
    <glyph glyph-name="t" unicode="t" horiz-adv-x="761" 
d="M380 700l331 -139v-209l-331 139l-330 -139v209zM411 0h-61v472l30 12l31 -12v-472z" />
    <glyph glyph-name="u" unicode="u" horiz-adv-x="571" 
d="M168 502l117 198l118 -198l118 198v-465q0 -97 -69 -166t-167 -69q-97 0 -166 69t-69 166v465z" />
    <glyph glyph-name="v" unicode="v" horiz-adv-x="776" 
d="M597 572q-44 0 -79 27l-158 -599h-125l-185 700h274q0 -53 -38 -90.5t-91 -37.5q-19 0 -35 4l137 -518l170 642h259q0 -53 -38 -90.5t-91 -37.5z" />
    <glyph glyph-name="w" unicode="w" horiz-adv-x="902" 
d="M57 524q-22 65 17.5 120.5t108.5 55.5q68 0 107.5 -56t17.5 -120l-125 -361zM326 524q-22 64 17.5 120t107.5 56t107.5 -56t17.5 -120l-125 -361zM594 524q-22 64 17.5 120t107.5 56t107.5 -56t17.5 -120l-125 -361zM317 0q-68 0 -107.5 56t-17.5 120l125 361l125 -361
q22 -64 -17.5 -120t-107.5 -56zM710 176q22 -64 -17.5 -120t-107.5 -56t-107.5 56t-17.5 120l125 361z" />
    <glyph glyph-name="x" unicode="x" horiz-adv-x="592" 
d="M293 530v-174l-243 170v174zM542 700v-174l-243 -170v174zM293 170l-243 -170v174l243 170v-174zM299 170v174l243 -170v-174z" />
    <glyph glyph-name="y" unicode="y" horiz-adv-x="807" 
d="M549 700l-250 -503l-249 503h499zM561 700h196l-248 -503v-197h-196v197z" />
    <glyph glyph-name="z" unicode="z" horiz-adv-x="814" 
d="M50 486v214h714v-214h-714zM628 404q0 25 17 42.5t42 17.5t42.5 -17.5t17.5 -42.5q0 -24 -17.5 -41.5t-42.5 -17.5t-42 17.5t-17 41.5zM363 345q0 25 17 42t42 17t42 -17t17 -42t-17 -42t-42 -17t-42 17t-17 42zM223 296q0 -25 -17 -42.5t-42 -17.5t-42.5 17.5
t-17.5 42.5q0 24 17.5 41.5t42.5 17.5t42 -17.5t17 -41.5zM50 0v214h714v-214h-714z" />
    <glyph glyph-name="uni0401" unicode="&#x401;" horiz-adv-x="850" 
d="M292 647q-1 19 12 33t32 15l135 5q19 1 32.5 -12t14.5 -32t-11.5 -32.5t-31.5 -14.5l-136 -6h-2q-18 0 -31 13t-14 31zM754 697q19 0 32.5 -13.5t13.5 -32.5t-13.5 -32t-32.5 -13h-139q-19 0 -32.5 13.5t-13.5 32.5t13.5 32t32.5 13h139zM262 313q31 99 115 180t180 81
q87 0 119 -64q28 -55 -4 -114q-17 -33 -62 -69q-117 -91 -271 -104q0 -56 43.5 -94t99.5 -38q64 0 118 42q48 37 45 76q-1 19 11.5 32.5t31.5 15.5q19 1 33 -11.5t15 -31.5q6 -86 -79 -152q-79 -62 -175 -62q-95 0 -164.5 64.5t-69.5 158.5q-92 8 -172 46q-17 7 -23.5 25.5
t1.5 34.5q12 26 41 26q12 0 20 -4q70 -33 147 -38zM361 317q108 17 193 82q28 21 37 40q9 16 4 30q-7 13 -37 13q-18 0 -32 -5q-48 -14 -89 -52.5t-69 -94.5z" />
    <glyph glyph-name="uni0404" unicode="&#x404;" horiz-adv-x="702" 
d="M366 309l286 -309h-278l-324 350l324 350h278l-278 -300h278v-91h-286z" />
    <glyph glyph-name="uni0406" unicode="&#x406;" horiz-adv-x="247" 
d="M124 553q-31 0 -52.5 21.5t-21.5 51.5q0 31 21.5 52.5t52.5 21.5q30 0 51.5 -21.5t21.5 -52.5q0 -30 -21.5 -51.5t-51.5 -21.5zM124 516q30 0 51.5 -21.5t21.5 -52.5t-21.5 -52.5t-51.5 -21.5q-31 0 -52.5 21.5t-21.5 52.5t21.5 52.5t52.5 21.5zM124 332q30 0 51.5 -21.5
t21.5 -52.5t-21.5 -52.5t-51.5 -21.5q-31 0 -52.5 21.5t-21.5 52.5t21.5 52.5t52.5 21.5zM124 0q-31 0 -52.5 21.5t-21.5 52.5q0 30 21.5 51.5t52.5 21.5q30 0 51.5 -21.5t21.5 -51.5q0 -31 -21.5 -52.5t-51.5 -21.5z" />
    <glyph glyph-name="uni0407" unicode="&#x407;" horiz-adv-x="625" 
d="M313 612l-88 -87l-87 87l87 88zM488 612l-88 -87l-87 87l87 88zM50 438l88 87l87 -87l-87 -88zM313 525l87 -87l-87 -88l-88 88zM400 437l88 88l87 -88l-87 -87zM313 350l87 -87l-87 -88l-88 88zM50 88l88 87l87 -87l-87 -88zM225 88l88 87l87 -87l-87 -88zM400 88l88 87
l87 -87l-87 -88z" />
    <glyph glyph-name="uni0410" unicode="&#x410;" horiz-adv-x="737" 
d="M167 401l87 299h229l87 -299h-403zM135 292h466l86 -292h-637z" />
    <glyph glyph-name="uni0411" unicode="&#x411;" horiz-adv-x="516" 
d="M435 575h-261v-575h-124v700l385 -1v-124zM339 284q0 65 -45.5 111.5t-110.5 48.5v123q117 0 200 -83t83 -200q0 -118 -83 -201t-200 -83v123q65 2 110.5 48.5t45.5 112.5z" />
    <glyph glyph-name="uni0412" unicode="&#x412;" horiz-adv-x="643" 
d="M490 499q0 41 -29 69.5t-69 28.5h-236v-494h236q40 0 69 28.5t29 68.5t-29 69t-69 29t-68.5 -28.5t-28.5 -69.5q0 -33 19.5 -58.5t49.5 -34.5h-149q-23 43 -23 93q0 83 58.5 142t141.5 59t142 -58.5t59 -141.5t-59 -142t-142 -59h-342v700h342q83 0 142 -58.5t59 -141.5
q0 -86 -62 -146q-48 43 -114 51q32 8 52.5 34.5t20.5 59.5zM295 499q0 -34 21 -60t53 -34q-66 -9 -113 -52q-64 59 -64 146q0 51 23 94h149q-30 -9 -49.5 -35t-19.5 -59z" />
    <glyph glyph-name="uni0413" unicode="&#x413;" horiz-adv-x="635" 
d="M50 0v700h135v-700h-135zM223 617q0 35 24.5 59t58.5 24t58.5 -24t24.5 -59q0 -34 -24.5 -58t-58.5 -24t-58.5 24t-24.5 58zM502 535q-34 0 -58 24t-24 58t24 58.5t58 24.5t58.5 -24t24.5 -59q0 -34 -24.5 -58t-58.5 -24z" />
    <glyph glyph-name="uni0414" unicode="&#x414;" horiz-adv-x="709" 
d="M555 598h-401v102h401v-102zM555 447h-401v102h401v-102zM555 296h-401v101h401v-101zM154 106v-106h-104v241h609v-241h-104v106h-401z" />
    <glyph glyph-name="uni0415" unicode="&#x415;" horiz-adv-x="583" 
d="M533 700v-209h-483v209h483zM533 245h-483v210h483v-210zM533 0h-483v209h483v-209z" />
    <glyph glyph-name="uni0416" unicode="&#x416;" 
d="M729 350q0 -4 -4 -4h-285l303 -303q16 -18 0 -36q-9 -7 -18 -7t-18 7l-292 293v-173q0 -6 -4.5 -10.5t-10.5 -4.5t-10.5 4.5t-4.5 10.5v173l-292 -293q-7 -7 -19 -7q-10 0 -17 7q-16 18 0 36l303 303h-285q-4 0 -4 4t4 4h285l-303 303q-16 18 0 36q7 7 18 7t18 -7
l292 -293v173q0 6 4.5 10.5t10.5 4.5t10.5 -4.5t4.5 -10.5v-173l292 293q7 7 18 7t18 -7q16 -18 0 -36l-303 -303h285q4 0 4 -4z" />
    <glyph glyph-name="uni0417" unicode="&#x417;" horiz-adv-x="548" 
d="M310 700q64 0 108.5 -45t45.5 -108q0 -64 -45 -108.5t-109 -44.5h-9q83 0 140.5 -59t56.5 -142q-1 -80 -60 -136.5t-140 -56.5h-199q-20 0 -34.5 14.5t-14.5 34.5t14.5 34.5t34.5 14.5h202q40 0 69 28.5t30 68.5q1 41 -29 70.5t-72 29.5h-133q-41 0 -69.5 29t-28.5 70
q0 40 29 69t69 29h144q23 0 39.5 17t15.5 41q-1 22 -17.5 37t-38.5 15h-165q-20 0 -34.5 14.5t-14.5 34.5t14.5 34.5t34.5 14.5h166z" />
    <glyph glyph-name="uni0418" unicode="&#x418;" horiz-adv-x="798" 
d="M429 700l-295 -544l614 544v-700h-378l294 544l-614 -544v700h379z" />
    <glyph glyph-name="uni0419" unicode="&#x419;" horiz-adv-x="654" 
d="M566 700q0 -70 -49.5 -119.5t-119.5 -49.5t-119.5 49.5t-49.5 119.5h94q0 -31 22 -53t53 -22t53 22t22 53h94zM509 229q0 -95 -67.5 -162t-162.5 -67t-162 67t-67 162v285h229v-269q0 -47 34 -80.5t81 -33.5q48 0 81.5 33.5t33.5 80.5v-16zM515 514h89v-514h-89v514z" />
    <glyph glyph-name="uni041A" unicode="&#x41a;" horiz-adv-x="568" 
d="M50 352v348h468zM50 0v348l468 -348h-468z" />
    <glyph glyph-name="uni041B" unicode="&#x41b;" 
d="M668 6q-18 -6 -36 -6q-38 0 -69.5 22.5t-43.5 59.5l-119 367l-119 -367q-12 -37 -43 -59.5t-70 -22.5q-32 0 -61.5 18t-43.5 47q-22 44 -7 90l125 386q23 72 83 115.5t136 43.5t136 -43.5t83 -115.5l125 -386q15 -47 -7.5 -90.5t-68.5 -58.5zM548 518q-16 49 -56 78.5
t-92 29.5t-92 -29.5t-57 -78.5l-125 -386q-5 -17 3 -34q8 -16 26 -22q8 -2 13 -2q32 0 42 31l125 386q16 46 65 46t64 -46l125 -386q10 -31 43 -31q5 0 13 2q17 6 25.5 22.5t3.5 33.5z" />
    <glyph glyph-name="uni041C" unicode="&#x41c;" horiz-adv-x="886" 
d="M130 0q-38 0 -63 30q-23 29 -15 68l119 520q8 36 36.5 59t65.5 23t66 -23t37 -59l67 -296l67 296q8 36 37 59t66 23t65.5 -23t36.5 -59l119 -520q8 -39 -16 -68q-24 -30 -62 -30q-28 0 -49.5 17.5t-28.5 44.5l-65 288l-60 -262q-9 -39 -39.5 -63.5t-70.5 -24.5t-71 24.5
t-39 63.5l-60 262l-65 -288q-7 -27 -28.5 -44.5t-49.5 -17.5zM89 47q17 -20 41 -20q19 0 33 11.5t18 29.5l79 346h26l73 -320q7 -29 30.5 -48t53.5 -19t53.5 19t30.5 48l73 320h26l79 -346q4 -18 18 -29.5t33 -11.5q26 0 41 20q16 21 10 44l-118 521q-6 27 -27.5 44
t-48.5 17q-28 0 -49 -17t-27 -44l-81 -354h-26l-81 354q-6 27 -27 44t-49 17t-49 -17t-27 -44l-118 -521q-6 -23 10 -44z" />
    <glyph glyph-name="uni041D" unicode="&#x41d;" horiz-adv-x="728" 
d="M50 700h217v-700h-217v700zM678 700v-700h-217v700h217zM364 287q-28 0 -48 20t-20 48t20 48t48 20t48 -20t20 -48q0 -29 -20 -48.5t-48 -19.5z" />
    <glyph glyph-name="uni041E" unicode="&#x41e;" horiz-adv-x="793" 
d="M78 495l206 -73l-152 157l177 -128l-102 193l134 -172l-43 214l79 -204l19 218l19 -218l80 204l-43 -214l134 172l-102 -193l177 128l-152 -157l206 73l-190 -107l218 12l-213 -50l213 -50l-218 12l190 -107l-206 73l152 -157l-177 128l102 -193l-134 172l43 -214
l-80 204l-19 -218l-19 218l-79 -204l43 214l-134 -172l102 193l-177 -128l152 157l-206 -73l190 107l-218 -12l213 50l-213 50l218 -12z" />
    <glyph glyph-name="uni041F" unicode="&#x41f;" horiz-adv-x="770" 
d="M720 700v-262h-670v262h670zM50 434h149q59 0 100.5 -41.5t41.5 -100.5v-292h-291v434zM429 292q0 59 41 100.5t100 41.5h150v-434h-291v292z" />
    <glyph glyph-name="uni0420" unicode="&#x420;" horiz-adv-x="819" 
d="M165 0h-115v700h115v-700zM502 700q110 0 188.5 -78.5t78.5 -188.5t-78.5 -188.5t-188.5 -78.5h-331v534h331z" />
    <glyph glyph-name="uni0421" unicode="&#x421;" horiz-adv-x="450" 
d="M400 0q-145 0 -247.5 102.5t-102.5 247.5t102.5 247.5t247.5 102.5v-700z" />
    <glyph glyph-name="uni0422" unicode="&#x422;" horiz-adv-x="749" 
d="M699 652h-649v48h649v-48zM699 570h-649v48h649v-48zM50 538h49v-538h-49v538zM134 538h50v-538h-50v538zM357 538v-538h-49v538h49zM441 538v-538h-49v538h49zM614 538v-538h-49v538h49zM649 538h50v-538h-50v538z" />
    <glyph glyph-name="uni0423" unicode="&#x423;" horiz-adv-x="807" 
d="M549 700l-250 -468l-249 468h499zM189 0l372 700h196l-373 -700h-195z" />
    <glyph glyph-name="uni0424" unicode="&#x424;" horiz-adv-x="838" 
d="M436 700v-700h-34v700h34zM398 350l-246 -246q-102 102 -102 246t102 246zM440 350l246 246q102 -102 102 -246t-102 -246z" />
    <glyph glyph-name="uni0425" unicode="&#x425;" horiz-adv-x="592" 
d="M293 530v-174l-243 170v174zM542 700v-174l-243 -170v174zM293 170l-243 -170v174l243 170v-174zM299 170v174l243 -170v-174z" />
    <glyph glyph-name="uni0426" unicode="&#x426;" horiz-adv-x="733" 
d="M50 156v544h216v-433h188l-31 -111h-373zM409 700h51v-419h-51v419zM492 700h52v-419h-52v419zM627 700v-419h-52v419h52zM683 267l-74 -267h-216l74 267h216z" />
    <glyph glyph-name="uni0427" unicode="&#x427;" horiz-adv-x="642" 
d="M50 641q0 25 17 42t42 17t42 -17t17 -42t-17 -42t-42 -17t-42 17t-17 42zM473 641q0 25 17.5 42t42.5 17q24 0 41.5 -17t17.5 -42t-17.5 -42t-41.5 -17q-25 0 -42.5 17t-17.5 42zM50 495q0 25 17 42.5t42 17.5t42 -17.5t17 -42.5q0 -24 -17 -41.5t-42 -17.5t-42 17.5
t-17 41.5zM473 495q0 25 17.5 42.5t42.5 17.5q24 0 41.5 -17.5t17.5 -42.5q0 -24 -17.5 -41.5t-41.5 -17.5q-25 0 -42.5 17.5t-17.5 41.5zM109 291q-25 0 -42 17t-17 42t17 42t42 17t42 -17t17 -42t-17 -42t-42 -17zM533 291q-25 0 -42.5 17t-17.5 42t17.5 42t42.5 17
q24 0 41.5 -17t17.5 -42t-17.5 -42t-41.5 -17zM232 145q-25 0 -42 17.5t-17 42.5q0 24 17 41.5t42 17.5q24 0 41.5 -17.5t17.5 -41.5q0 -25 -17.5 -42.5t-41.5 -17.5zM382 145q-25 0 -42 17.5t-17 42.5q0 24 17 41.5t42 17.5t42 -17.5t17 -41.5q0 -25 -17 -42.5t-42 -17.5z
M533 145q-25 0 -42.5 17.5t-17.5 42.5q0 24 17.5 41.5t42.5 17.5q24 0 41.5 -17.5t17.5 -41.5q0 -25 -17.5 -42.5t-41.5 -17.5zM533 0q-25 0 -42.5 17t-17.5 42t17.5 42t42.5 17q24 0 41.5 -17t17.5 -42t-17.5 -42t-41.5 -17z" />
    <glyph glyph-name="uni0428" unicode="&#x428;" horiz-adv-x="918" 
d="M101 617q-30 0 -51 41q21 42 51 42t51 -42q-21 -41 -51 -41zM203 617q-30 0 -51 41q21 42 51 42t51 -42q-21 -41 -51 -41zM408 617q-30 0 -51 41q21 42 51 42t51 -42q-21 -41 -51 -41zM510 617q-30 0 -51 41q21 42 51 42t51 -42q-21 -41 -51 -41zM714 617q-30 0 -51 41
q21 42 51 42t51 -42q-21 -41 -51 -41zM816 617q-30 0 -51 41q21 42 51 42q29 0 52 -42q-23 -41 -52 -41zM101 514q-30 0 -51 42q21 41 51 41t51 -41q-21 -42 -51 -42zM203 514q-30 0 -51 42q21 41 51 41t51 -41q-21 -42 -51 -42zM408 514q-30 0 -51 42q21 41 51 41t51 -41
q-21 -42 -51 -42zM510 514q-30 0 -51 42q21 41 51 41t51 -41q-21 -42 -51 -42zM714 597q30 0 51 -41q-21 -42 -51 -42t-51 42q21 41 51 41zM816 597q29 0 52 -41q-23 -42 -52 -42q-30 0 -51 42q21 41 51 41zM101 411q-30 0 -51 42q20 41 51 41t51 -41q-21 -42 -51 -42z
M203 411q-30 0 -51 42q20 41 51 41t51 -41q-21 -42 -51 -42zM408 411q-30 0 -51 42q21 41 51 41t51 -41q-21 -42 -51 -42zM510 411q-30 0 -51 42q21 41 51 41t51 -41q-21 -42 -51 -42zM714 494q30 0 51 -41q-21 -42 -51 -42t-51 42q21 41 51 41zM816 494q30 0 52 -41
q-23 -42 -52 -42q-30 0 -51 42q21 41 51 41zM101 308q-30 0 -51 42q21 42 51 42t51 -42q-21 -42 -51 -42zM203 308q-30 0 -51 42q21 42 51 42t51 -42q-21 -42 -51 -42zM408 308q-30 0 -51 42q21 42 51 42t51 -42q-21 -42 -51 -42zM510 308q-30 0 -51 42q21 42 51 42t51 -42
q-21 -42 -51 -42zM714 392q30 0 51 -42q-21 -42 -51 -42t-51 42q21 42 51 42zM816 392q29 0 52 -42q-23 -42 -52 -42q-30 0 -51 42q21 42 51 42zM101 206q-31 0 -51 41q21 42 51 42t51 -42q-20 -41 -51 -41zM203 206q-31 0 -51 41q21 42 51 42t51 -42q-20 -41 -51 -41z
M408 206q-30 0 -51 41q21 42 51 42t51 -42q-21 -41 -51 -41zM510 206q-30 0 -51 41q21 42 51 42t51 -42q-21 -41 -51 -41zM714 289q30 0 51 -42q-21 -41 -51 -41t-51 41q21 42 51 42zM816 289q29 0 52 -42q-22 -41 -52 -41t-51 41q21 42 51 42zM101 186q30 0 51 -42
q-21 -41 -51 -41t-51 41q21 42 51 42zM203 186q30 0 51 -42q-21 -41 -51 -41t-51 41q21 42 51 42zM306 186q28 0 51 -42q-23 -41 -51 -41q-29 0 -52 41q23 42 52 42zM408 186q30 0 51 -42q-21 -41 -51 -41t-51 41q21 42 51 42zM510 186q30 0 51 -42q-21 -41 -51 -41t-51 41
q21 42 51 42zM612 186q30 0 51 -42q-21 -41 -51 -41t-51 41q21 42 51 42zM714 186q30 0 51 -42q-21 -41 -51 -41t-51 41q21 42 51 42zM816 186q29 0 52 -42q-23 -41 -52 -41q-30 0 -51 41q21 42 51 42zM101 83q30 0 51 -41q-21 -42 -51 -42t-51 42q21 41 51 41zM203 83
q30 0 51 -41q-21 -42 -51 -42t-51 42q21 41 51 41zM306 83q28 0 51 -41q-23 -42 -51 -42q-29 0 -52 42q23 41 52 41zM408 83q30 0 51 -41q-21 -42 -51 -42t-51 42q21 41 51 41zM510 83q30 0 51 -41q-21 -42 -51 -42t-51 42q21 41 51 41zM612 83q30 0 51 -41q-21 -42 -51 -42
t-51 42q21 41 51 41zM714 83q30 0 51 -41q-21 -42 -51 -42t-51 42q21 41 51 41zM816 83q29 0 52 -41q-23 -42 -52 -42q-30 0 -51 42q21 41 51 41z" />
    <glyph glyph-name="uni0429" unicode="&#x429;" horiz-adv-x="931" 
d="M104 232h-54v468h54v-468zM118 232v468h54v-468h-54zM240 700v-468h-54v468h54zM350 700v-468h-55v468h55zM418 700v-468h-55v468h55zM431 700h55v-468h-55v468zM541 700h54v-468h-54v468zM609 700h54v-468h-54v468zM731 700v-468h-54v468h54zM722 224l-47 -118h-625v118
h672zM881 224l-89 -224h-149l89 224h149z" />
    <glyph glyph-name="uni042A" unicode="&#x42a;" horiz-adv-x="673" 
d="M89 700h390l-88 -274q-83 -8 -139.5 -70t-56.5 -146q0 -100 78 -166l-13 -44h-210l198 632h-159v68zM412 0q-87 0 -148.5 61.5t-61.5 148.5q0 88 61.5 149.5t148.5 61.5t149 -61.5t62 -149.5q0 -87 -62 -148.5t-149 -61.5zM412 287q-31 0 -53.5 -22.5t-22.5 -54.5t22 -54
t54 -22t54 22t22 54t-22.5 54.5t-53.5 22.5z" />
    <glyph glyph-name="uni042B" unicode="&#x42b;" horiz-adv-x="802" 
d="M154 0h-104v700h104v-700zM290 0h-104v700h104v-700zM572 700h104v-700h-104v700zM752 700v-700h-44v700h44zM330 432q89 0 152 -63t63 -153q0 -89 -63 -152t-152 -63h-8v431h8z" />
    <glyph glyph-name="uni042C" unicode="&#x42c;" horiz-adv-x="631" 
d="M312 700v-700q-109 0 -185.5 76.5t-76.5 185.5v438h262zM319 524q109 0 185.5 -76.5t76.5 -185.5t-76.5 -185.5t-185.5 -76.5v524z" />
    <glyph glyph-name="uni042D" unicode="&#x42d;" horiz-adv-x="450" 
d="M253 419q-21 65 -77 105.5t-126 40.5v135q126 0 222.5 -80t120.5 -201h-140zM394 412q6 -30 6 -62q0 -145 -102.5 -247.5t-247.5 -102.5v135q70 0 126.5 42t77.5 107h-204v128h344z" />
    <glyph glyph-name="uni042E" unicode="&#x42e;" horiz-adv-x="802" 
d="M241 0q-79 0 -135 102.5t-56 247.5t56 247.5t135 102.5v-700zM553 406q-22 -1 -37 -17.5t-15 -38.5t15 -38t37 -18v-294q-79 0 -135 102.5t-56 247.5t56 247.5t135 102.5v-294zM560 294q23 2 38 18t15 38t-15 38t-38 18v294q79 0 135.5 -102.5t56.5 -247.5t-56.5 -247.5
t-135.5 -102.5v294zM301 401q22 0 37 -15t15 -36q0 -22 -15 -37t-37 -15q-21 0 -36.5 15t-15.5 37q0 21 15.5 36t36.5 15z" />
    <glyph glyph-name="uni042F" unicode="&#x42f;" horiz-adv-x="813" 
d="M289 202h-51q-78 0 -133 55t-55 133v122q0 78 55 133t133 55h195zM439 700h236l-203 -700h-235zM554 260l126 440h83v-700h-209v260z" />
    <glyph glyph-name="uni0430" unicode="&#x430;" horiz-adv-x="737" 
d="M167 401l87 299h229l87 -299h-403zM135 292h466l86 -292h-637z" />
    <glyph glyph-name="uni0431" unicode="&#x431;" horiz-adv-x="516" 
d="M435 575h-261v-575h-124v700l385 -1v-124zM339 284q0 65 -45.5 111.5t-110.5 48.5v123q117 0 200 -83t83 -200q0 -118 -83 -201t-200 -83v123q65 2 110.5 48.5t45.5 112.5z" />
    <glyph glyph-name="uni0432" unicode="&#x432;" horiz-adv-x="643" 
d="M490 499q0 41 -29 69.5t-69 28.5h-236v-494h236q40 0 69 28.5t29 68.5t-29 69t-69 29t-68.5 -28.5t-28.5 -69.5q0 -33 19.5 -58.5t49.5 -34.5h-149q-23 43 -23 93q0 83 58.5 142t141.5 59t142 -58.5t59 -141.5t-59 -142t-142 -59h-342v700h342q83 0 142 -58.5t59 -141.5
q0 -86 -62 -146q-48 43 -114 51q32 8 52.5 34.5t20.5 59.5zM295 499q0 -34 21 -60t53 -34q-66 -9 -113 -52q-64 59 -64 146q0 51 23 94h149q-30 -9 -49.5 -35t-19.5 -59z" />
    <glyph glyph-name="uni0433" unicode="&#x433;" horiz-adv-x="635" 
d="M50 0v700h135v-700h-135zM223 617q0 35 24.5 59t58.5 24t58.5 -24t24.5 -59q0 -34 -24.5 -58t-58.5 -24t-58.5 24t-24.5 58zM502 535q-34 0 -58 24t-24 58t24 58.5t58 24.5t58.5 -24t24.5 -59q0 -34 -24.5 -58t-58.5 -24z" />
    <glyph glyph-name="uni0434" unicode="&#x434;" horiz-adv-x="709" 
d="M555 598h-401v102h401v-102zM555 447h-401v102h401v-102zM555 296h-401v101h401v-101zM154 106v-106h-104v241h609v-241h-104v106h-401z" />
    <glyph glyph-name="uni0435" unicode="&#x435;" horiz-adv-x="583" 
d="M533 700v-209h-483v209h483zM533 245h-483v210h483v-210zM533 0h-483v209h483v-209z" />
    <glyph glyph-name="uni0436" unicode="&#x436;" 
d="M729 350q0 -4 -4 -4h-285l303 -303q16 -18 0 -36q-9 -7 -18 -7t-18 7l-292 293v-173q0 -6 -4.5 -10.5t-10.5 -4.5t-10.5 4.5t-4.5 10.5v173l-292 -293q-7 -7 -19 -7q-10 0 -17 7q-16 18 0 36l303 303h-285q-4 0 -4 4t4 4h285l-303 303q-16 18 0 36q7 7 18 7t18 -7
l292 -293v173q0 6 4.5 10.5t10.5 4.5t10.5 -4.5t4.5 -10.5v-173l292 293q7 7 18 7t18 -7q16 -18 0 -36l-303 -303h285q4 0 4 -4z" />
    <glyph glyph-name="uni0437" unicode="&#x437;" horiz-adv-x="548" 
d="M310 700q64 0 108.5 -45t45.5 -108q0 -64 -45 -108.5t-109 -44.5h-9q83 0 140.5 -59t56.5 -142q-1 -80 -60 -136.5t-140 -56.5h-199q-20 0 -34.5 14.5t-14.5 34.5t14.5 34.5t34.5 14.5h202q40 0 69 28.5t30 68.5q1 41 -29 70.5t-72 29.5h-133q-41 0 -69.5 29t-28.5 70
q0 40 29 69t69 29h144q23 0 39.5 17t15.5 41q-1 22 -17.5 37t-38.5 15h-165q-20 0 -34.5 14.5t-14.5 34.5t14.5 34.5t34.5 14.5h166z" />
    <glyph glyph-name="uni0438" unicode="&#x438;" horiz-adv-x="798" 
d="M429 700l-295 -544l614 544v-700h-378l294 544l-614 -544v700h379z" />
    <glyph glyph-name="uni0439" unicode="&#x439;" horiz-adv-x="654" 
d="M566 700q0 -70 -49.5 -119.5t-119.5 -49.5t-119.5 49.5t-49.5 119.5h94q0 -31 22 -53t53 -22t53 22t22 53h94zM509 229q0 -95 -67.5 -162t-162.5 -67t-162 67t-67 162v285h229v-269q0 -47 34 -80.5t81 -33.5q48 0 81.5 33.5t33.5 80.5v-16zM515 514h89v-514h-89v514z" />
    <glyph glyph-name="uni043A" unicode="&#x43a;" horiz-adv-x="568" 
d="M50 352v348h468zM50 0v348l468 -348h-468z" />
    <glyph glyph-name="uni043B" unicode="&#x43b;" 
d="M668 6q-18 -6 -36 -6q-38 0 -69.5 22.5t-43.5 59.5l-119 367l-119 -367q-12 -37 -43 -59.5t-70 -22.5q-32 0 -61.5 18t-43.5 47q-22 44 -7 90l125 386q23 72 83 115.5t136 43.5t136 -43.5t83 -115.5l125 -386q15 -47 -7.5 -90.5t-68.5 -58.5zM548 518q-16 49 -56 78.5
t-92 29.5t-92 -29.5t-57 -78.5l-125 -386q-5 -17 3 -34q8 -16 26 -22q8 -2 13 -2q32 0 42 31l125 386q16 46 65 46t64 -46l125 -386q10 -31 43 -31q5 0 13 2q17 6 25.5 22.5t3.5 33.5z" />
    <glyph glyph-name="uni043C" unicode="&#x43c;" horiz-adv-x="886" 
d="M130 0q-38 0 -63 30q-23 29 -15 68l119 520q8 36 36.5 59t65.5 23t66 -23t37 -59l67 -296l67 296q8 36 37 59t66 23t65.5 -23t36.5 -59l119 -520q8 -39 -16 -68q-24 -30 -62 -30q-28 0 -49.5 17.5t-28.5 44.5l-65 288l-60 -262q-9 -39 -39.5 -63.5t-70.5 -24.5t-71 24.5
t-39 63.5l-60 262l-65 -288q-7 -27 -28.5 -44.5t-49.5 -17.5zM89 47q17 -20 41 -20q19 0 33 11.5t18 29.5l79 346h26l73 -320q7 -29 30.5 -48t53.5 -19t53.5 19t30.5 48l73 320h26l79 -346q4 -18 18 -29.5t33 -11.5q26 0 41 20q16 21 10 44l-118 521q-6 27 -27.5 44
t-48.5 17q-28 0 -49 -17t-27 -44l-81 -354h-26l-81 354q-6 27 -27 44t-49 17t-49 -17t-27 -44l-118 -521q-6 -23 10 -44z" />
    <glyph glyph-name="uni043D" unicode="&#x43d;" horiz-adv-x="728" 
d="M50 700h217v-700h-217v700zM678 700v-700h-217v700h217zM364 287q-28 0 -48 20t-20 48t20 48t48 20t48 -20t20 -48q0 -29 -20 -48.5t-48 -19.5z" />
    <glyph glyph-name="uni043E" unicode="&#x43e;" horiz-adv-x="793" 
d="M78 495l206 -73l-152 157l177 -128l-102 193l134 -172l-43 214l79 -204l19 218l19 -218l80 204l-43 -214l134 172l-102 -193l177 128l-152 -157l206 73l-190 -107l218 12l-213 -50l213 -50l-218 12l190 -107l-206 73l152 -157l-177 128l102 -193l-134 172l43 -214
l-80 204l-19 -218l-19 218l-79 -204l43 214l-134 -172l102 193l-177 -128l152 157l-206 -73l190 107l-218 -12l213 50l-213 50l218 -12z" />
    <glyph glyph-name="uni043F" unicode="&#x43f;" horiz-adv-x="770" 
d="M720 700v-262h-670v262h670zM50 434h149q59 0 100.5 -41.5t41.5 -100.5v-292h-291v434zM429 292q0 59 41 100.5t100 41.5h150v-434h-291v292z" />
    <glyph glyph-name="uni0440" unicode="&#x440;" horiz-adv-x="819" 
d="M165 0h-115v700h115v-700zM502 700q110 0 188.5 -78.5t78.5 -188.5t-78.5 -188.5t-188.5 -78.5h-331v534h331z" />
    <glyph glyph-name="uni0441" unicode="&#x441;" horiz-adv-x="450" 
d="M400 0q-145 0 -247.5 102.5t-102.5 247.5t102.5 247.5t247.5 102.5v-700z" />
    <glyph glyph-name="uni0442" unicode="&#x442;" horiz-adv-x="749" 
d="M699 652h-649v48h649v-48zM699 570h-649v48h649v-48zM50 538h49v-538h-49v538zM134 538h50v-538h-50v538zM357 538v-538h-49v538h49zM441 538v-538h-49v538h49zM614 538v-538h-49v538h49zM649 538h50v-538h-50v538z" />
    <glyph glyph-name="uni0443" unicode="&#x443;" horiz-adv-x="807" 
d="M549 700l-250 -468l-249 468h499zM189 0l372 700h196l-373 -700h-195z" />
    <glyph glyph-name="uni0444" unicode="&#x444;" horiz-adv-x="838" 
d="M436 700v-700h-34v700h34zM398 350l-246 -246q-102 102 -102 246t102 246zM440 350l246 246q102 -102 102 -246t-102 -246z" />
    <glyph glyph-name="uni0445" unicode="&#x445;" horiz-adv-x="592" 
d="M293 530v-174l-243 170v174zM542 700v-174l-243 -170v174zM293 170l-243 -170v174l243 170v-174zM299 170v174l243 -170v-174z" />
    <glyph glyph-name="uni0446" unicode="&#x446;" horiz-adv-x="733" 
d="M50 156v544h216v-433h188l-31 -111h-373zM409 700h51v-419h-51v419zM492 700h52v-419h-52v419zM627 700v-419h-52v419h52zM683 267l-74 -267h-216l74 267h216z" />
    <glyph glyph-name="uni0447" unicode="&#x447;" horiz-adv-x="642" 
d="M50 641q0 25 17 42t42 17t42 -17t17 -42t-17 -42t-42 -17t-42 17t-17 42zM473 641q0 25 17.5 42t42.5 17q24 0 41.5 -17t17.5 -42t-17.5 -42t-41.5 -17q-25 0 -42.5 17t-17.5 42zM50 495q0 25 17 42.5t42 17.5t42 -17.5t17 -42.5q0 -24 -17 -41.5t-42 -17.5t-42 17.5
t-17 41.5zM473 495q0 25 17.5 42.5t42.5 17.5q24 0 41.5 -17.5t17.5 -42.5q0 -24 -17.5 -41.5t-41.5 -17.5q-25 0 -42.5 17.5t-17.5 41.5zM109 291q-25 0 -42 17t-17 42t17 42t42 17t42 -17t17 -42t-17 -42t-42 -17zM533 291q-25 0 -42.5 17t-17.5 42t17.5 42t42.5 17
q24 0 41.5 -17t17.5 -42t-17.5 -42t-41.5 -17zM232 145q-25 0 -42 17.5t-17 42.5q0 24 17 41.5t42 17.5q24 0 41.5 -17.5t17.5 -41.5q0 -25 -17.5 -42.5t-41.5 -17.5zM382 145q-25 0 -42 17.5t-17 42.5q0 24 17 41.5t42 17.5t42 -17.5t17 -41.5q0 -25 -17 -42.5t-42 -17.5z
M533 145q-25 0 -42.5 17.5t-17.5 42.5q0 24 17.5 41.5t42.5 17.5q24 0 41.5 -17.5t17.5 -41.5q0 -25 -17.5 -42.5t-41.5 -17.5zM533 0q-25 0 -42.5 17t-17.5 42t17.5 42t42.5 17q24 0 41.5 -17t17.5 -42t-17.5 -42t-41.5 -17z" />
    <glyph glyph-name="uni0448" unicode="&#x448;" horiz-adv-x="918" 
d="M101 617q-30 0 -51 41q21 42 51 42t51 -42q-21 -41 -51 -41zM203 617q-30 0 -51 41q21 42 51 42t51 -42q-21 -41 -51 -41zM408 617q-30 0 -51 41q21 42 51 42t51 -42q-21 -41 -51 -41zM510 617q-30 0 -51 41q21 42 51 42t51 -42q-21 -41 -51 -41zM714 617q-30 0 -51 41
q21 42 51 42t51 -42q-21 -41 -51 -41zM816 617q-30 0 -51 41q21 42 51 42q29 0 52 -42q-23 -41 -52 -41zM101 514q-30 0 -51 42q21 41 51 41t51 -41q-21 -42 -51 -42zM203 514q-30 0 -51 42q21 41 51 41t51 -41q-21 -42 -51 -42zM408 514q-30 0 -51 42q21 41 51 41t51 -41
q-21 -42 -51 -42zM510 514q-30 0 -51 42q21 41 51 41t51 -41q-21 -42 -51 -42zM714 597q30 0 51 -41q-21 -42 -51 -42t-51 42q21 41 51 41zM816 597q29 0 52 -41q-23 -42 -52 -42q-30 0 -51 42q21 41 51 41zM101 411q-30 0 -51 42q20 41 51 41t51 -41q-21 -42 -51 -42z
M203 411q-30 0 -51 42q20 41 51 41t51 -41q-21 -42 -51 -42zM408 411q-30 0 -51 42q21 41 51 41t51 -41q-21 -42 -51 -42zM510 411q-30 0 -51 42q21 41 51 41t51 -41q-21 -42 -51 -42zM714 494q30 0 51 -41q-21 -42 -51 -42t-51 42q21 41 51 41zM816 494q30 0 52 -41
q-23 -42 -52 -42q-30 0 -51 42q21 41 51 41zM101 308q-30 0 -51 42q21 42 51 42t51 -42q-21 -42 -51 -42zM203 308q-30 0 -51 42q21 42 51 42t51 -42q-21 -42 -51 -42zM408 308q-30 0 -51 42q21 42 51 42t51 -42q-21 -42 -51 -42zM510 308q-30 0 -51 42q21 42 51 42t51 -42
q-21 -42 -51 -42zM714 392q30 0 51 -42q-21 -42 -51 -42t-51 42q21 42 51 42zM816 392q29 0 52 -42q-23 -42 -52 -42q-30 0 -51 42q21 42 51 42zM101 206q-31 0 -51 41q21 42 51 42t51 -42q-20 -41 -51 -41zM203 206q-31 0 -51 41q21 42 51 42t51 -42q-20 -41 -51 -41z
M408 206q-30 0 -51 41q21 42 51 42t51 -42q-21 -41 -51 -41zM510 206q-30 0 -51 41q21 42 51 42t51 -42q-21 -41 -51 -41zM714 289q30 0 51 -42q-21 -41 -51 -41t-51 41q21 42 51 42zM816 289q29 0 52 -42q-22 -41 -52 -41t-51 41q21 42 51 42zM101 186q30 0 51 -42
q-21 -41 -51 -41t-51 41q21 42 51 42zM203 186q30 0 51 -42q-21 -41 -51 -41t-51 41q21 42 51 42zM306 186q28 0 51 -42q-23 -41 -51 -41q-29 0 -52 41q23 42 52 42zM408 186q30 0 51 -42q-21 -41 -51 -41t-51 41q21 42 51 42zM510 186q30 0 51 -42q-21 -41 -51 -41t-51 41
q21 42 51 42zM612 186q30 0 51 -42q-21 -41 -51 -41t-51 41q21 42 51 42zM714 186q30 0 51 -42q-21 -41 -51 -41t-51 41q21 42 51 42zM816 186q29 0 52 -42q-23 -41 -52 -41q-30 0 -51 41q21 42 51 42zM101 83q30 0 51 -41q-21 -42 -51 -42t-51 42q21 41 51 41zM203 83
q30 0 51 -41q-21 -42 -51 -42t-51 42q21 41 51 41zM306 83q28 0 51 -41q-23 -42 -51 -42q-29 0 -52 42q23 41 52 41zM408 83q30 0 51 -41q-21 -42 -51 -42t-51 42q21 41 51 41zM510 83q30 0 51 -41q-21 -42 -51 -42t-51 42q21 41 51 41zM612 83q30 0 51 -41q-21 -42 -51 -42
t-51 42q21 41 51 41zM714 83q30 0 51 -41q-21 -42 -51 -42t-51 42q21 41 51 41zM816 83q29 0 52 -41q-23 -42 -52 -42q-30 0 -51 42q21 41 51 41z" />
    <glyph glyph-name="uni0449" unicode="&#x449;" horiz-adv-x="931" 
d="M104 232h-54v468h54v-468zM118 232v468h54v-468h-54zM240 700v-468h-54v468h54zM350 700v-468h-55v468h55zM418 700v-468h-55v468h55zM431 700h55v-468h-55v468zM541 700h54v-468h-54v468zM609 700h54v-468h-54v468zM731 700v-468h-54v468h54zM722 224l-47 -118h-625v118
h672zM881 224l-89 -224h-149l89 224h149z" />
    <glyph glyph-name="uni044A" unicode="&#x44a;" horiz-adv-x="673" 
d="M89 700h390l-88 -274q-83 -8 -139.5 -70t-56.5 -146q0 -100 78 -166l-13 -44h-210l198 632h-159v68zM412 0q-87 0 -148.5 61.5t-61.5 148.5q0 88 61.5 149.5t148.5 61.5t149 -61.5t62 -149.5q0 -87 -62 -148.5t-149 -61.5zM412 287q-31 0 -53.5 -22.5t-22.5 -54.5t22 -54
t54 -22t54 22t22 54t-22.5 54.5t-53.5 22.5z" />
    <glyph glyph-name="uni044B" unicode="&#x44b;" horiz-adv-x="802" 
d="M154 0h-104v700h104v-700zM290 0h-104v700h104v-700zM572 700h104v-700h-104v700zM752 700v-700h-44v700h44zM330 432q89 0 152 -63t63 -153q0 -89 -63 -152t-152 -63h-8v431h8z" />
    <glyph glyph-name="uni044C" unicode="&#x44c;" horiz-adv-x="631" 
d="M312 700v-700q-109 0 -185.5 76.5t-76.5 185.5v438h262zM319 524q109 0 185.5 -76.5t76.5 -185.5t-76.5 -185.5t-185.5 -76.5v524z" />
    <glyph glyph-name="uni044D" unicode="&#x44d;" horiz-adv-x="450" 
d="M253 419q-21 65 -77 105.5t-126 40.5v135q126 0 222.5 -80t120.5 -201h-140zM394 412q6 -30 6 -62q0 -145 -102.5 -247.5t-247.5 -102.5v135q70 0 126.5 42t77.5 107h-204v128h344z" />
    <glyph glyph-name="uni044E" unicode="&#x44e;" horiz-adv-x="802" 
d="M241 0q-79 0 -135 102.5t-56 247.5t56 247.5t135 102.5v-700zM553 406q-22 -1 -37 -17.5t-15 -38.5t15 -38t37 -18v-294q-79 0 -135 102.5t-56 247.5t56 247.5t135 102.5v-294zM560 294q23 2 38 18t15 38t-15 38t-38 18v294q79 0 135.5 -102.5t56.5 -247.5t-56.5 -247.5
t-135.5 -102.5v294zM301 401q22 0 37 -15t15 -36q0 -22 -15 -37t-37 -15q-21 0 -36.5 15t-15.5 37q0 21 15.5 36t36.5 15z" />
    <glyph glyph-name="uni044F" unicode="&#x44f;" horiz-adv-x="813" 
d="M289 202h-51q-78 0 -133 55t-55 133v122q0 78 55 133t133 55h195zM439 700h236l-203 -700h-235zM554 260l126 440h83v-700h-209v260z" />
    <glyph glyph-name="uni0451" unicode="&#x451;" horiz-adv-x="850" 
d="M292 647q-1 19 12 33t32 15l135 5q19 1 32.5 -12t14.5 -32t-11.5 -32.5t-31.5 -14.5l-136 -6h-2q-18 0 -31 13t-14 31zM754 697q19 0 32.5 -13.5t13.5 -32.5t-13.5 -32t-32.5 -13h-139q-19 0 -32.5 13.5t-13.5 32.5t13.5 32t32.5 13h139zM262 313q31 99 115 180t180 81
q87 0 119 -64q28 -55 -4 -114q-17 -33 -62 -69q-117 -91 -271 -104q0 -56 43.5 -94t99.5 -38q64 0 118 42q48 37 45 76q-1 19 11.5 32.5t31.5 15.5q19 1 33 -11.5t15 -31.5q6 -86 -79 -152q-79 -62 -175 -62q-95 0 -164.5 64.5t-69.5 158.5q-92 8 -172 46q-17 7 -23.5 25.5
t1.5 34.5q12 26 41 26q12 0 20 -4q70 -33 147 -38zM361 317q108 17 193 82q28 21 37 40q9 16 4 30q-7 13 -37 13q-18 0 -32 -5q-48 -14 -89 -52.5t-69 -94.5z" />
    <glyph glyph-name="uni0454" unicode="&#x454;" horiz-adv-x="702" 
d="M366 309l286 -309h-278l-324 350l324 350h278l-278 -300h278v-91h-286z" />
    <glyph glyph-name="uni0456" unicode="&#x456;" horiz-adv-x="247" 
d="M124 553q-31 0 -52.5 21.5t-21.5 51.5q0 31 21.5 52.5t52.5 21.5q30 0 51.5 -21.5t21.5 -52.5q0 -30 -21.5 -51.5t-51.5 -21.5zM124 516q30 0 51.5 -21.5t21.5 -52.5t-21.5 -52.5t-51.5 -21.5q-31 0 -52.5 21.5t-21.5 52.5t21.5 52.5t52.5 21.5zM124 332q30 0 51.5 -21.5
t21.5 -52.5t-21.5 -52.5t-51.5 -21.5q-31 0 -52.5 21.5t-21.5 52.5t21.5 52.5t52.5 21.5zM124 0q-31 0 -52.5 21.5t-21.5 52.5q0 30 21.5 51.5t52.5 21.5q30 0 51.5 -21.5t21.5 -51.5q0 -31 -21.5 -52.5t-51.5 -21.5z" />
    <glyph glyph-name="uni0457" unicode="&#x457;" horiz-adv-x="625" 
d="M313 612l-88 -87l-87 87l87 88zM488 612l-88 -87l-87 87l87 88zM50 438l88 87l87 -87l-87 -88zM313 525l87 -87l-87 -88l-88 88zM400 437l88 88l87 -88l-87 -87zM313 350l87 -87l-87 -88l-88 88zM50 88l88 87l87 -87l-87 -88zM225 88l88 87l87 -87l-87 -88zM400 88l88 87
l87 -87l-87 -88z" />
    <glyph glyph-name="uni0490" unicode="&#x490;" horiz-adv-x="504" 
d="M155 421l299 279v-279h-299zM152 587v-587h-102v587h102z" />
    <glyph glyph-name="uni0491" unicode="&#x491;" horiz-adv-x="504" 
d="M155 421l299 279v-279h-299zM152 587v-587h-102v587h102z" />
    <glyph glyph-name="quoteright" unicode="&#x2019;" horiz-adv-x="362" 
d="M50 569q0 54 38.5 92.5t92.5 38.5q55 0 93 -38.5t38 -92.5q0 -55 -38 -93t-93 -38q-54 0 -92.5 38t-38.5 93z" />
    <glyph glyph-name="uni0000" horiz-adv-x="0" 
 />
    <glyph glyph-name="uni000D" horiz-adv-x="250" 
 />
    <glyph glyph-name="A.ss01" horiz-adv-x="598" 
d="M50 451q0 103 73 176t176 73t176 -73t73 -176v-413q0 -16 -11 -27t-27 -11t-27 11t-11 27v413q0 72 -51 123t-124 50q-71 -1 -121 -52.5t-50 -122.5v-411q0 -16 -11 -27t-27 -11t-27 11t-11 27v413zM423 434q0 -52 -36 -88t-88 -36t-88 36t-36 88t36 88t88 36t88 -36
t36 -88zM299 13q-29 0 -49 20t-20 49q0 28 20 48.5t49 20.5t49 -20.5t20 -48.5t-20 -48.5t-49 -20.5z" />
    <glyph glyph-name="A.ss02" horiz-adv-x="752" 
d="M396 700l131 -298q-30 45 -75.5 75t-99.5 39l-80 184h124zM308 0q-107 0 -182.5 75.5t-75.5 182.5t75.5 182.5t182.5 75.5q106 0 182 -76t76 -182q0 -107 -75.5 -182.5t-182.5 -75.5zM308 114q59 0 101.5 42.5t42.5 101.5t-42.5 101.5t-101.5 42.5t-101.5 -42.5
t-42.5 -101.5t42.5 -101.5t101.5 -42.5zM577 0l-50 115q43 65 43 143q0 30 -8 62l140 -320h-125z" />
    <glyph glyph-name="A.ss03" horiz-adv-x="638" 
d="M349 557q-3 17 -20 17h-258l-21 126h350q30 0 53 -19.5t28 -49.5l107 -631h-145zM77 233q0 97 68.5 165t164.5 68l79 -466h-79q-96 0 -164.5 68t-68.5 165z" />
    <glyph glyph-name="A.ss04" horiz-adv-x="739" 
d="M344 700q122 0 208 -86t86 -208v-272l51 -134h-244l-49 142q0 -58 -42 -100t-100 -42q-85 0 -144.5 59.5t-59.5 144.5v202q0 122 86 208t208 86zM341 200q25 0 43 18t18 43v158q0 25 -18 42.5t-43 17.5t-42.5 -17.5t-17.5 -42.5v-158q0 -25 17.5 -43t42.5 -18z" />
    <glyph glyph-name="A.ss05" horiz-adv-x="835" 
d="M520 274q42 64 76 135q18 37 35 77t28 70.5t19.5 56t13.5 39.5l4 14q8 34 50 34q17 -3 28 -16t11 -30v-608q0 -19 -13 -32.5t-32 -13.5q-17 0 -28 10l-175 136q-126 -146 -269 -146q-99 0 -199 73q-16 10 -18.5 29t8.5 34q12 19 37 19q15 0 26 -8q76 -55 146 -55
q100 0 196 110l-194 151q-15 11 -17.5 30t9.5 34q14 17 36 17q16 0 28 -9zM694 403q-49 -108 -102 -185l102 -79v264z" />
    <glyph glyph-name="A.ss06" horiz-adv-x="700" 
d="M150 700h300v-100h-300v100zM50 500v100h100v-100h-100zM450 600h100v-500h-100v200h-300v100h300v200zM50 300h100v-200h-100v200zM150 0v100h300v-100h-300zM550 100h100v-100h-100v100z" />
    <glyph glyph-name="A.ss07" horiz-adv-x="865" 
d="M107 627q-1 30 20 51.5t50 21.5h286q21 0 37 -5t26.5 -12t18 -22t11 -26t5.5 -34.5t2 -36v-41.5v-14v-287q0 -34 24 -58t58 -24h98q29 0 50 -19t22 -47q1 -31 -19.5 -52.5t-50.5 -21.5h-41q-79 0 -135 56t-56 135v287q0 34 -23.5 58t-57.5 24h-252q-29 0 -50.5 19.5
t-22.5 47.5zM279 459q95 0 162.5 -67.5t67.5 -162.5t-67.5 -162t-162.5 -67t-162 67t-67 162t67 162.5t162 67.5zM314 142q35 0 59.5 25.5t24.5 61.5t-24.5 61.5t-59.5 25.5q-34 0 -58.5 -25.5t-24.5 -61.5t24.5 -61.5t58.5 -25.5z" />
    <glyph glyph-name="A.ss08" horiz-adv-x="651" 
d="M334 665q0 15 17.5 25t42.5 10q26 0 43.5 -10t17.5 -25q0 -14 -17.5 -24t-43.5 -10q-25 0 -42.5 10t-17.5 24zM480 665q0 15 17.5 25t43.5 10q25 0 42.5 -10t17.5 -25q0 -14 -17.5 -24t-42.5 -10q-26 0 -43.5 10t-17.5 24zM265 560q0 14 17.5 24.5t42.5 10.5t43 -10.5
t18 -24.5t-18 -24t-43 -10t-42.5 10t-17.5 24zM541 526q-26 0 -43.5 10t-17.5 24t18 24.5t43 10.5t42.5 -10.5t17.5 -24.5t-17.5 -24t-42.5 -10zM195 455q0 14 18 24.5t43 10.5t42.5 -10.5t17.5 -24.5t-17.5 -24t-42.5 -10q-26 0 -43.5 10t-17.5 24zM541 421q-26 0 -43.5 10
t-17.5 24t18 24.5t43 10.5t42.5 -10.5t17.5 -24.5t-17.5 -24t-42.5 -10zM187 315q-25 0 -43 10.5t-18 24.5t18 24.5t43 10.5t42.5 -10.5t17.5 -24.5t-17.5 -24.5t-42.5 -10.5zM541 315q-25 0 -43 10.5t-18 24.5t18 24.5t43 10.5t42.5 -10.5t17.5 -24.5t-17.5 -24.5
t-42.5 -10.5zM50 245q0 14 17.5 24t43.5 10q25 0 42.5 -10t17.5 -24t-17.5 -24.5t-42.5 -10.5t-43 10.5t-18 24.5zM196 245q0 14 17.5 24t42.5 10q26 0 43.5 -10t17.5 -24t-18 -24.5t-43 -10.5t-42.5 10.5t-17.5 24.5zM398 210q-25 0 -42.5 10.5t-17.5 24.5t17.5 24t42.5 10
q26 0 43.5 -10t17.5 -24t-18 -24.5t-43 -10.5zM541 210q-25 0 -43 10.5t-18 24.5t17.5 24t43.5 10q25 0 42.5 -10t17.5 -24t-17.5 -24.5t-42.5 -10.5zM50 140q0 14 17.5 24t43.5 10q25 0 42.5 -10t17.5 -24t-17.5 -24.5t-42.5 -10.5t-43 10.5t-18 24.5zM541 105
q-25 0 -43 10.5t-18 24.5t17.5 24t43.5 10q25 0 42.5 -10t17.5 -24t-17.5 -24.5t-42.5 -10.5zM111 0q-26 0 -43.5 10t-17.5 25q0 14 17.5 24t43.5 10q25 0 42.5 -10t17.5 -24q0 -15 -17.5 -25t-42.5 -10zM541 0q-26 0 -43.5 10t-17.5 25q0 14 17.5 24t43.5 10q25 0 42.5 -10
t17.5 -24q0 -15 -17.5 -25t-42.5 -10z" />
    <glyph glyph-name="A.ss09" horiz-adv-x="712" 
d="M230 700h252l13 -53h-278zM355 608l-14 -53h-148l13 53h149zM357 608h148l14 -53h-148zM183 515h148l-14 -53h-148zM543 462h-148l-14 53h148zM159 423h148l-14 -53h-148zM553 423l14 -53h-149l-13 53h148zM135 330h442l14 -53h-470zM98 185l13 53h490l13 -53h-516z
M74 92l13 53h149l-14 -53h-148zM624 145l14 -53h-148l-14 53h148zM50 0l14 53h148l-14 -53h-148zM514 0l-14 53h148l14 -53h-148z" />
    <glyph glyph-name="A.ss10" horiz-adv-x="747" 
d="M337 700l-223 -700h-64l224 700h63zM342 700h63l-149 -467h-63zM409 700h64l224 -700h-65zM407 694l221 -694h-63l-53 166h-341l21 64h300l-117 365zM171 164h63l-52 -164h-64z" />
    <glyph glyph-name="A.ss11" horiz-adv-x="683" 
d="M97 605q-19 0 -33 14t-14 34q0 19 14 33t33 14q20 0 34 -13.5t14 -33.5q0 -19 -14.5 -33.5t-33.5 -14.5zM219 605q-19 0 -33 14t-14 34q0 19 14 33t33 14q20 0 34 -13.5t14 -33.5t-14 -34t-34 -14zM342 605q-20 0 -34 14.5t-14 33.5t14 33t34 14t33.5 -14t13.5 -33
q0 -20 -14 -34t-33 -14zM416 532q0 19 14 33t34 14t33.5 -13.5t13.5 -33.5t-13.5 -34t-33.5 -14t-34 14t-14 34zM219 363q-20 0 -33.5 14t-13.5 34q0 19 14 33t33 14q20 0 34 -13.5t14 -33.5t-14 -34t-34 -14zM294 411q0 20 14 33.5t34 13.5t33.5 -14t13.5 -33
q0 -20 -13.5 -34t-33.5 -14t-34 14t-14 34zM464 363q-20 0 -34 14t-14 34q0 19 14 33t34 14t33.5 -14t13.5 -33q0 -20 -13.5 -34t-33.5 -14zM50 289q0 20 13.5 34t33.5 14t34 -14t14 -34q0 -19 -14 -33t-34 -14q-19 0 -33 14t-14 33zM464 242q-20 0 -34 14t-14 34
q0 19 14 33t34 14t33.5 -13.5t13.5 -33.5t-13.5 -34t-33.5 -14zM97 121q-19 0 -33 13.5t-14 33.5t13.5 34t33.5 14t34 -14t14 -34q0 -19 -14 -33t-34 -14zM464 121q-20 0 -34 14t-14 33q0 20 14 34t34 14t33.5 -14t13.5 -34t-13.5 -33.5t-33.5 -13.5zM172 47q0 20 13.5 34
t33.5 14t34 -14t14 -34t-14 -33.5t-34 -13.5q-19 0 -33 14t-14 33zM342 0q-20 0 -34 14t-14 33q0 20 14 34t34 14t33.5 -14t13.5 -34q0 -19 -13.5 -33t-33.5 -14zM539 47q0 20 13.5 34t33.5 14t33.5 -14t13.5 -34q0 -19 -13.5 -33t-33.5 -14t-33.5 14t-13.5 33z" />
    <glyph glyph-name="B.ss01" horiz-adv-x="625" 
d="M225 525q0 -73 -51 -124t-124 -51v350q73 0 124 -51t51 -124zM400 525q0 -73 -51 -124t-124 -51v350q73 0 124 -51t51 -124zM575 525q0 -73 -51 -124t-124 -51v350q73 0 124 -51t51 -124zM50 350q73 0 124 -51t51 -124t-51 -124t-124 -51v350zM225 350q73 0 124 -51
t51 -124t-51 -124t-124 -51v350zM400 350q73 0 124 -51t51 -124t-51 -124t-124 -51v350z" />
    <glyph glyph-name="B.ss02" horiz-adv-x="369" 
d="M213 700q49 0 79.5 -35.5t26 -82t-44.5 -74.5l-224 -158v350h163zM213 350q49 0 79.5 -35.5t26 -82t-44.5 -74.5l-224 -158v350h163z" />
    <glyph glyph-name="B.ss03" horiz-adv-x="657" 
d="M278 700q66 0 113 -47t47 -113t-47 -113t-113 -47h-228v320h228zM418 378q79 0 134 -55t55 -134q0 -78 -55 -133.5t-134 -55.5h-368v378h368z" />
    <glyph glyph-name="B.ss04" horiz-adv-x="696" 
d="M102 602q-21 0 -35.5 14.5t-14.5 34.5t14.5 34.5t35.5 14.5q20 0 34.5 -14.5t14.5 -34.5t-14.5 -34.5t-34.5 -14.5zM218 602q-20 0 -34.5 14.5t-14.5 34.5t14.5 34.5t34.5 14.5t34.5 -14.5t14.5 -34.5t-14.5 -34.5t-34.5 -14.5zM285 651q0 20 14.5 34.5t34.5 14.5
q21 0 35.5 -14.5t14.5 -34.5t-14.5 -34.5t-35.5 -14.5q-20 0 -34.5 14.5t-14.5 34.5zM402 651q0 20 14.5 34.5t34.5 14.5t34.5 -14.5t14.5 -34.5t-14.5 -34.5t-34.5 -14.5t-34.5 14.5t-14.5 34.5zM52 542q0 20 14.5 34.5t35.5 14.5q20 0 34.5 -14.5t14.5 -34.5t-14.5 -34.5
t-34.5 -14.5q-21 0 -35.5 14.5t-14.5 34.5zM567 493q-20 0 -34.5 14.5t-14.5 34.5t14.5 34.5t34.5 14.5q21 0 35.5 -14.5t14.5 -34.5t-14.5 -34.5t-35.5 -14.5zM52 433q0 20 14.5 34.5t35.5 14.5q20 0 34.5 -14.5t14.5 -34.5t-14.5 -34.5t-34.5 -14.5q-21 0 -35.5 14.5
t-14.5 34.5zM267 433q0 -20 -14.5 -34.5t-34.5 -14.5t-34.5 14.5t-14.5 34.5t14.5 34.5t34.5 14.5t34.5 -14.5t14.5 -34.5zM285 433q0 20 14.5 34.5t34.5 14.5q21 0 35.5 -14.5t14.5 -34.5t-14.5 -34.5t-35.5 -14.5q-20 0 -34.5 14.5t-14.5 34.5zM402 433q0 20 14.5 34.5
t34.5 14.5t34.5 -14.5t14.5 -34.5t-14.5 -34.5t-34.5 -14.5t-34.5 14.5t-14.5 34.5zM50 355h419q73 0 125 -52t52 -126q0 -73 -52 -125t-125 -52h-419v355z" />
    <glyph glyph-name="B.ss05" horiz-adv-x="665" 
d="M161 56q0 -23 -16 -39.5t-39 -16.5t-39.5 16.5t-16.5 39.5v588q0 23 16.5 39.5t39.5 16.5t39 -16.5t16 -39.5v-588zM615 223q0 -92 -65.5 -157.5t-157.5 -65.5h-93q-43 0 -73.5 30.5t-30.5 74.5q0 43 30.5 73.5t73.5 30.5h87q8 0 13 5.5t5 12.5q0 16 -16 18h-89
q-43 0 -73.5 30.5t-30.5 74.5q0 43 30.5 73.5t73.5 30.5h89q16 2 16 18q0 8 -5 13t-13 5h-87q-43 0 -73.5 30.5t-30.5 74.5q0 43 30.5 73.5t73.5 30.5h93q92 0 157.5 -65.5t65.5 -157.5v-8q0 -63 -34 -118q34 -57 34 -118v-9z" />
    <glyph glyph-name="B.ss06" horiz-adv-x="673" 
d="M431 380q79 0 135.5 -55t56.5 -133q1 -79 -54.5 -135t-134.5 -56h-133q-20 0 -34 14t-14 34t14 34t34 14h133q38 0 65.5 27t28.5 65q0 39 -28 67t-68 28h-94q-40 0 -68 28t-28 68t28 68t68 28h19q27 0 46 19.5t18 46.5q-1 26 -20 44t-45 18h-171q-13 0 -23 -10t-10 -23
v-520q0 -21 -15 -36t-36 -15t-36 15t-15 36v537q0 46 33 79t79 33h195q66 0 113 -47t47 -113t-47 -113t-113 -47h74z" />
    <glyph glyph-name="B.ss07" horiz-adv-x="518" 
d="M329 279h-140v-140h140v-139h-279v700h279v-139h-140v-142h140v-139h139v-139h-139v138zM468 420h-139v139h139v-139z" />
    <glyph glyph-name="B.ss08" horiz-adv-x="663" 
d="M50 649q0 21 15 36t36 15t36 -15t15 -36t-15 -36t-36 -15t-36 15t-15 36zM170 649q0 21 15 36t36 15t36 -15t15 -36t-15 -36t-36 -15q-22 0 -36.5 15t-14.5 36zM340 598q-21 0 -36 15t-15 36t15 36t36 15t36 -15t15 -36t-14.5 -36t-36.5 -15zM101 478q-21 0 -36 15
t-15 36q0 22 15 36.5t36 14.5t36 -14.5t15 -36.5q0 -21 -15 -36t-36 -15zM170 529q0 22 15 36.5t36 14.5t36 -14.5t15 -36.5q0 -21 -15 -36t-36 -15q-22 0 -36.5 15t-14.5 36zM409 529q0 22 15 36.5t36 14.5t36 -14.5t15 -36.5q0 -21 -15 -36t-36 -15t-36 15t-15 36zM50 410
q0 21 15 36t36 15t36 -15t15 -36t-15 -36t-36 -15t-36 15t-15 36zM170 410q0 21 15 36t36 15t36 -15t15 -36t-15 -36t-36 -15q-22 0 -36.5 15t-14.5 36zM340 359q-21 0 -36 15t-15 36t15 36t36 15t36 -15t15 -36t-14.5 -36t-36.5 -15zM460 359q-21 0 -36 15t-15 36t15 36
t36 15t36 -15t15 -36t-15 -36t-36 -15zM50 290q0 21 15 36t36 15t36 -15t15 -36t-15 -36t-36 -15t-36 15t-15 36zM221 239q-22 0 -36.5 15t-14.5 36t15 36t36 15t36 -15t15 -36t-15 -36t-36 -15zM511 290q0 21 15 36t36 15t36 -15t15 -36t-15 -36t-36 -15t-36 15t-15 36z
M101 120q-21 0 -36 14.5t-15 36.5q0 21 15 36t36 15t36 -15t15 -36q0 -22 -15 -36.5t-36 -14.5zM170 171q0 21 15 36t36 15t36 -15t15 -36q0 -22 -15 -36.5t-36 -14.5q-22 0 -36.5 14.5t-14.5 36.5zM511 171q0 21 15 36t36 15t36 -15t15 -36q0 -22 -15 -36.5t-36 -14.5
t-36 14.5t-15 36.5zM50 51q0 21 15 36t36 15t36 -15t15 -36t-15 -36t-36 -15t-36 15t-15 36zM221 0q-22 0 -36.5 15t-14.5 36t15 36t36 15t36 -15t15 -36t-15 -36t-36 -15zM289 51q0 21 15 36t36 15t36 -15t15 -36t-14.5 -36t-36.5 -15q-21 0 -36 15t-15 36zM511 51
q0 -21 -15 -36t-36 -15t-36 15t-15 36t15 36t36 15t36 -15t15 -36z" />
    <glyph glyph-name="B.ss09" horiz-adv-x="705" 
d="M50 353v347h62v-347h-62zM236 700v-347h-62v347h62zM297 353v347h62v-347h-62zM421 700q71 -1 121.5 -51.5t50.5 -122.5q0 -71 -50.5 -121.5t-121.5 -51.5v347zM112 0v347h62v-347h-62zM236 0v347h61v-347h-61zM421 347v-347h-62v347h62zM483 347q71 -1 121.5 -51.5
t50.5 -121.5q0 -72 -50.5 -122.5t-121.5 -51.5v347z" />
    <glyph glyph-name="B.ss10" horiz-adv-x="746" 
d="M136 626q-49 0 -86 37q35 37 86 37t85 -37q-35 -37 -85 -37zM224 663q35 37 86 37t86 -37q-37 -37 -86 -37t-86 37zM136 548q-51 0 -86 37q35 37 86 37t85 -37q-34 -37 -85 -37zM436 548q-51 0 -86 37q35 37 86 37t86 -37q-35 -37 -86 -37zM136 470q-51 0 -86 37
q36 36 86 36q51 0 85 -36q-34 -37 -85 -37zM350 507q36 36 86 36t86 -36q-35 -37 -86 -37t-86 37zM50 428q35 37 86 37t85 -37q-35 -37 -85 -37q-49 0 -86 37zM224 428q35 37 86 37t86 -37q-37 -37 -86 -37t-86 37zM50 350q35 37 86 37t85 -37q-34 -37 -85 -37t-86 37z
M310 313q-51 0 -86 37q35 37 86 37t86 -37q-35 -37 -86 -37zM485 387q51 0 85 -37q-34 -37 -85 -37t-86 37q34 37 86 37zM50 272q37 37 86 37q50 0 85 -37q-34 -37 -85 -37t-86 37zM610 235q-51 0 -85 37q34 36 85 36q50 0 86 -36q-35 -37 -86 -37zM50 193q35 37 86 37
t85 -37q-34 -36 -85 -36q-50 0 -86 36zM525 193q34 37 85 37t86 -37q-36 -36 -86 -36q-51 0 -85 36zM136 78q-51 0 -86 37q35 37 86 37t85 -37q-34 -37 -85 -37zM525 115q34 37 85 37t86 -37q-35 -37 -86 -37t-85 37zM50 37q35 37 86 37t85 -37q-34 -37 -85 -37t-86 37z
M310 0q-51 0 -86 37q35 37 86 37t86 -37q-35 -37 -86 -37zM570 37q-34 -37 -85 -37t-86 37q34 37 86 37q51 0 85 -37z" />
    <glyph glyph-name="B.ss11" horiz-adv-x="602" 
d="M81 700v-700h-31v700h31zM289 700v-700h-193v700h193zM344 700q56 0 96 -40t40 -97q0 -56 -40 -96.5t-96 -40.5v274zM344 418q86 0 147 -61.5t61 -147.5t-61 -147.5t-147 -61.5v418z" />
    <glyph glyph-name="C.ss01" horiz-adv-x="407" 
d="M357 700q-3 -134 -89.5 -238t-217.5 -108q2 87 40 164t108.5 128t158.5 54zM50 346q131 -4 217.5 -108t89.5 -238q-88 3 -158.5 54t-108.5 128t-40 164z" />
    <glyph glyph-name="C.ss02" horiz-adv-x="553" 
d="M256 350q0 -59 42.5 -101.5t101.5 -42.5q43 0 73 -30t30 -73t-30 -73t-73 -30q-145 0 -247.5 102.5t-102.5 247.5t102.5 247.5t247.5 102.5q43 0 73 -30t30 -73t-30 -73t-73 -30q-59 0 -101.5 -42.5t-42.5 -101.5zM193 350q0 86 60.5 146.5t146.5 60.5q16 0 28 11.5
t12 28.5t-12 28.5t-28 11.5q-118 0 -202.5 -84.5t-84.5 -202.5t84.5 -202.5t202.5 -84.5q16 0 28 11.5t12 28.5t-12 29t-28 12q-86 0 -146.5 60.5t-60.5 145.5z" />
    <glyph glyph-name="C.ss03" horiz-adv-x="450" 
d="M400 0q-145 0 -247.5 102.5t-102.5 247.5t102.5 247.5t247.5 102.5v-86q-110 0 -187 -77t-77 -187t77 -187t187 -77v-86zM251 350q0 -62 43.5 -105.5t105.5 -43.5v-81q-95 0 -162.5 67.5t-67.5 162.5t67.5 162.5t162.5 67.5v-81q-62 0 -105.5 -43.5t-43.5 -105.5z
M281 350q0 50 34.5 84.5t84.5 34.5v-238q-50 0 -84.5 34.5t-34.5 84.5z" />
    <glyph glyph-name="C.ss04" horiz-adv-x="708" 
d="M415 700v-180h-30v180h30zM295 684l29 8l46 -174l-28 -7zM476 692l29 -8l-47 -173l-28 7zM212 646l26 14l90 -155l-26 -15zM588 646l-90 -156l-26 15l90 155zM142 587l21 21l127 -127l-21 -21zM637 608l21 -21l-127 -127l-21 21zM90 512l14 26l156 -90l-15 -26zM66 455
l173 -47l-7 -28l-174 46zM50 335v30h180v-30h-180zM58 274l174 46l7 -28l-173 -47zM245 278l15 -26l-156 -90l-14 26zM269 240l21 -21l-127 -127l-21 21zM531 240l127 -127l-21 -21l-127 127zM302 210l26 -15l-90 -155l-26 14zM562 40l-90 155l26 15l90 -156zM458 190
l47 -174l-29 -8l-46 174zM295 16l47 173l28 -7l-46 -174zM415 180v-180h-30v180h30z" />
    <glyph glyph-name="C.ss05" horiz-adv-x="724" 
d="M309 609q0 37 26.5 64t64.5 27t64.5 -27t26.5 -64t-26.5 -64t-64.5 -27t-64.5 27t-26.5 64zM217 442q-38 0 -65 27q-26 26 -26 64t26 65q26 26 65 26t64 -26q27 -27 27 -65t-27 -64q-25 -27 -64 -27zM583 624q39 0 64 -26q27 -27 27 -65t-27 -64q-25 -27 -64 -27
q-37 0 -64 27q-27 26 -27 64t27 65q26 26 64 26zM141 441q37 0 64 -26.5t27 -64.5t-27 -64.5t-64 -26.5t-64 26.5t-27 64.5t27 64.5t64 26.5zM217 76q-37 0 -65 26q-26 27 -26 65t26 64q27 27 65 27q39 0 64 -27q27 -26 27 -64t-27 -65q-26 -26 -64 -26zM648 102
q-28 -26 -65 -26q-36 0 -64 26q-27 27 -27 65t27 64q27 27 64 27q38 0 65 -27q26 -26 26 -64t-26 -65zM309 91q0 37 26.5 64t64.5 27t64.5 -27t26.5 -64t-26.5 -64t-64.5 -27t-64.5 27t-26.5 64z" />
    <glyph glyph-name="C.ss06" horiz-adv-x="448" 
d="M50 352q0 144 102 246t246 102v-151q-82 0 -139.5 -57.5t-57.5 -139.5h-151zM398 0q-144 0 -246 102t-102 246h151q0 -82 57.5 -139.5t139.5 -57.5v-151z" />
    <glyph glyph-name="C.ss07" horiz-adv-x="562" 
d="M334 700q16 0 27 -11t12 -27q0 -16 -11.5 -27t-27.5 -11t-27 11t-11 27t11 27t27 11zM435 662q0 16 11.5 27t27.5 11t27 -11t11 -27t-11 -27t-27 -11t-27.5 11t-11.5 27zM254 582q0 -16 -11 -27t-27 -11t-27 11t-11 27t11 27t27 11t27 -11t11 -27zM334 544q16 0 27 -11
t12 -27q0 -16 -11.5 -27t-27.5 -11t-27 11t-11 27t11 27t27 11zM435 506q0 16 11.5 27t27.5 11t27 -11t11 -27t-11 -27t-27 -11t-27.5 11t-11.5 27zM88 543q16 0 27 -11.5t11 -27.5t-11 -27t-27 -11t-27 11t-11 27t11 27.5t27 11.5zM178 426q0 16 11 27.5t27 11.5t27 -11.5
t11 -27.5t-11 -27t-27 -11t-27 11t-11 27zM50 348q0 16 11 27.5t27 11.5t27 -11.5t11 -27.5t-11 -27t-27 -11t-27 11t-11 27zM216 232q-16 0 -27 11t-11 27t11 27.5t27 11.5t27 -11.5t11 -27.5t-11 -27t-27 -11zM334 156q-16 0 -27 11t-11 27t11 27t27 11t27 -11t12 -27
q0 -16 -11.5 -27t-27.5 -11zM474 232q16 0 27 -11t11 -27t-11 -27t-27 -11t-27.5 11t-11.5 27t11.5 27t27.5 11zM126 193q0 -16 -11 -27.5t-27 -11.5t-27 11.5t-11 27.5t11 27t27 11t27 -11t11 -27zM216 76q-16 0 -27 11.5t-11 27.5t11 27t27 11t27 -11t11 -27t-11 -27.5
t-27 -11.5zM334 0q-16 0 -27 11t-11 27t11 27t27 11t27 -11t12 -27q0 -16 -11.5 -27t-27.5 -11zM435 38q0 16 11.5 27t27.5 11t27 -11t11 -27t-11 -27t-27 -11t-27.5 11t-11.5 27z" />
    <glyph glyph-name="C.ss08" horiz-adv-x="560" 
d="M374 700q52 0 87.5 -31.5t45.5 -73.5t-8.5 -86t-65.5 -67l-187 -89h-196l215 292q42 55 109 55zM50 347h196l187 -89q47 -23 65.5 -67t8.5 -86t-45.5 -73.5t-87.5 -31.5q-68 0 -109 55z" />
    <glyph glyph-name="D.ss01" horiz-adv-x="638" 
d="M174 638q0 -26 -18 -44t-44 -18t-44 18t-18 44t18 44t44 18t44 -18t18 -44zM242 700q143 0 244.5 -101.5t101.5 -244.5t-101.5 -244.5t-244.5 -101.5v692zM112 508q26 0 44 -18t18 -44t-18 -44t-44 -18t-44 18t-18 44t18 44t44 18zM50 254q0 26 18 44t44 18t44 -18
t18 -44t-18 -44t-44 -18t-44 18t-18 44zM112 0q-26 0 -44 18t-18 44t18 44t44 18t44 -18t18 -44t-18 -44t-44 -18z" />
    <glyph glyph-name="D.ss02" horiz-adv-x="678" 
d="M240 578v-455l-83 -123h-107v700h107zM391 700l237 -348h-230l-237 348h230zM398 350h230l-237 -350h-230z" />
    <glyph glyph-name="D.ss03" horiz-adv-x="655" 
d="M50 131v438h149v131h53q145 0 248.5 -102t104.5 -247t-102 -248t-248 -103h-56v131h-149zM257 131q91 0 155 64t64 155t-64 155t-155 64h-58v-438h58z" />
    <glyph glyph-name="D.ss04" horiz-adv-x="671" 
d="M271 700q145 0 247.5 -102.5t102.5 -247.5t-102.5 -247.5t-247.5 -102.5h-221v206h221q59 0 101.5 42.5t42.5 101.5q0 60 -42 102t-102 42v206zM50 613v87h206v-87h-206zM256 513h-206v87h206v-87zM256 502v-87h-206v87h206zM50 317v86h206v-86h-206zM256 218h-206v87
h206v-87z" />
    <glyph glyph-name="D.ss05" horiz-adv-x="657" 
d="M189 561v-422h140v-139h-279v700h279v-139h-140zM468 422h-139v139h139v-139zM468 420h139v-140h-139v140zM329 140v139h139v-139h-139z" />
    <glyph glyph-name="D.ss06" horiz-adv-x="679" 
d="M120 0q-21 0 -34 16q-13 17 -8 37l88 360q4 15 15.5 24t25.5 9q7 0 11 -1q17 -4 26.5 -19.5t5.5 -32.5l-76 -307h105q109 0 186.5 77.5t77.5 186.5t-77.5 186.5t-186.5 77.5h-186q-18 0 -30.5 12.5t-12.5 30.5t12.5 30.5t30.5 12.5h186q145 0 247.5 -102.5t102.5 -247.5
t-102.5 -247.5t-247.5 -102.5h-159z" />
    <glyph glyph-name="E.ss01" horiz-adv-x="521" 
d="M210 194q-14 0 -25 -9.5t-12 -23.5q-1 -16 10 -27t26 -11h200q25 0 43 -17.5t18 -43.5t-18 -44t-43 -18h-198q-66 0 -113 46t-48 111q-1 66 46 113t113 47h104q14 0 24 9.5t11 23.5t-9 25t-25 11h-101q-65 0 -112 45.5t-48 109.5q-1 66 45.5 112.5t112.5 46.5h196
q25 0 43 -18t18 -44t-18 -43.5t-43 -17.5h-195q-14 0 -24.5 -9.5t-10.5 -23.5q-1 -14 9 -24.5t25 -10.5h101q66 0 112.5 -45.5t46.5 -110.5q1 -65 -45.5 -112t-111.5 -47h-104z" />
    <glyph glyph-name="E.ss02" horiz-adv-x="561" 
d="M50 700h461l-461 -231v231zM50 235v230h461zM50 0v231h461z" />
    <glyph glyph-name="E.ss03" horiz-adv-x="635" 
d="M50 633q0 28 19.5 47.5t47.5 19.5t47.5 -19.5t19.5 -47.5t-19.5 -47.5t-47.5 -19.5t-47.5 19.5t-19.5 47.5zM385 633q0 -28 -19.5 -47.5t-47.5 -19.5t-48 19.5t-20 47.5t20 47.5t48 19.5t47.5 -19.5t19.5 -47.5zM518 566q-28 0 -47.5 19.5t-19.5 47.5t19.5 47.5
t47.5 19.5t47.5 -19.5t19.5 -47.5t-19.5 -47.5t-47.5 -19.5zM50 444q0 28 19.5 47.5t47.5 19.5t47.5 -19.5t19.5 -47.5t-19.5 -47.5t-47.5 -19.5t-47.5 19.5t-19.5 47.5zM318 293q-28 0 -48 19.5t-20 47.5t20 47.5t48 19.5t47.5 -19.5t19.5 -47.5t-19.5 -47.5t-47.5 -19.5z
M117 189q-28 0 -47.5 19.5t-19.5 47.5t19.5 47.5t47.5 19.5t47.5 -19.5t19.5 -47.5t-19.5 -47.5t-47.5 -19.5zM117 0q-28 0 -47.5 19.5t-19.5 47.5t19.5 47.5t47.5 19.5t47.5 -19.5t19.5 -47.5t-19.5 -47.5t-47.5 -19.5zM318 0q-28 0 -48 19.5t-20 47.5t20 47.5t48 19.5
t47.5 -19.5t19.5 -47.5t-19.5 -47.5t-47.5 -19.5zM518 0q-28 0 -47.5 19.5t-19.5 47.5t19.5 47.5t47.5 19.5t47.5 -19.5t19.5 -47.5t-19.5 -47.5t-47.5 -19.5z" />
    <glyph glyph-name="E.ss04" horiz-adv-x="702" 
d="M366 309l286 -309h-278l-324 350l324 350h278l-278 -300h278v-91h-286z" />
    <glyph glyph-name="E.ss05" horiz-adv-x="736" 
d="M550 649q64 -73 18 -185q-40 -98 -118 -153t-192 -84q5 -19 6 -20q17 -56 57 -89.5t96 -33.5q25 0 49 7q77 18 148 92q13 13 31 13q17 0 29 -12q12 -13 12.5 -30t-11.5 -30q-122 -124 -257 -124q-84 0 -146.5 49.5t-88.5 131.5l-9 34q-24 -2 -60 -2h-25q-17 2 -28.5 15
t-10.5 31t12.5 27t22 10t30.5 1q30 0 50 2q0 58 12.5 118t37.5 118.5t70 101.5t103 57q23 6 46 6q73 0 116 -51zM264 315q171 45 226 181q27 63 -3 98q-20 22 -54 22q-46 0 -82.5 -32t-57 -80.5t-31.5 -98t-12 -93.5z" />
    <glyph glyph-name="E.ss06" horiz-adv-x="683" 
d="M172 653q0 20 14 33.5t34 13.5t33.5 -14t13.5 -33q0 -20 -14 -34t-33 -14q-20 0 -34 14t-14 34zM342 605q-20 0 -34 14.5t-14 33.5t14 33t34 14t33.5 -14t13.5 -33q0 -20 -14 -34t-33 -14zM50 532q0 20 14 33.5t33 13.5q20 0 34 -14t14 -33q0 -20 -14 -34t-34 -14
t-33.5 14t-13.5 34zM416 532q0 19 14 33t34 14t33.5 -13.5t13.5 -33.5t-13.5 -34t-33.5 -14t-34 14t-14 34zM97 363q-20 0 -33.5 14t-13.5 34q0 19 14 33t33 14q20 0 34 -14t14 -33q0 -20 -14 -34t-34 -14zM416 411q0 19 14 33t34 14t33.5 -14t13.5 -33q0 -20 -13.5 -34
t-33.5 -14t-34 14t-14 34zM97 242q-19 0 -33 14t-14 33q0 20 13.5 34t33.5 14t34 -14t14 -34t-14 -33.5t-34 -13.5zM220 242q-20 0 -34 13.5t-14 33.5t14 34t34 14t33.5 -14t13.5 -34q0 -19 -13.5 -33t-33.5 -14zM294 289q0 20 14 34t34 14t33.5 -14t13.5 -34
q0 -19 -13.5 -33t-33.5 -14t-34 14t-14 33zM97 121q-19 0 -33 13.5t-14 33.5t13.5 34t33.5 14t34 -14t14 -34t-14 -33.5t-34 -13.5zM586 121q-20 0 -33.5 13.5t-13.5 33.5t13.5 34t33.5 14t33.5 -14t13.5 -34t-13.5 -33.5t-33.5 -13.5zM220 0q-20 0 -34 13.5t-14 33.5t14 34
t34 14q19 0 33 -14t14 -34q0 -19 -13.5 -33t-33.5 -14zM294 47q0 20 14 34t34 14q19 0 33 -14t14 -34q0 -19 -13.5 -33t-33.5 -14t-34 14t-14 33zM464 0q-20 0 -34 14t-14 33q0 20 14 34t34 14q19 0 33 -14t14 -34q0 -19 -13.5 -33t-33.5 -14z" />
    <glyph glyph-name="E.ss07" horiz-adv-x="341" 
d="M192 262v-87h99v-175h-241v700h241v-175h-99v-87h99v-176h-99z" />
    <glyph glyph-name="E.ss08" horiz-adv-x="559" 
d="M50 0v700h134v-700h-134zM187 469v231h147l130 -231h-277zM187 235v231h147l130 -231h-277zM378 231l131 -231h-322v231h191z" />
    <glyph glyph-name="E.ss09" horiz-adv-x="573" 
d="M50 611q249 33 473 89q-192 -183 -473 -290v201zM50 406q249 33 473 89q-192 -183 -473 -290v201zM50 201q249 33 473 89q-192 -183 -473 -290v201z" />
    <glyph glyph-name="E.ss10" horiz-adv-x="438" 
d="M257 286q-33 0 -56.5 -23t-23.5 -56t23.5 -56.5t56.5 -23.5v-127q-85 0 -146 61t-61 146q0 83 58 143q-58 60 -58 143q0 85 61 146t146 61v-127q-33 0 -56.5 -23.5t-23.5 -56.5t23.5 -56t56.5 -23v-128zM261 637q0 26 18.5 44.5t44.5 18.5q27 0 45.5 -18.5t18.5 -44.5
t-19 -45t-45 -19t-44.5 19t-18.5 45zM261 350q0 26 18.5 44.5t44.5 18.5t45 -18.5t19 -44.5t-18.5 -44.5t-45.5 -18.5q-26 0 -44.5 18.5t-18.5 44.5zM324 0q-26 0 -44.5 18.5t-18.5 44.5t18.5 45t44.5 19t45 -19t19 -45t-18.5 -44.5t-45.5 -18.5z" />
    <glyph glyph-name="E.ss11" horiz-adv-x="586" 
d="M50 544v39l486 117v-39zM536 646v-39l-486 -117v39zM50 436v38l486 117v-39zM50 327v38l486 117v-38zM177 450v-38l-127 -31v39zM50 272v39l486 117v-39zM50 256l486 117v-38l-486 -117v38zM50 109v39l486 116v-38zM177 233v-39l-127 -31v39zM50 54v39l486 117v-39z
M536 156v-39l-486 -117v39z" />
    <glyph glyph-name="E.ss12" horiz-adv-x="590" 
d="M268 0q-90 0 -154 64t-64 154q0 73 45 132q-45 59 -45 132q0 90 64 154t154 64h186q35 0 60.5 -25.5t25.5 -60.5q0 -36 -25.5 -61t-60.5 -25h-186q-19 0 -32.5 -13.5t-13.5 -32.5t13.5 -32.5t32.5 -13.5h186q35 0 60.5 -25.5t25.5 -60.5t-25.5 -60.5t-60.5 -25.5h-186
q-19 0 -32.5 -13.5t-13.5 -32.5t13.5 -32.5t32.5 -13.5h186q35 0 60.5 -25t25.5 -61q0 -35 -25.5 -60.5t-60.5 -25.5h-186zM120 342q-45 -54 -45 -124q0 -80 56.5 -136.5t136.5 -56.5h186q25 0 42.5 18t17.5 43t-17.5 43t-42.5 18h-186q-29 0 -50 21t-21 50t21 50t50 21h186
q25 0 42.5 18t17.5 43t-17.5 43t-42.5 18h-186q-29 0 -50 21t-21 50t21 50t50 21h186q25 0 42.5 18t17.5 43t-17.5 43t-42.5 18h-186q-80 0 -136.5 -56.5t-56.5 -136.5q0 -70 45 -124l7 -8zM119 482q0 62 43.5 105.5t105.5 43.5h186q7 0 11.5 -5t4.5 -12t-4.5 -12t-11.5 -5
h-186q-47 0 -81 -34t-34 -81q0 -48 34 -81.5t81 -33.5h186q7 0 11.5 -5t4.5 -12t-4.5 -12t-11.5 -5h-186q-47 0 -81 -34t-34 -81t34 -81t81 -34h186q7 0 11.5 -5t4.5 -12t-4.5 -12t-11.5 -5h-186q-62 0 -105.5 43.5t-43.5 105.5q0 53 35 96l31 36l-31 36q-35 43 -35 96z" />
    <glyph glyph-name="E.ss13" horiz-adv-x="520" 
d="M470 700v-140h-280v140h280zM50 560h140v-140h-140v140zM330 280h-140v140h140v-140zM50 140v140h140v-140h-140zM470 0h-280v140h280v-140z" />
    <glyph glyph-name="E.ss14" horiz-adv-x="585" 
d="M68 596q-18 18 -18 43t18 43t43 18q27 0 43 -18l-43 -43l43 -43q-16 -18 -43 -18q-25 0 -43 18zM238 700q26 0 43 -18l-43 -43l43 -43q-17 -18 -43 -18q-25 0 -43 18t-18 43t18 43t43 18zM322 596q-18 18 -18 43t18 43t43 18q27 0 43 -18l-43 -43l43 -43q-16 -18 -43 -18
q-25 0 -43 18zM449 596q-18 17 -18 42.5t18 43.5t43 18q26 0 43 -18l-43 -43l43 -43q-17 -18 -43 -18q-25 0 -43 18zM68 451q-18 18 -18 43.5t18 43.5q17 17 43 17q27 0 43 -17l-43 -44l43 -43q-17 -17 -43 -17q-24 0 -43 17zM281 451q-17 -17 -43 -17q-24 0 -43 17
q-18 18 -18 43.5t18 43.5q17 17 43 17q27 0 43 -17l-43 -44zM68 307q-18 17 -18 42.5t18 43.5t43 18q27 0 43 -18l-43 -43l43 -43q-16 -18 -43 -18q-25 0 -43 18zM281 307q-17 -18 -43 -18q-25 0 -43 18q-18 17 -18 42.5t18 43.5t43 18q26 0 43 -18l-43 -43zM322 307
q-18 17 -18 42.5t18 43.5t43 18q27 0 43 -18l-43 -43l43 -43q-16 -18 -43 -18q-25 0 -43 18zM449 307q-18 17 -18 42.5t18 43.5t43 18q26 0 43 -18l-43 -43l43 -43q-17 -18 -43 -18q-25 0 -43 18zM68 162q-18 18 -18 43.5t18 43.5q17 17 43 17q27 0 43 -17l-43 -44l43 -43
q-17 -17 -43 -17q-24 0 -43 17zM238 266q27 0 43 -17l-43 -44l43 -43q-17 -17 -43 -17q-24 0 -43 17q-18 18 -18 43.5t18 43.5q17 17 43 17zM68 18q-18 18 -18 43.5t18 42.5q18 18 43 18q27 0 43 -18l-43 -43l43 -43q-16 -18 -43 -18q-25 0 -43 18zM195 18q-18 18 -18 43.5
t18 42.5q18 18 43 18q26 0 43 -18l-43 -43l43 -43q-17 -18 -43 -18q-25 0 -43 18zM322 18q-18 18 -18 43.5t18 42.5q18 18 43 18q27 0 43 -18l-43 -43l43 -43q-16 -18 -43 -18q-25 0 -43 18zM449 18q-18 18 -18 43.5t18 42.5q18 18 43 18q26 0 43 -18l-43 -43l43 -43
q-17 -18 -43 -18q-25 0 -43 18z" />
    <glyph glyph-name="G.ss01" horiz-adv-x="807" 
d="M50 350q0 144 103 247t247 103v-700q-144 0 -247 103t-103 247zM407 350v350q144 0 247 -103t103 -247h-350zM407 343q141 0 242 -101t101 -242h-343v343z" />
    <glyph glyph-name="G.ss02" horiz-adv-x="804" 
d="M559 700v-59h-314v59h314zM559 605v-125h-314v125h314zM50 125v355h52v-355h-52zM134 480h111v-355h-111v355zM395 332h359v-207h-53v148h-306v59zM559 125v116h110v-116h-110zM245 0v125h314v-125h-314z" />
    <glyph glyph-name="G.ss03" 
d="M411 700v-175h-22v175h22zM216 648l18 11l88 -152l-19 -11zM478 507l88 152l19 -11l-88 -152zM91 516l11 18l152 -87l-11 -19zM225 339h-175v22h175v-22zM389 339v22h361v-22h-361zM91 184l152 88l11 -19l-152 -87zM557 272l152 -88l-11 -18l-152 87zM234 41l-18 11
l87 152l19 -11zM584 52l-18 -11l-88 152l19 11zM389 0v175h22v-175h-22z" />
    <glyph glyph-name="G.ss04" horiz-adv-x="496" 
d="M412 378q12 0 20 -8t9 -19q0 -12 -8 -20.5t-20 -8.5l-11 -1q-55 0 -103 -3l-166 -303q-8 -15 -25 -15h-2q-18 2 -25 20q-60 189 0 273q47 67 183 79l38 70q-43 -19 -80 -19q-24 0 -46 8q-42 15 -61 54t-9 91q9 49 39.5 81.5t74.5 40.5q16 2 23 2q71 0 104 -58
q7 -10 4 -21.5t-13 -17.5q-7 -4 -15 -4q-16 0 -24 14q-19 30 -55 30q-32 0 -54 -22t-28 -56q-11 -63 33 -80q11 -4 27 -4q51 0 96 37.5t74 88.5q10 15 25 15q6 0 14 -4q11 -6 14 -17t-3 -22l-111 -202q11 0 34.5 0.5t35.5 0.5h11zM127 260q-34 -47 -10 -156l113 207
q-76 -13 -103 -51z" />
    <glyph glyph-name="H.ss01" horiz-adv-x="507" 
d="M50 0v700h43v-700h-43zM172 371h205v-371h-43v329h-204v371h42v-329zM374 700v-292h-42v292h42zM414 700h43v-700h-43v700zM172 0h-42v292h42v-292z" />
    <glyph glyph-name="H.ss02" horiz-adv-x="877" 
d="M366 700v-58h-316v58h316zM827 700v-58h-315v58h315zM50 513v59h316v-59h-316zM512 572h315v-59h-315v59zM827 443v-58h-777v58h777zM50 257v58h777v-58h-777zM50 128v59h316v-59h-316zM512 187h315v-59h-315v59zM50 0v58h316v-58h-316zM512 58h315v-58h-315v58z" />
    <glyph glyph-name="H.ss03" horiz-adv-x="640" 
d="M277 700v-195h-227v195h227zM363 505v195h227v-195h-227zM50 295v204h540v-204h-540zM277 289v-289h-227v289h227zM590 0h-227v289h227v-289z" />
    <glyph glyph-name="H.ss04" horiz-adv-x="807" 
d="M155 700q43 0 73.5 -31t30.5 -74t-30.5 -73.5t-73.5 -30.5t-74 30.5t-31 73.5t31 74t74 31zM757 595q0 -43 -30.5 -73.5t-73.5 -30.5t-74 30.5t-31 73.5t31 74t74 31t73.5 -30.5t30.5 -74.5zM259 350q0 -43 -30.5 -74t-73.5 -31t-74 30.5t-31 74.5t31 74.5t74 30.5
t73.5 -31t30.5 -74zM404 245q-44 0 -74.5 30.5t-30.5 74.5t30.5 74.5t74.5 30.5q43 0 73.5 -31t30.5 -74t-30.5 -74t-73.5 -31zM653 455q43 0 73.5 -30.5t30.5 -74.5t-30.5 -74.5t-73.5 -30.5t-74 30.5t-31 74.5t31 74.5t74 30.5zM155 209q43 0 73.5 -30.5t30.5 -73.5
t-30.5 -74t-73.5 -31t-74 31t-31 74t31 73.5t74 30.5zM653 209q43 0 73.5 -30.5t30.5 -73.5q0 -44 -30.5 -74.5t-73.5 -30.5t-74 31t-31 74t31 73.5t74 30.5z" />
    <glyph glyph-name="H.ss05" horiz-adv-x="687" 
d="M343 310q-38 0 -65.5 -27.5t-27.5 -65.5v-124q0 -38 -27 -65.5t-66 -27.5h-14q-38 0 -65.5 27.5t-27.5 65.5v514q0 38 27.5 65.5t65.5 27.5h14q39 0 66 -27.5t27 -65.5v-125q0 -38 27.5 -65.5t65.5 -27.5q39 0 66.5 27.5t27.5 65.5v125q0 38 27 65.5t66 27.5h14
q38 0 65.5 -27.5t27.5 -65.5v-514q0 -38 -27.5 -65.5t-65.5 -27.5h-14q-39 0 -66.5 27.5t-27.5 65.5v124q0 38 -27 65.5t-66 27.5z" />
    <glyph glyph-name="H.ss06" horiz-adv-x="911" 
d="M397 303v-303h-347l182 350l-182 350h347v-308h117v308h347l-182 -350l182 -350h-347v303h-117z" />
    <glyph glyph-name="H.ss07" horiz-adv-x="670" 
d="M110 580q-25 0 -42.5 17.5t-17.5 42.5t17.5 42.5t42.5 17.5t42.5 -17.5t17.5 -42.5t-17.5 -42.5t-42.5 -17.5zM501 640q0 25 17.5 42.5t42.5 17.5t42 -17.5t17 -42.5t-17 -42.5t-42 -17.5t-42.5 17.5t-17.5 42.5zM50 495q0 25 17.5 42.5t42.5 17.5t42.5 -17.5t17.5 -42.5
t-17.5 -42.5t-42.5 -17.5t-42.5 17.5t-17.5 42.5zM561 435q-25 0 -42.5 17.5t-17.5 42.5t17.5 42.5t42.5 17.5t42 -17.5t17 -42.5t-17 -42.5t-42 -17.5zM50 350q0 25 17.5 42.5t42.5 17.5t42.5 -17.5t17.5 -42.5t-17.5 -42.5t-42.5 -17.5t-42.5 17.5t-17.5 42.5zM260 290
q-25 0 -42.5 17.5t-17.5 42.5t17.5 42.5t42.5 17.5t42.5 -17.5t17.5 -42.5t-17.5 -42.5t-42.5 -17.5zM351 350q0 25 17 42.5t42 17.5t42.5 -17.5t17.5 -42.5t-17.5 -42.5t-42.5 -17.5t-42 17.5t-17 42.5zM501 350q0 25 17.5 42.5t42.5 17.5t42 -17.5t17 -42.5t-17 -42.5
t-42 -17.5t-42.5 17.5t-17.5 42.5zM50 205q0 25 17.5 42.5t42.5 17.5t42.5 -17.5t17.5 -42.5t-17.5 -42.5t-42.5 -17.5t-42.5 17.5t-17.5 42.5zM561 145q-25 0 -42.5 17.5t-17.5 42.5t17.5 42.5t42.5 17.5t42 -17.5t17 -42.5t-17 -42.5t-42 -17.5zM50 60q0 25 17.5 42.5
t42.5 17.5t42.5 -17.5t17.5 -42.5t-17.5 -42.5t-42.5 -17.5t-42.5 17.5t-17.5 42.5zM501 60q0 25 17.5 42.5t42.5 17.5t42 -17.5t17 -42.5t-17 -42.5t-42 -17.5t-42.5 17.5t-17.5 42.5z" />
    <glyph glyph-name="H.ss08" horiz-adv-x="711" 
d="M115 230q31 0 52.5 -19t21.5 -50q0 -14 14 -21q3 -1 7 -1q7 0 14 5q8 8 8 17v468q0 28 19.5 49t47.5 22q29 1 50.5 -19.5t21.5 -50.5v-206h150v205q0 28 19.5 49t47.5 22q30 1 51.5 -19.5t21.5 -50.5v-560q0 -30 -21.5 -50.5t-51.5 -19.5q-28 1 -47.5 22t-19.5 49v213
h-150v-123q0 -67 -47.5 -114t-113.5 -47q-65 0 -111.5 45.5t-48.5 110.5q-1 29 18 51t47 23zM140 160q0 19 -17 21q-25 0 -25 -20q0 -46 33 -79t79 -33q48 0 80 33t32 81v170h248v-263q0 -8 5.5 -14t12.5 -7q24 0 24 21v560q0 8 -5.5 14t-12.5 7q-24 0 -24 -21v-255h-248
v255q0 19 -18 21q-24 0 -24 -21v-468q0 -30 -19.5 -50.5t-49.5 -20.5q-29 0 -49.5 19.5t-21.5 49.5z" />
    <glyph glyph-name="H.ss09" horiz-adv-x="594" 
d="M338 464v236h206v-348h-494v348h206v-236h82zM544 348v-348h-206v236h-82v-236h-206v348h494z" />
    <glyph glyph-name="H.ss10" horiz-adv-x="759" 
d="M102 692l43 -42l-44 -44l-42 43q-8 10 -8 22q-1 12 8 21t22 9q12 0 21 -9zM188 606l-43 43l42 43q9 9 22 9q20 0 28 -19.5t-6 -33.5zM527 649q-8 8 -8 22q-1 13 8 21q11 9 22 9q13 0 22 -9l42 -42l-43 -44zM678 701q20 0 27.5 -19.5t-6.5 -33.5l-42 -42l-44 43l43 43
q9 9 22 9zM50 542q0 13 9 22l42 42l44 -43l-43 -43q-9 -9 -21 -9q-13 0 -22 9t-9 22zM187 520l-42 42l43 44l43 -42q14 -14 6 -33.5t-28 -19.5q-13 0 -22 9zM549 511q-20 0 -27.5 19.5t6.5 33.5l42 42l43 -43l-42 -43q-9 -9 -22 -9zM657 606l42 -42q14 -14 6.5 -33.5
t-27.5 -19.5q-13 0 -22 9l-43 42zM59 392q-9 8 -9 21t9 22t22 9q12 0 21 -9l43 -42l-44 -44zM209 444q20 0 28 -19.5t-6 -33.5l-43 -42l-43 43l42 43q9 9 22 9zM337 435l42 -42l-43 -44l-43 43q-8 8 -8 21t8 22q11 9 22 9q13 0 22 -9zM444 444q20 0 27.5 -19.5t-6.5 -33.5
l-42 -42l-44 43l43 43q9 9 22 9zM527 392q-8 8 -8 22q-1 13 8 21q11 9 22 9q13 0 22 -9l42 -42l-43 -44zM678 444q20 0 27.5 -19.5t-6.5 -33.5l-42 -42l-44 43l43 43q9 9 22 9zM81 254q-20 0 -28 19.5t6 33.5l42 42l44 -43l-43 -43q-9 -9 -21 -9zM187 263l-42 42l43 44
l43 -42q14 -14 6 -33.5t-28 -19.5q-13 0 -22 9zM336 349l43 -43l-42 -43q-9 -9 -22 -9q-12 0 -21 9t-9 22t9 22zM422 263l-43 42l44 44l42 -42q14 -14 6.5 -33.5t-27.5 -19.5q-13 0 -22 9zM549 254q-20 0 -27.5 19.5t6.5 33.5l42 42l43 -43l-42 -43q-9 -9 -22 -9zM656 263
l-43 42l44 44l42 -42q14 -14 6.5 -33.5t-27.5 -19.5q-13 0 -22 9zM102 181l43 -42l-44 -44l-42 43q-8 10 -8 22q-1 12 8 21t22 9q12 0 21 -9zM209 190q20 0 28 -19.5t-6 -33.5l-43 -42l-43 43l42 43q9 9 22 9zM571 181l42 -42l-43 -44l-43 43q-8 8 -8 22q-1 13 8 21
q11 9 22 9q13 0 22 -9zM678 190q20 0 27.5 -19.5t-6.5 -33.5l-42 -42l-44 43l43 43q9 9 22 9zM101 95l44 -43l-43 -43q-9 -9 -21 -9q-20 0 -28 19.5t6 33.5zM188 95l43 -42q9 -9 9 -22t-9 -22t-22 -9t-22 9l-42 42zM570 95l43 -43l-42 -43q-9 -9 -22 -9q-20 0 -27.5 19.5
t6.5 33.5zM656 9l-43 42l44 44l42 -42q14 -14 6.5 -33.5t-27.5 -19.5q-13 0 -22 9z" />
    <glyph glyph-name="H.ss11" horiz-adv-x="677" 
d="M50 0v700h81v-700h-81zM626 239v-239h-487v239q0 101 71.5 172t172.5 71t172.5 -71.5t71.5 -171.5h-1z" />
    <glyph glyph-name="H.ss12" horiz-adv-x="733" 
d="M50 700h304v-700h-304v700zM371 435q129 0 220.5 -91.5t91.5 -220.5v-123h-312v435z" />
    <glyph glyph-name="H.ss13" horiz-adv-x="600" 
d="M50 700h100v-300h-100v300zM250 500h100v-100h-100v100zM150 300v100h100v-100h-100zM350 400h100v-100h-100v100zM50 0v300h100v-300h-100zM450 300h100v-300h-100v300z" />
    <glyph glyph-name="I.ss01" horiz-adv-x="337" 
d="M50 604v96h237v-96h-237zM50 579h237v-96h-237v96zM50 459h237v-97h-237v97zM50 338h237v-96h-237v96zM50 217h237v-96h-237v96zM50 96h237v-96h-237v96z" />
    <glyph glyph-name="I.ss02" horiz-adv-x="536" 
d="M424 576q-26 0 -44 18t-18 44t18 44t44 18t44 -18t18 -44t-18 -44t-44 -18zM285 413q14 53 21 69q26 63 75 63q31 0 49 -22q18 -21 13.5 -48.5t-30.5 -53.5q-18 -18 -54 -52q-3 -10 -48 -203l71 68q12 12 29 12q18 0 30 -13q12 -12 11.5 -29t-12.5 -29l-170 -163
q-12 -12 -28 -12q-10 0 -20 5q-26 15 -21 45q2 7 9.5 41t19 85.5t21.5 95.5q-45 -39 -133 -113q-12 -9 -27 -9q-19 0 -31 15q-11 13 -9.5 30t14.5 28q154 129 220 190z" />
    <glyph glyph-name="I.ss03" horiz-adv-x="333" 
d="M115 700l52 -48l52 48l-6 -70l70 -11l-58 -40l35 -61l-67 20l-26 -65l-26 65l-68 -20l35 61l-58 40l70 11zM146 0h-50v425h50v-425zM187 0v425h50v-425h-50z" />
    <glyph glyph-name="I.ss04" horiz-adv-x="521" 
d="M267 280l204 -69l-204 -70l204 -69l-211 -72l-210 72l204 69l-204 70l204 69l-204 70l204 70l-204 69l204 70l-204 69l210 72l211 -72l-204 -69l204 -70l-204 -69l204 -70z" />
    <glyph glyph-name="I.ss05" horiz-adv-x="483" 
d="M333 62h100v-62h-383v62h100v576h-100v62h383v-62h-100v-576z" />
    <glyph glyph-name="I.ss06" horiz-adv-x="269" 
d="M50 615q0 35 25 60t60 25t59.5 -25t24.5 -60t-24.5 -59.5t-59.5 -24.5t-60 24.5t-25 59.5zM135 0q-35 0 -60 25t-25 60v296q0 35 25 59.5t60 24.5t59.5 -24.5t24.5 -59.5v-296q0 -35 -24.5 -60t-59.5 -25z" />
    <glyph glyph-name="J.ss01" horiz-adv-x="562" 
d="M185 632q0 28 19.5 48t48.5 20h192q28 0 47.5 -19.5t19.5 -47.5v-402q0 -96 -68 -164t-164 -67t-163 69.5t-67 164.5v30q0 28 20 48t48 20t47.5 -20t19.5 -48v-31q0 -41 29 -70t69 -28q39 1 66.5 29t27.5 67v333h-124q-28 0 -48 20t-20 48z" />
    <glyph glyph-name="J.ss02" horiz-adv-x="788" 
d="M512 700v-350h-82v350h82zM625 700v-350h-82v350h82zM738 700v-350h-82v350h82zM738 344q0 -142 -101 -243t-243 -101t-243 101t-101 243h688z" />
    <glyph glyph-name="J.ss03" horiz-adv-x="538" 
d="M225 700h263v-525h-88v438h-175v87zM50 351h88v-176h-88v176zM138 175h87v-87h-87v87zM313 88v87h87v-87h-87zM225 0v88h88v-88h-88z" />
    <glyph glyph-name="J.ss04" horiz-adv-x="591" 
d="M197 246q0 -41 28 -70.5t68 -30.5q42 0 71.5 28.5t29.5 70.5v456h147v-455q0 -102 -72 -173.5t-174 -71.5h-1q-101 1 -172.5 73.5t-71.5 174.5v49q0 30 21.5 51.5t51.5 21.5q31 0 52.5 -21.5t21.5 -51.5v-51zM410 685v-441q0 -46 -33.5 -80t-79.5 -34q-48 0 -82 34
t-34 82v51q0 24 -17 40.5t-41 16.5t-41 -16.5t-17 -40.5v-49q0 -96 67 -164t162 -69h1q95 0 163 67.5t68 162.5v440h-116zM441 653h53v-407q0 -83 -58 -141t-141 -58h-1q-82 1 -139.5 59.5t-57.5 141.5v49q0 11 7.5 18.5t18.5 7.5t19 -7.5t8 -18.5v-53q0 -59 42 -102
t101 -43q62 0 105 43t43 104v407z" />
    <glyph glyph-name="J.ss05" horiz-adv-x="615" 
d="M480 589q-71 -28 -133 -28q-78 0 -148 37q-15 7 -20 23t3 30q11 21 35 21q10 0 18 -4q53 -28 112 -28q40 0 79 13.5t55 23.5t20 14q11 9 25 9q10 0 17 -4q24 -12 22 -38q0 -6 -2.5 -35.5t-10.5 -91t-20 -119.5q-85 -412 -286 -412q-13 0 -19 1q-82 7 -130 66
q-8 10 -15 22t-11.5 23t-8.5 23t-6 22.5t-3.5 21.5t-2 19.5t-0.5 16.5t0.5 13t0.5 9v4q4 35 44 35q16 -2 25.5 -15t8.5 -29q0 -67 22.5 -107t82.5 -46q29 0 45.5 5t37.5 23q48 41 84.5 136t52.5 176.5t26 169.5z" />
    <glyph glyph-name="K.ss01" horiz-adv-x="701" 
d="M420 700h231l-220 -347h-231zM117 697q28 0 47.5 -19.5t19.5 -47.5t-19.5 -47t-47.5 -19t-47.5 19t-19.5 47t19.5 47.5t47.5 19.5zM184 443q0 -28 -19.5 -47.5t-47.5 -19.5t-47.5 19.5t-19.5 47.5t19.5 47.5t47.5 19.5t47.5 -19.5t19.5 -47.5zM200 347h231l220 -347h-231
zM184 255q0 -28 -19.5 -47.5t-47.5 -19.5t-47.5 19.5t-19.5 47.5t19.5 47.5t47.5 19.5t47.5 -19.5t19.5 -47.5zM117 134q28 0 47.5 -19.5t19.5 -47.5t-19.5 -47.5t-47.5 -19.5t-47.5 19.5t-19.5 47.5t19.5 47.5t47.5 19.5z" />
    <glyph glyph-name="K.ss02" horiz-adv-x="667" 
d="M50 1v699h140v-699h-140zM617 700v-140h-140v140h140zM477 420h-140v-140h-141v141h141v139h140v-140zM477 140h-140v140h140v-140zM617 0h-140v140h140v-140z" />
    <glyph glyph-name="K.ss03" horiz-adv-x="519" 
d="M113 700v-700h-63v700h63zM469 700q0 -143 -102.5 -244.5t-247.5 -101.5v346h350zM119 0v346q145 0 247.5 -101.5t102.5 -244.5h-350z" />
    <glyph glyph-name="K.ss04" horiz-adv-x="635" 
d="M195 528l-145 -170v342h145v-172zM195 352h-145l298 348h139zM198 352l298 348h89l-291 -348h-96zM487 0h-139l-298 348h145zM198 348h96l291 -348h-89zM195 0h-145v342l145 -170v-172z" />
    <glyph glyph-name="K.ss05" horiz-adv-x="657" 
d="M180 700v-700h-130v700h130zM225 424q101 14 170 92.5t69 182.5h143q0 -105 -49 -196.5t-133 -149.5q-94 62 -200 71zM464 1q0 115 -81.5 196t-196.5 81v144q174 0 297.5 -123.5t123.5 -297.5h-143z" />
    <glyph glyph-name="K.ss06" horiz-adv-x="650" 
d="M114 0q-26 0 -45 19t-19 45v572q0 26 19 45t45 19t45 -19t19 -45v-572q0 -26 -19 -45t-45 -19zM536 0q-21 0 -40 14l-246 198q-69 54 -69 145q2 90 72 143l244 187q17 13 39 13q31 0 51 -25q16 -21 12.5 -47.5t-24.5 -42.5l-244 -187q-22 -16 -22 -43q0 -28 21 -43
l246 -198q21 -16 24 -43t-14 -47q-20 -24 -50 -24z" />
    <glyph glyph-name="K.ss07" horiz-adv-x="724" 
d="M249 700v-38h-199v38h199zM390 700h235l-22 -38h-235zM249 617v-38h-199v38h199zM320 579l22 38h235l-22 -38h-235zM249 534v-37h-199v37h199zM272 497l22 37h235l-22 -37h-235zM481 452l-22 -38h-409v38h431zM459 369l22 -38h-431v38h409zM249 286v-38h-199v38h199z
M507 286l22 -38h-235l-22 38h235zM249 203v-38h-199v38h199zM320 203h235l22 -37h-235zM50 83v38h199v-38h-199zM603 121l22 -38h-235l-22 38h235zM249 38v-38h-199v38h199zM417 38h235l22 -38h-235z" />
    <glyph glyph-name="K.ss08" horiz-adv-x="546" 
d="M146 350l350 350v-700zM145 698v-694h-95v694h95z" />
    <glyph glyph-name="K.ss09" horiz-adv-x="675" 
d="M50 351l355 349h220l-354 -349h-221zM215 700v-174l-165 -162v336h165zM625 0h-220l-355 349h221zM215 174v-174h-165v336z" />
    <glyph glyph-name="K.ss10" horiz-adv-x="681" 
d="M216 85q0 -35 -24 -59t-59 -24t-59 24t-24 59v532q0 35 24 59t59 24t59 -24t24 -59v-532zM408 643q34 55 101 55q61 0 96 -47q38 -49 20.5 -109t-76.5 -80l-331 -112zM549 236q38 -13 60 -46t21.5 -72.5t-25.5 -71.5q-36 -46 -95 -46q-66 0 -102 55l-190 293z" />
    <glyph glyph-name="L.ss01" horiz-adv-x="552" 
d="M50 0v700h53v-700h-53zM183 700v-700h-53v700h53zM369 0v164h53v-164h-53zM502 164v-164h-53v164h53zM263 96v-96h-53v96h53zM342 96v-96h-52v96h52z" />
    <glyph glyph-name="L.ss02" horiz-adv-x="806" 
d="M50 659q0 17 48.5 29t115.5 12q68 0 116.5 -12t48.5 -29t-48.5 -29.5t-116.5 -12.5q-67 0 -115.5 12.5t-48.5 29.5zM379 535q0 -17 -48 -29t-117 -12q-68 0 -116 12t-48 29t48.5 29.5t115.5 12.5q68 0 116.5 -12.5t48.5 -29.5zM214 453q69 0 117 -12t48 -29t-48.5 -29.5
t-116.5 -12.5q-67 0 -115.5 12.5t-48.5 29.5t48 29t116 12zM379 288q0 -17 -48 -29t-117 -12q-68 0 -116 12t-48 29t48.5 29.5t115.5 12.5q68 0 116.5 -12.5t48.5 -29.5zM50 165q0 17 48 29t116 12q69 0 117 -12t48 -29t-48.5 -29.5t-116.5 -12.5q-67 0 -115.5 12.5
t-48.5 29.5zM428 165q0 17 48 29t116 12t116 -12t48 -29t-48 -29.5t-116 -12.5t-116 12.5t-48 29.5zM50 41q0 17 48.5 29.5t115.5 12.5q68 0 116.5 -12.5t48.5 -29.5t-48.5 -29t-116.5 -12q-67 0 -115.5 12t-48.5 29zM592 0q-68 0 -116 12t-48 29t48 29.5t116 12.5
t116 -12.5t48 -29.5t-48 -29t-116 -12z" />
    <glyph glyph-name="L.ss03" horiz-adv-x="660" 
d="M498 68q16 0 28 9q21 13 21 41v94q0 13 9 22t22 9q14 0 23 -9t9 -22v-94q0 -48 -32.5 -80t-80.5 -32q-21 0 -39 7q-4 2 -5 2l-210 122v-41q0 -40 -28 -68t-68 -28q-41 0 -69 28t-28 69v30q0 41 28.5 68.5t69.5 27.5h33v446q0 13 9 22t22 9t22 -9t9 -22v-459l239 -139
q8 -3 16 -3zM181 161h-34q-15 0 -25 -9.5t-10 -24.5v-31q0 -14 10 -24t24 -10t24.5 10t10.5 24v65z" />
    <glyph glyph-name="L.ss04" horiz-adv-x="652" 
d="M323 700v-564q0 -56 -40 -96t-97 -40h-136v700h273zM602 331v-195q0 -56 -40 -96t-96 -40h-137v195q0 56 40 96t97 40h136z" />
    <glyph glyph-name="L.ss05" horiz-adv-x="620" 
d="M230 700v-40h-180v40h180zM230 640v-40h-180v40h180zM230 580v-40h-180v40h180zM230 520v-40h-180v40h180zM230 460v-40h-180v40h180zM230 400v-40h-180v40h180zM230 340v-40h-180v40h180zM230 280v-40h-180v40h180zM230 220v-40h-180v40h180zM390 180v40h180v-40h-180z
M230 160v-40h-180v40h180zM570 160v-40h-180v40h180zM570 100v-40h-520v40h520zM570 40v-40h-520v40h520z" />
    <glyph glyph-name="M.ss01" horiz-adv-x="882" 
d="M499 81q0 -15 14 -17q8 -1 13 4t5 12v467q0 62 43.5 107t104.5 46q63 1 108 -43.5t45 -107.5v-517q0 -14 -9 -23t-23 -9q-13 0 -22.5 9.5t-9.5 22.5v516q0 35 -24.5 61t-59.5 27q-37 1 -63 -24.5t-26 -62.5v-469q0 -34 -24 -57.5t-58 -22.5q-33 1 -55.5 25t-22.5 57v465
q0 36 -25 62t-60 27q-37 1 -63.5 -24.5t-26.5 -62.5v-442q0 -44 -30 -75t-73 -32q-44 -1 -75.5 30t-31.5 75v105q0 14 9 23t23 9t23 -9t9 -23v-104q0 -17 11.5 -29t27.5 -13q18 -1 30.5 11.5t12.5 29.5v441q0 63 43.5 108t105.5 46q64 1 109 -43.5t45 -107.5v-468z" />
    <glyph glyph-name="M.ss02" horiz-adv-x="620" 
d="M51 2l-1 698h177zM227 700h343l-1 -698l-177 696l-82 -325zM144 0l83 327l83 -327h-166zM310 0l82 327l83 -327h-165z" />
    <glyph glyph-name="M.ss03" horiz-adv-x="995" 
d="M737 83q46 0 144 77q11 8 24 8q19 0 31 -15q11 -13 8.5 -29.5t-15.5 -26.5q-120 -93 -193 -93q-29 0 -51 13q-60 36 -58 161q1 65 22 199q9 48 13 89q-14 -16 -20 -25q-67 -85 -116.5 -124t-89.5 -39q-10 0 -20 3q-50 11 -74 79q-11 29 -28 110q-19 88 -31 117
q-15 34 -33 34q-9 0 -22.5 -18t-26.5 -54q-27 -67 -47 -205q-25 -180 -25 -305q0 -16 -11.5 -27.5t-27.5 -11.5h-1q-16 0 -27.5 12t-11.5 29q0 131 26 315q5 36 9 58.5t13.5 70t22.5 79t30.5 66t43 52.5t55.5 18q70 0 106 -81q14 -32 36 -133q26 -128 42 -128q41 0 145 132
q68 87 110 87q11 0 20 -4q40 -17 34 -93q-2 -38 -15 -115q-21 -130 -22 -188q-1 -81 20 -92q2 -2 11 -2z" />
    <glyph glyph-name="M.ss04" horiz-adv-x="1109" 
d="M234 700h254l46 -82h-346zM575 618l46 82h254l46 -82h-346zM165 576h779l46 -82h-871zM96 453h241l-46 -82h-241zM724 453l-46 -82h-247l-46 82h339zM772 453h241l46 -82h-242zM50 329h241v-82h-241v82zM672 329v-82h-241v82h241zM817 329h242v-82h-242v82zM50 124v82
h241v-82h-241zM431 206h241v-82h-241v82zM817 124v82h242v-82h-242zM50 82h241v-82h-241v82zM672 0h-241v82h241v-82zM817 0v82h242v-82h-242z" />
    <glyph glyph-name="M.ss05" horiz-adv-x="1208" 
d="M312 700h221l-262 -700h-221zM538 700l64 -170l-132 -353l-64 172zM671 700h220l-198 -528h-220zM764 349l132 351l262 -700h-264z" />
    <glyph glyph-name="M.ss06" horiz-adv-x="697" 
d="M50 700h149v-15h-149v15zM647 700v-15h-149l-149 -245l-149 245v15l149 -245l149 245h149zM50 657h149v-15h-149v15zM498 657h149v-15h-149l-149 -245l-149 245v15l149 -245zM50 614h149v-15h-149v15zM498 614h149v-15h-149l-149 -245l-149 245v15l149 -245zM50 572h149
v-16h-149v16zM498 572h149v-16h-149l-149 -245l-149 245v16l149 -245zM50 529h149v-15h-149v15zM498 529h149v-15h-149l-149 -246l-149 246v15l149 -245zM50 486h149v-15h-149v15zM498 486h149v-15h-149l-149 -245l-149 245v15l149 -245zM50 443h149v-15h-149v15zM498 443
h149v-15h-149l-149 -245l-149 245v15l149 -245zM50 400h149v-15h-149v15zM498 400h149v-15h-149l-149 -245l-149 245v15l149 -245zM50 358h149v-16h-149v16zM498 358h149v-16h-149l-149 -245l-149 245v16l149 -245zM50 315h149v-15h-149v15zM498 315h149v-15h-149v15z
M50 272h149v-15h-149v15zM498 272h149v-15h-149v15zM50 229h149v-15h-149v15zM498 229h149v-15h-149v15zM50 186h149v-15h-149v15zM498 186h149v-15h-149v15zM50 144h149v-16h-149v16zM498 144h149v-16h-149v16zM50 101h149v-15h-149v15zM498 101h149v-15h-149v15zM50 58
h149v-15h-149v15zM498 58h149v-15h-149v15zM50 15h149v-15h-149v15zM498 15h149v-15h-149v15z" />
    <glyph glyph-name="M.ss07" horiz-adv-x="1066" 
d="M403 484q0 57 -40 97.5t-97 40.5t-97.5 -40.5t-40.5 -97.5v-484h-78v484q0 89 63.5 152.5t152.5 63.5q77 0 135.5 -48t74.5 -121l-73 -54v7zM820 92q19 -14 40 -14q6 0 16 2l121 29l19 -76l-122 -29q-15 -4 -33 -4q-59 0 -101 42t-42 101v330q0 27 -19.5 46.5t-46.5 19.5
q-21 0 -40 -14l-267 -203q-15 -11 -15 -32q2 -15 12 -24.5t24 -9.5q15 0 26.5 11t11.5 26v63l77 60v-123q0 -47 -33 -81t-80 -34q-45 0 -78.5 30t-36.5 75q-6 63 44 102l267 203q40 29 87 29q60 0 102.5 -42t42.5 -102v-330q0 -30 24 -51z" />
    <glyph glyph-name="M.ss08" 
d="M50 0v700h99v-700h-99zM153 700h99v-99h-99v99zM548 601v99h99v-99h-99zM651 700h99v-700h-99v700zM252 601h98v-98h-98v98zM449 503v98h99v-98h-99zM350 404v99h99v-99h-99zM350 301v99h99v-99h-99z" />
    <glyph glyph-name="M.ss09" horiz-adv-x="911" 
d="M758 575q-62 -39 -121 -120q-130 -178 -130 -404q0 -21 -15 -36t-37 -15q-21 0 -36 15t-15 36v524q-62 -39 -121 -120q-131 -179 -131 -404q0 -21 -14.5 -36t-36.5 -15q-21 0 -36 15t-15 36q0 107 28.5 210.5t74 180.5t100 136.5t107.5 90.5t95 31q22 0 36.5 -15
t14.5 -36v-208q66 116 152 187.5t151 71.5q22 0 37 -15t15 -36v-598q0 -21 -15 -36t-37 -15q-21 0 -36 15t-15 36v524z" />
    <glyph glyph-name="M.ss10" horiz-adv-x="942" 
d="M353 504l-218 -504h-85l303 700l164 -381l72 167l210 -486h-84l-126 291l-73 -169zM589 700l303 -700h-85l-218 504l-73 -169l-42 99zM142 0l211 486l114 -264l-42 -98l-72 167l-126 -291h-85z" />
    <glyph glyph-name="M.ss11" horiz-adv-x="635" 
d="M243 700v-700h-193v700h193zM245 394v306l71 -182v-306zM318 212v306l72 182v-306zM392 700h193v-700h-193v700z" />
    <glyph glyph-name="N.ss01" horiz-adv-x="675" 
d="M50 672v28h231l11 -28h-242zM625 700v-28h-159v28h159zM50 597v28h260l11 -28h-271zM466 597v28h159v-28h-159zM50 522v29h289l11 -29h-300zM466 551h159v-29h-159v29zM50 448v28h318l11 -28h-329zM625 476v-28h-159v28h159zM209 402v-29h-159v29h159zM238 402h159
l11 -29h-159zM625 402v-29h-159v29h159zM209 327v-29h-159v29h159zM426 327l11 -29h-159l-11 29h159zM466 298v29h159v-29h-159zM209 252v-28h-159v28h159zM625 224h-318l-11 28h329v-28zM209 178v-29h-159v29h159zM625 149h-289l-11 29h300v-29zM50 75v28h159v-28h-159z
M625 75h-260l-11 28h271v-28zM50 28h159v-28h-159v28zM625 0h-231l-11 28h242v-28z" />
    <glyph glyph-name="N.ss02" horiz-adv-x="833" 
d="M151 498q-32 0 -57 17q-35 24 -42.5 65t15.5 76q30 44 84 44q31 0 57 -17q35 -24 42.5 -64.5t-15.5 -75.5q-31 -45 -84 -45zM682 498q-32 0 -57 18q-34 23 -42 64.5t15 75.5q30 44 84 44q32 0 56 -17q35 -24 43 -64.5t-16 -75.5q-29 -45 -83 -45zM288 446
q-1 28 17.5 48.5t46.5 22.5q29 1 49.5 -18t21.5 -47q2 -28 -17.5 -49t-47.5 -22t-48.5 18t-21.5 47zM151 451q42 0 71.5 -29.5t29.5 -71.5t-29.5 -71.5t-71.5 -29.5t-71.5 29.5t-29.5 71.5t29.5 71.5t71.5 29.5zM783 350q0 -42 -29.5 -71.5t-71.5 -29.5t-71.5 29.5
t-29.5 71.5t29.5 71.5t71.5 29.5t71.5 -29.5t29.5 -71.5zM477 321q34 0 56 -28q17 -23 13 -52t-27 -46q-20 -14 -42 -14q-34 0 -56 28q-17 23 -13 52t27 46q20 14 42 14zM252 101q0 -42 -29.5 -71.5t-71.5 -29.5t-71.5 29.5t-29.5 71.5t29.5 71.5t71.5 29.5t71.5 -29.5
t29.5 -71.5zM783 101q0 -42 -29.5 -71.5t-71.5 -29.5t-71.5 29.5t-29.5 71.5t29.5 71.5t71.5 29.5t71.5 -29.5t29.5 -71.5z" />
    <glyph glyph-name="N.ss03" horiz-adv-x="730" 
d="M190 700h70v-140h-70v140zM680 700v-140h-70v140h70zM120 420v140h70v-140h-70zM260 560h70v-140h-70v140zM540 560h70v-140h-70v140zM50 280v140h70v-140h-70zM330 420h70v-140h-70v140zM680 280h-70v140h70v-140zM190 140h-70v140h70v-140zM400 280h70v-140h-70v140z
M540 140v140h70v-140h-70zM50 0v140h70v-140h-70zM470 0v140h70v-140h-70z" />
    <glyph glyph-name="N.ss04" horiz-adv-x="687" 
d="M290 0h-240v700zM236 700l392 -700h-177l-392 700h177zM637 0l-240 700h240v-700z" />
    <glyph glyph-name="N.ss05" horiz-adv-x="713" 
d="M105 700v-700h-55v700h55zM120 700h55v-700h-55v700zM190 0v700h54v-700h-54zM524 700v-700h-55v700h55zM539 0v700h54v-700h-54zM608 700h55v-700h-55v700zM314 589v-310l-55 109v309zM329 559l55 -109v-309l-55 109v309zM399 111v310l55 -109v-309z" />
    <glyph glyph-name="N.ss06" horiz-adv-x="583" 
d="M533 0l-483 508v192l483 -508v-192zM533 649v-444l-192 202v242h192zM242 293v-248h-192v450z" />
    <glyph glyph-name="N.ss07" horiz-adv-x="981" 
d="M725 700h206v-72h-206v72zM52 626v72h235l438 -500h206v-73h-206l-438 501h-235zM725 575h206v-73h-206v73zM52 501v72h206l438 -501h235v-72h-235l-438 501h-206zM50 377v73h206v-73h-206zM725 450h206v-73h-206v73zM50 325h206v-73h-206v73zM725 252v73h206v-73h-206z
M50 199h206v-72h-206v72zM50 74h206v-72h-206v72z" />
    <glyph glyph-name="N.ss08" horiz-adv-x="643" 
d="M500 657q-1 17 10.5 29.5t28.5 13.5t29.5 -10.5t13.5 -28.5q11 -245 11 -547q0 -43 -27 -74t-70 -38q-6 -2 -19 -2q-37 0 -66 21t-41 58q-89 267 -141 401l-98 -444q-3 -14 -14.5 -23t-25.5 -9q-6 0 -9 1q-17 4 -26 18.5t-5 30.5l124 556q7 31 43 31q20 -1 33 -17.5
t29 -51.5q21 -50 47 -120q44 -117 120 -348q7 -22 36 -22q28 4 28 33q0 298 -11 542z" />
    <glyph glyph-name="N.ss09" horiz-adv-x="709" 
d="M405 0l-355 700h254l355 -700h-254zM404 516v184h254v-687zM304 186v-186h-254v687z" />
    <glyph glyph-name="N.ss10" horiz-adv-x="685" 
d="M383 605q-67 0 -114.5 -48.5t-47.5 -116.5v-355q0 -35 -25 -60t-61 -25q-35 0 -60 25t-25 60v573q0 17 12.5 29.5t29.5 12.5t29.5 -12.5t12.5 -29.5v-208q0 104 73 177t177 73t177.5 -73t73.5 -177v-406q0 -18 -13 -31t-31 -13t-30.5 13t-12.5 31v398q0 68 -48.5 116
t-116.5 47z" />
    <glyph glyph-name="N.ss11" horiz-adv-x="667" 
d="M476 57q-7 -25 -27.5 -41t-46.5 -16q-6 0 -18 2q-44 11 -54 56l-66 258l-65 -259q-7 -25 -27.5 -41t-46.5 -16q-6 0 -18 2q-30 7 -46.5 34.5t-8.5 57.5l139 549q7 25 27.5 41t46.5 16q6 0 18 -2q42 -11 55 -55l65 -259l65 259q7 25 27.5 41t46.5 16q6 0 18 -2
q30 -8 46 -35t9 -57z" />
    <glyph glyph-name="O.ss01" horiz-adv-x="791" 
d="M395 626q-15 0 -26 10.5t-11 26.5q0 15 11 26t26 11q16 0 26.5 -11t10.5 -26q0 -16 -10.5 -26.5t-26.5 -10.5zM253 631q-5 15 1.5 29t21.5 19q4 2 12 2q27 0 35 -24q5 -15 -1.5 -29t-20.5 -19q-4 -2 -13 -2q-27 0 -35 24zM515 679q14 -5 20.5 -19t1.5 -29q-8 -24 -35 -24
q-8 0 -12 2q-15 5 -21.5 19t-1.5 29q8 24 35 24q9 0 13 -2zM166 566q-10 11 -8.5 26.5t12.5 25.5q10 9 24 9q16 0 29 -13q10 -12 8.5 -27.5t-13.5 -25.5q-10 -9 -24 -9q-17 0 -28 14zM568 614q11 13 28 13q14 0 24 -9q12 -10 13.5 -25.5t-8.5 -26.5q-11 -14 -29 -14
q-12 0 -23 9q-12 10 -13.5 25.5t8.5 27.5zM106 474q-13 8 -17.5 23t3.5 28q11 19 32 19q9 0 19 -5q14 -8 17.5 -22.5t-4.5 -28.5q-11 -19 -32 -19q-8 0 -18 5zM634 488q-8 13 -3.5 28t17.5 23q10 5 18 5q21 0 32 -19q8 -14 4.5 -28.5t-17.5 -22.5q-10 -5 -19 -5
q-21 0 -32 19zM81 368q-15 2 -24 15t-6 28q5 30 43 30q15 -3 23.5 -15.5t6.5 -27.5q-3 -14 -13 -22.5t-23 -8.5zM667 398q-3 15 6 27.5t24 15.5q36 0 43 -30q3 -15 -6 -28t-24 -15l-7 -1q-13 0 -23.5 9t-12.5 22zM51 289q-3 15 6 28t24 15l7 1q13 0 23 -8.5t13 -22.5
q2 -15 -6.5 -27.5t-23.5 -15.5q-38 0 -43 30zM697 259q-15 3 -24 15.5t-6 27.5q2 13 12.5 22t23.5 9l7 -1q15 -2 24 -15t6 -28q-7 -30 -43 -30zM92 175q-8 13 -3.5 28t17.5 23q10 5 18 5q21 0 32 -19q8 -14 4.5 -28.5t-17.5 -22.5q-10 -5 -19 -5q-21 0 -32 19zM648 161
q-13 8 -17.5 23t3.5 28q11 19 32 19q9 0 19 -5q14 -8 17.5 -22.5t-4.5 -28.5q-11 -19 -32 -19q-8 0 -18 5zM170 82q-11 10 -12.5 25.5t8.5 26.5q11 14 28 14q14 0 24 -9q12 -10 13.5 -25.5t-8.5 -27.5q-13 -13 -29 -13q-14 0 -24 9zM596 73q-17 0 -28 13q-10 12 -8.5 27.5
t13.5 25.5q11 9 23 9q18 0 29 -14q10 -12 8.5 -27t-13.5 -25q-10 -9 -24 -9zM276 21q-15 5 -21.5 19t-1.5 29q8 24 35 24q9 0 13 -2q14 -5 20.5 -19t1.5 -29q-8 -24 -35 -24q-8 0 -12 2zM537 69q5 -15 -1.5 -29t-20.5 -19q-4 -2 -13 -2q-27 0 -35 24q-5 15 1.5 29t21.5 19
q4 2 12 2q27 0 35 -24zM358 37q0 16 11 26.5t26 10.5q16 0 26.5 -10.5t10.5 -26.5q0 -15 -10.5 -26t-26.5 -11q-15 0 -26 11t-11 26z" />
    <glyph glyph-name="O.ss02" horiz-adv-x="434" 
d="M217 700q70 0 118.5 -49t48.5 -118v-366q0 -69 -48.5 -118t-118.5 -49q-69 0 -118 49t-49 118v366q0 69 49 118t118 49zM275 533q0 24 -17 40.5t-41 16.5t-40.5 -16.5t-16.5 -40.5v-366q0 -24 16.5 -40.5t40.5 -16.5t41 16.5t17 40.5v366z" />
    <glyph glyph-name="O.ss03" horiz-adv-x="805" 
d="M353 664h38l11 36l12 -36h38l-31 -23l12 -36l-31 23l-30 -23l11 36zM177 575l11 36l12 -36h38l-31 -22l12 -36l-31 22l-30 -22l11 36l-30 22h38zM666 575l-31 -22l12 -36l-31 22l-30 -22l11 36l-30 22h38l11 36l12 -36h38zM88 361l12 36l12 -36h38l-31 -22l12 -36l-31 22
l-31 -22l12 36l-31 22h38zM655 361h38l12 36l12 -36h38l-31 -22l12 -36l-31 22l-31 -22l12 36zM177 147l11 36l12 -36h38l-31 -22l12 -36l-31 22l-30 -22l11 36l-30 22h38zM666 147l-31 -22l12 -36l-31 22l-30 -22l11 36l-30 22h38l11 36l12 -36h38zM353 59h38l11 36l12 -36
h38l-31 -23l12 -36l-31 22l-30 -22l11 36z" />
    <glyph glyph-name="O.ss04" 
d="M750 350q0 -145 -102.5 -247.5t-247.5 -102.5t-247.5 102.5t-102.5 247.5t102.5 247.5t247.5 102.5t247.5 -102.5t102.5 -247.5zM694 350q0 122 -86 208t-208 86t-208 -86t-86 -208t86 -208t208 -86t208 86t86 208zM400 153q-60 0 -102.5 42.5t-42.5 102.5t42.5 102.5
t102.5 42.5t102.5 -42.5t42.5 -102.5t-42.5 -102.5t-102.5 -42.5zM311 298q0 -37 26 -62.5t63 -25.5t63 25.5t26 62.5t-26 63t-63 26t-63 -26t-26 -63z" />
    <glyph glyph-name="O.ss05" horiz-adv-x="774" 
d="M724 350q0 -145 -99 -247.5t-238 -102.5t-238 102.5t-99 247.5t99 247.5t238 102.5t238 -102.5t99 -247.5zM387 32q127 0 216.5 93t89.5 225t-89.5 225.5t-216.5 93.5q-126 0 -215.5 -93.5t-89.5 -225.5t89.5 -225t215.5 -93zM387 665q80 0 134 -96q52 -90 52 -219
q0 -130 -52 -219q-54 -96 -134 -96t-134 96q-52 91 -52 219q0 126 52 219q54 96 134 96zM281 144q45 -81 106 -81t106 81q48 85 48 206t-48 206q-45 81 -106 81t-106 -81q-48 -85 -48 -206t48 -206z" />
    <glyph glyph-name="O.ss06" 
d="M398 549q-82 0 -139.5 -57.5t-57.5 -139.5h-151q0 144 102 246t246 102v-151zM402 700q144 0 246 -102t102 -246h-151q0 82 -58 139.5t-139 57.5v151zM398 0q-144 0 -246 102t-102 246h151q0 -82 57.5 -139.5t139.5 -57.5v-151zM402 151q81 0 139 57.5t58 139.5h151
q0 -144 -102 -246t-246 -102v151z" />
    <glyph glyph-name="O.ss07" horiz-adv-x="801" 
d="M724 214l-161 50l131 -107l-150 78l109 -128l-132 104l83 -147l-111 127l55 -159l-86 145l25 -167l-58 158l-6 -168l-27 166l-37 -164l3 168l-67 -155l35 165l-94 -140l64 156l-118 -120l91 142l-138 -97l116 122l-153 -69l136 99l-164 -41l152 73l-168 -10l163 43
l-167 22l168 12l-160 52l167 -19l-148 81l161 -50l-130 107l149 -78l-109 128l133 -104l-84 147l111 -127l-55 159l86 -145l-25 167l58 -158l6 168l28 -166l36 164l-3 -168l67 155l-34 -165l93 140l-63 -156l118 120l-92 -142l138 97l-116 -122l154 70l-137 -100l164 41
l-152 -72l168 9l-163 -43l167 -22l-168 -12l160 -52l-167 19zM401 501q-63 0 -107 -44.5t-44 -106.5t44 -106.5t107 -44.5q62 0 106 44.5t44 106.5t-44 106.5t-106 44.5zM351 266q-20 0 -34.5 14.5t-14.5 34.5q0 21 14.5 35.5t34.5 14.5t35 -14.5t15 -35.5q0 -20 -15 -34.5
t-35 -14.5z" />
    <glyph glyph-name="O.ss08" horiz-adv-x="626" 
d="M313 700q68 0 116 -48t48 -116h-328q0 68 48.5 116t115.5 48zM50 350q0 57 26 106t73 80v-372q-47 31 -73 80.5t-26 105.5zM477 536q47 -31 73 -80t26 -106q0 -56 -26 -105.5t-73 -80.5v372zM313 0q-67 0 -115.5 48t-48.5 116h328q0 -68 -48 -116t-116 -48z" />
    <glyph glyph-name="O.ss09" 
d="M684 480q0 -14 9 -21l21 -21q36 -38 36 -88t-36 -88l-21 -20q-9 -9 -9 -22v-30q0 -51 -36.5 -87.5t-87.5 -36.5h-29q-15 0 -22 -9l-21 -21q-36 -36 -88 -36q-50 0 -88 36l-20 21q-9 9 -22 9h-30q-51 0 -87.5 36.5t-36.5 87.5v30q0 14 -9 21l-21 21q-36 37 -36 88t36 88
l21 21q9 7 9 21v30q0 51 36.5 87.5t87.5 36.5h30q13 0 22 9l21 21q36 36 88 36q51 0 87 -36l21 -21q7 -9 22 -9h29q51 0 87.5 -36.5t36.5 -87.5v-30zM152 372q-9 -9 -9 -22t9 -22l21 -21q36 -36 36 -87v-30q0 -13 9 -22t22 -9h30q51 0 87 -36l21 -21q9 -9 22 -9t22 9l21 21
q36 36 88 36h29q13 0 22 9t9 22v30q0 51 36 87l21 21q9 9 9 22t-9 22l-21 21q-36 36 -36 88v29q0 13 -9 22t-22 9h-29q-52 0 -88 36l-21 21q-9 9 -22 9t-22 -9l-21 -21q-36 -36 -87 -36h-30q-13 0 -22 -9t-9 -22v-30q0 -51 -36 -87z" />
    <glyph glyph-name="O.ss10" horiz-adv-x="808" 
d="M228 526v174h174v-174h-174zM406 526v174h174v-174h-174zM50 526h174v-174h-174v174zM584 352v174h174v-174h-174zM50 348h174v-174h-174v174zM584 174v174h174v-174h-174zM228 0v174h174v-174h-174zM406 174h174v-174h-174v174z" />
    <glyph glyph-name="O.ss11" 
d="M400 643q-38 0 -72 -9q2 28 23 47t49 19t49 -19t23 -47q-34 9 -72 9zM196 560q-12 25 -4 52t33 41q16 10 36 10q37 0 59 -31q-72 -21 -124 -72zM604 560q-52 51 -124 72q22 31 59 31q20 0 36 -10q25 -14 33 -41t-4 -52zM400 66q-117 0 -200.5 83t-83.5 201t83.5 201
t200.5 83q118 0 201 -83t83 -201t-83.5 -201t-200.5 -83zM118 430q-23 16 -29 43t8 52q20 36 62 36q17 0 31 -7q-51 -52 -72 -124zM682 430q-21 72 -72 124q14 7 31 7q42 0 62 -36q14 -25 8 -52t-29 -43zM255 350q0 -60 42.5 -102.5t102.5 -42.5t102.5 42.5t42.5 102.5
t-42.5 102.5t-102.5 42.5t-102.5 -42.5t-42.5 -102.5zM116 278q-28 2 -47 23t-19 49t19 49t47 23q-9 -34 -9 -72t9 -72zM750 350q0 -28 -19 -49t-47 -23q9 34 9 72t-9 72q28 -2 47 -23t19 -49zM97 175q-14 25 -8 52t29 43q21 -72 72 -124q-14 -7 -31 -7q-42 0 -62 36z
M641 139q-17 0 -31 7q51 52 72 124q23 -16 29 -43t-8 -52q-20 -36 -62 -36zM225 47q-25 14 -33 41t4 52q52 -51 124 -72q-22 -31 -59 -31q-20 0 -36 10zM539 37q-37 0 -59 31q72 21 124 72q12 -25 4 -52t-33 -41q-16 -10 -36 -10zM400 0q-28 0 -49 19t-23 47q34 -9 72 -9
t72 9q-2 -28 -23 -47t-49 -19z" />
    <glyph glyph-name="O.ss12" 
d="M400 700q143 0 245.5 -100.5t104.5 -243.5q-47 37 -79 60t-80.5 51.5t-96 43t-94.5 14.5t-94.5 -14.5t-96 -43t-80.5 -51.5t-79 -60q2 143 104.5 243.5t245.5 100.5zM570 350q0 -70 -50 -120t-120 -50t-120 50t-50 120t50 119.5t120 49.5t120 -49.5t50 -119.5zM750 344
q-2 -143 -104.5 -243.5t-245.5 -100.5t-245.5 100.5t-104.5 243.5q47 -37 79 -60t80.5 -51.5t96 -43t94.5 -14.5t94.5 14.5t96 43t80.5 51.5t79 60z" />
    <glyph glyph-name="O.ss13" 
d="M750 350q0 -145 -102.5 -247.5t-247.5 -102.5t-247.5 102.5t-102.5 247.5t102.5 247.5t247.5 102.5t247.5 -102.5t102.5 -247.5zM489 394q0 67 -47.5 114.5t-114.5 47.5t-115 -47.5t-48 -114.5t47.5 -114.5t115.5 -47.5q67 0 114.5 47.5t47.5 114.5zM175 394
q0 62 44.5 106.5t107.5 44.5q62 0 106.5 -44.5t44.5 -106.5q0 -63 -44.5 -107.5t-106.5 -44.5q-63 0 -107.5 44.5t-44.5 107.5z" />
    <glyph glyph-name="P.ss01" horiz-adv-x="656" 
d="M50 655q0 19 13 32t32 13t32.5 -13t13.5 -32t-13.5 -32.5t-32.5 -13.5t-32 13.5t-13 32.5zM218 609q-19 0 -32 13.5t-13 32.5t13 32t32 13t32 -13t13 -32t-13 -32.5t-32 -13.5zM295 655q0 19 13.5 32t32.5 13t32 -13t13 -32t-13 -32.5t-32 -13.5t-32.5 13.5t-13.5 32.5z
M418 655q0 19 13 32t32 13t32.5 -13t13.5 -32t-13.5 -32.5t-32.5 -13.5t-32 13.5t-13 32.5zM50 533q0 19 13 32t32 13t32.5 -13t13.5 -32t-13.5 -32.5t-32.5 -13.5t-32 13.5t-13 32.5zM515 533q0 19 13.5 32t32.5 13t32 -13t13 -32t-13 -32.5t-32 -13.5t-32.5 13.5
t-13.5 32.5zM50 411q0 19 13 32t32 13t32.5 -13t13.5 -32t-13.5 -32t-32.5 -13t-32 13t-13 32zM515 411q0 19 13.5 32t32.5 13t32 -13t13 -32t-13 -32t-32 -13t-32.5 13t-13.5 32zM95 244q-19 0 -32 13t-13 32t13 32t32 13t32.5 -13t13.5 -32t-13.5 -32t-32.5 -13zM218 244
q-19 0 -32 13t-13 32t13 32t32 13t32 -13t13 -32t-13 -32t-32 -13zM341 244q-19 0 -32.5 13t-13.5 32t13.5 32t32.5 13t32 -13t13 -32t-13 -32t-32 -13zM418 289q0 19 13 32t32 13t32.5 -13t13.5 -32t-13.5 -32t-32.5 -13t-32 13t-13 32zM50 167q0 19 13 32.5t32 13.5
t32.5 -13.5t13.5 -32.5t-13.5 -32t-32.5 -13t-32 13t-13 32zM95 0q-19 0 -32 13t-13 32t13 32.5t32 13.5t32.5 -13.5t13.5 -32.5t-13.5 -32t-32.5 -13z" />
    <glyph glyph-name="P.ss02" horiz-adv-x="931" 
d="M50 700h650v-45h-650v45zM790 561h-740v45h740v-45zM50 513h831v-45h-831v45zM790 374h-740v45h740v-45zM700 281h-650v45h650v-45zM50 232h358v-45h-358v45zM408 94h-358v45h358v-45zM50 45h358v-45h-358v45z" />
    <glyph glyph-name="P.ss03" horiz-adv-x="826" 
d="M178 700v-700h-128v700h128zM476 444l-292 256h300l292 -256h-300zM776 436l-292 -256h-300l292 256h300z" />
    <glyph glyph-name="P.ss04" horiz-adv-x="489" 
d="M180 700q107 0 183 -76t76 -183q0 -108 -76 -184t-183 -76v105q64 0 109 45.5t45 109.5t-45 109t-109 45v105zM176 595v-595h-126v595h126z" />
    <glyph glyph-name="P.ss05" horiz-adv-x="535" 
d="M182 700q126 0 214.5 -89t88.5 -214t-88.5 -214t-214.5 -89v197q25 0 48 1.5t59 7.5t61.5 16.5t44.5 31.5t19 49t-19 49t-44.5 31.5t-61.5 16.5t-59 7.5t-48 1.5v197zM176 498v-498h-126v498h126z" />
    <glyph glyph-name="P.ss06" horiz-adv-x="677" 
d="M443 360q56 0 96.5 42.5t40.5 102.5t-40.5 102t-96.5 42h-369q-10 0 -17 7.5t-7 18.5q0 10 7 17.5t17 7.5h369q76 0 130 -57.5t54 -137.5q0 -81 -54 -138.5t-130 -57.5h-218v-219q0 -37 -25 -63.5t-60 -26.5t-60 26.5t-25 63.5v416q0 32 23 55t55 23h307q31 0 53.5 -23.5
t22.5 -56.5q0 -34 -22 -57.5t-54 -23.5h-241q-10 0 -17 7.5t-7 17.5q0 11 7 18.5t17 7.5h241q11 0 19.5 8.5t8.5 21.5q0 12 -8.5 21t-19.5 9h-311q-11 0 -18.5 -8t-7.5 -18v-418q0 -16 11 -27.5t26 -11.5t26 11.5t11 27.5v270h266z" />
    <glyph glyph-name="P.ss07" horiz-adv-x="758" 
d="M50 700h134v-35h-134v35zM188 166v534h365q64 0 109.5 -45.5t45.5 -109.5v-223q0 -65 -45.5 -110.5t-109.5 -45.5h-365zM50 609v36h134v-36h-134zM184 589v-35h-134v35h134zM50 498v36h134v-36h-134zM184 478v-35h-134v35h134zM184 423v-35h-134v35h134zM184 368v-36
h-134v36h134zM50 277v35h134v-35h-134zM50 222v35h134v-35h-134zM50 201h134v-35h-134v35zM50 111v35h134v-35h-134zM184 91v-36h-134v36h134zM50 35h134v-35h-134v35z" />
    <glyph glyph-name="P.ss08" horiz-adv-x="698" 
d="M162 700q47 0 80 -32.5t33 -79.5t-33 -80t-80 -33t-79.5 33t-32.5 80q0 46 33 79t79 33zM310 700q161 0 249.5 -78t88.5 -198q0 -119 -88.5 -197t-249.5 -78v551zM275 350q0 -47 -33 -79.5t-80 -32.5q-46 0 -79 33t-33 79t33 79t79 33q47 0 80 -32.5t33 -79.5zM162 225
q47 0 80 -33t33 -80t-33 -79.5t-80 -32.5q-46 0 -79 33t-33 79q0 47 32.5 80t79.5 33z" />
    <glyph glyph-name="Q.ss01" horiz-adv-x="799" 
d="M398 583q-95 0 -163 -68t-68 -163h-117q0 144 102 246t246 102v-117zM632 352q0 95 -68 163t-163 68v117q144 0 246 -102t102 -246h-117zM398 0q-144 0 -246 102t-102 246h117q0 -95 68 -163t163 -68v-117zM701 0q-144 0 -246 102t-102 246h117q0 -95 68 -163t163 -68
v-117z" />
    <glyph glyph-name="Q.ss02" horiz-adv-x="717" 
d="M308 649q0 21 14.5 36t36.5 15q21 0 35.5 -15t14.5 -36t-14.5 -36t-35.5 -15q-22 0 -36.5 15t-14.5 36zM186 589q-11 18 -5.5 39t23.5 31q11 7 25 7q30 0 45 -26q11 -18 5.5 -38.5t-24.5 -30.5q-11 -7 -25 -7q-30 0 -44 25zM462 571q-18 11 -23.5 31t4.5 38q15 26 45 26
q14 0 25 -7q18 -11 23.5 -31t-5.5 -39q-14 -25 -44 -25q-14 0 -25 7zM110 476q-18 11 -23.5 31t4.5 39q14 25 44 25q15 0 26 -7q18 -11 23.5 -31t-5.5 -38q-15 -26 -44 -26q-14 0 -25 7zM607 476q-11 -7 -25 -7q-29 0 -44 26q-11 18 -5.5 38.5t23.5 30.5q11 7 26 7
q30 0 44 -25q10 -19 4.5 -39t-23.5 -31zM101 341q-21 0 -36 14.5t-15 35.5q0 22 15 36.5t36 14.5t36 -14.5t15 -36.5q0 -21 -15 -35.5t-36 -14.5zM667 391q0 -21 -15 -35.5t-36 -14.5t-36 14.5t-15 35.5q0 22 15 36.5t36 14.5t36 -14.5t15 -36.5zM369 270q-6 20 4 38.5
t30 24.5q10 2 15 2q37 0 48 -36q6 -20 -4 -38.5t-30 -24.5q-10 -2 -14 -2q-17 0 -30.5 10t-18.5 26zM91 237q-10 19 -4.5 39t23.5 31q11 7 25 7q29 0 44 -26q11 -18 5.5 -38t-23.5 -31q-11 -7 -26 -7q-30 0 -44 25zM582 314q14 0 25 -7q18 -11 23.5 -31t-4.5 -39
q-14 -25 -44 -25q-15 0 -26 7q-18 10 -23.5 30.5t5.5 38.5q15 26 44 26zM204 124q-18 11 -23 31t5 39q14 25 44 25q14 0 25 -7q18 -11 23.5 -31t-4.5 -38q-15 -26 -45 -26q-14 0 -25 7zM443 143q-10 18 -4.5 38t23.5 31q11 7 25 7q30 0 44 -25q10 -19 5 -39t-23 -31
q-11 -7 -25 -7q-30 0 -45 26zM359 83q-22 0 -36.5 15t-14.5 36t14.5 36t36.5 15q21 0 35.5 -15t14.5 -36t-14.5 -36t-35.5 -15zM572 2q-10 -2 -15 -2q-17 0 -30.5 10t-18.5 26q-6 20 4 38.5t30 25.5q10 2 15 2q17 0 30.5 -10t18.5 -26q6 -20 -4 -39t-30 -25z" />
    <glyph glyph-name="Q.ss03" horiz-adv-x="836" 
d="M625 212q40 66 40 139q0 110 -78 188.5t-188 78.5t-188.5 -78.5t-78.5 -188.5t78.5 -188t188.5 -78q91 0 163 56l62 -55q-97 -83 -225 -83q-145 0 -247 102t-102 246q0 145 102 247t247 102q144 0 246 -102t102 -247q0 -107 -60 -195zM745 0q-15 0 -28 11l-346 310
q-13 11 -13.5 28t10.5 30q12 14 30 14q15 0 28 -11l346 -310q13 -12 13.5 -28.5t-10.5 -29.5q-12 -14 -30 -14z" />
    <glyph glyph-name="Q.ss04" horiz-adv-x="699" 
d="M333 410q0 -58 -41.5 -99.5t-99.5 -41.5q-59 0 -100.5 41t-41.5 100v148q0 59 41.5 100.5t100.5 41.5h83q59 0 100.5 -41.5t41.5 -100.5v-291q0 -82 58 -140t140 -58q14 0 24 -10t10 -24q0 -15 -10 -25t-24 -10q-110 0 -188.5 78.5t-78.5 188.5v291q0 31 -21.5 52
t-51.5 21h-83q-30 0 -51.5 -21t-21.5 -52v-148q0 -30 21.5 -51t51.5 -21t51 21t21 51v142q0 14 10.5 24t24.5 10t24 -10t10 -24v-142z" />
    <glyph glyph-name="Q.ss05" horiz-adv-x="596" 
d="M446 700v-100h-296v100h296zM50 600h100v-500h-100v500zM546 200h-100v400h100v-400zM246 300h100v-100h-100v100zM346 200h100v-100h-100v100zM150 0v100h196v-100h-196zM546 0h-100v100h100v-100z" />
    <glyph glyph-name="R.ss01" horiz-adv-x="629" 
d="M517 2q-33 0 -51 26l-205 286q-12 16 -12 36t12 36l110 154q8 14 1 23q-5 12 -19 12h-178v-513q0 -26 -18.5 -44t-44.5 -18t-44 18t-18 44v576q0 26 18 44t44 18h241q41 0 76 -21.5t54 -58.5q41 -78 -11 -152l-84 -118l179 -250q15 -21 11 -46.5t-25 -40.5
q-15 -11 -36 -11z" />
    <glyph glyph-name="R.ss02" horiz-adv-x="663" 
d="M588 0h-538v700zM397 700q90 0 153 -63.5t63 -152.5t-63 -152.5t-153 -63.5l-335 432h335z" />
    <glyph glyph-name="R.ss03" horiz-adv-x="700" 
d="M50 700h96v-700h-96v700zM404 700l246 -229h-252l-246 229h252zM398 465h252l-246 -230h-252zM152 229h252l246 -229h-252z" />
    <glyph glyph-name="R.ss04" horiz-adv-x="592" 
d="M98 604q-20 0 -34 14t-14 34t14 34t34 14t34 -14t14 -34t-14 -34t-34 -14zM230 604q-20 0 -34 14t-14 34t14 34t34 14t34 -14t14 -34t-14 -34t-34 -14zM362 604q-20 0 -34 14t-14 34t14 34t34 14t34 -14t14 -34t-14 -34t-34 -14zM50 501q0 20 14 34t34 14t34 -14t14 -34
t-14 -34t-34 -14t-34 14t-14 34zM494 453q-20 0 -34 14t-14 34t14 34t34 14t34 -14t14 -34t-14 -34t-34 -14zM98 302q-20 0 -34 14t-14 34t14 34t34 14t34 -14t14 -34t-14 -34t-34 -14zM182 350q0 20 14 34t34 14t34 -14t14 -34t-14 -34t-34 -14t-34 14t-14 34zM362 302
q-20 0 -34 14t-14 34t14 34t34 14t34 -14t14 -34t-14 -34t-34 -14zM98 151q-20 0 -34 14t-14 34t14 34t34 14t34 -14t14 -34t-14 -34t-34 -14zM446 199q0 20 14 34t34 14t34 -14t14 -34t-14 -34t-34 -14t-34 14t-14 34zM50 48q0 20 14 34t34 14t34 -14t14 -34t-14 -34
t-34 -14t-34 14t-14 34zM494 0q-20 0 -34 14t-14 34t14 34t34 14t34 -14t14 -34t-14 -34t-34 -14z" />
    <glyph glyph-name="R.ss05" horiz-adv-x="652" 
d="M50 700h430v-29h-430v29zM50 603v30h471v-30h-471zM562 566v-30h-512v30h512zM50 469v30h512v-30h-512zM562 432v-30h-512v30h512zM521 365v-30h-471v30h471zM442 298v-30h-392v30h392zM50 201v30h171v-30h-171zM286 231h191v-30h-191v30zM221 164v-30h-171v30h171z
M519 134h-210v30h210v-30zM350 67v30h210v-30h-210zM50 67v29h171v-29h-171zM50 0v29h171v-29h-171zM602 29v-29h-210v29h210z" />
    <glyph glyph-name="R.ss06" horiz-adv-x="708" 
d="M431 0l-381 439l1 261l607 -700h-227zM595 501q0 -82 -56 -140.5t-136 -58.5l-345 397h345q79 0 135.5 -58t56.5 -140zM226 0h-176v431l176 -203v-228z" />
    <glyph glyph-name="R.ss07" horiz-adv-x="637" 
d="M383 349q-73 0 -124 51t-51 124t51 124.5t124 51.5t124.5 -51.5t51.5 -124.5t-51.5 -124t-124.5 -51zM50 0v680h152v-680h-152zM383 595q-29 0 -49.5 -21t-20.5 -50t20.5 -49.5t49.5 -20.5t49.5 20.5t20.5 49.5t-20.5 50t-49.5 21zM383 343l204 -343h-177l-204 343h177z
" />
    <glyph glyph-name="S.ss01" horiz-adv-x="796" 
d="M746 700l-344 -229h-352l343 229h353zM746 235h-353l-343 230h352zM402 0h-352l343 229h353z" />
    <glyph glyph-name="S.ss02" horiz-adv-x="644" 
d="M485 140q39 44 29 101v2q-14 42 -32 61q-45 45 -136 45q-23 0 -50 -3q-22 -2 -33 -2q-102 0 -155 73q-26 38 -29.5 83.5t17.5 86.5q58 113 226 113q156 0 219 -72q20 -22 29.5 -48.5t8 -40t-0.5 -20.5l-77 11q0 92 -196 92q-106 -3 -139 -70q-25 -48 6 -90q28 -40 92 -40
q15 0 23 1q28 4 61 4q104 0 170 -52q27 -21 45 -50t22.5 -45t5.5 -26q17 -94 -49 -166q-38 -42 -96.5 -65t-119.5 -23q-103 0 -177.5 58t-97.5 158q-4 16 4.5 29.5t24.5 17.5q3 1 9 1q13 0 24 -9t14 -22q17 -74 70 -114.5t129 -40.5q101 0 159 62z" />
    <glyph glyph-name="S.ss03" horiz-adv-x="485" 
d="M212 670q0 13 8.5 21.5t21.5 8.5t21.5 -8.5t8.5 -21.5t-8.5 -21.5t-21.5 -8.5t-21.5 8.5t-8.5 21.5zM323 640q-12 0 -21 8.5t-9 21.5t9 21.5t21 8.5q13 0 22 -8.5t9 -21.5t-9 -21.5t-22 -8.5zM405 700q12 0 21 -8.5t9 -21.5t-9 -21.5t-21 -8.5q-13 0 -21.5 8.5t-8.5 21.5
t8.5 21.5t21.5 8.5zM131 649q0 13 8.5 21.5t21.5 8.5q12 0 21 -8.5t9 -21.5q0 -12 -9 -21t-21 -9q-13 0 -21.5 9t-8.5 21zM104 559q-12 0 -21 8.5t-9 21.5t9 21.5t21 8.5q13 0 21.5 -8.5t8.5 -21.5t-8.5 -21.5t-21.5 -8.5zM51 512q0 12 9 21t21 9q13 0 21.5 -9t8.5 -21
q0 -13 -8.5 -21.5t-21.5 -8.5q-12 0 -21 8.5t-9 21.5zM104 401q-12 0 -21 8.5t-9 21.5q0 12 9 21t21 9q13 0 21.5 -9t8.5 -21q0 -13 -8.5 -21.5t-21.5 -8.5zM131 371q0 12 8.5 21t21.5 9q12 0 21 -9t9 -21q0 -13 -9 -21.5t-21 -8.5q-13 0 -21.5 8.5t-8.5 21.5zM212 350
q0 12 8.5 21t21.5 9t21.5 -9t8.5 -21q0 -13 -8.5 -21.5t-21.5 -8.5t-21.5 8.5t-8.5 21.5zM324 299q-12 0 -21 9t-9 21q0 13 9 21.5t21 8.5q13 0 21.5 -8.5t8.5 -21.5q0 -12 -8.5 -21t-21.5 -9zM351 269q0 13 8.5 21.5t21.5 8.5q12 0 21 -8.5t9 -21.5q0 -12 -9 -21t-21 -9
q-13 0 -21.5 9t-8.5 21zM404 218q12 0 21 -8.5t9 -21.5q0 -12 -9 -21t-21 -9q-13 0 -21.5 9t-8.5 21q0 13 8.5 21.5t21.5 8.5zM381 81q-13 0 -21.5 8.5t-8.5 21.5t8.5 21.5t21.5 8.5q12 0 21 -8.5t9 -21.5t-9 -21.5t-21 -8.5zM294 51q0 12 9 21t21 9q13 0 21.5 -9t8.5 -21
q0 -13 -8.5 -21.5t-21.5 -8.5q-12 0 -21 8.5t-9 21.5zM80 0q-13 0 -21.5 8.5t-8.5 21.5t8.5 21.5t21.5 8.5t21.5 -8.5t8.5 -21.5t-8.5 -21.5t-21.5 -8.5zM131 30q0 13 9 21.5t21 8.5q13 0 21.5 -8.5t8.5 -21.5t-8.5 -21.5t-21.5 -8.5q-12 0 -21 8.5t-9 21.5zM213 30
q0 13 8.5 21.5t21.5 8.5q12 0 21 -8.5t9 -21.5t-9 -21.5t-21 -8.5q-13 0 -21.5 8.5t-8.5 21.5z" />
    <glyph glyph-name="S.ss04" horiz-adv-x="604" 
d="M107 700h390v-33h-390v33zM50 583v34h203v-34h-203zM554 617v-34h-204v34h204zM253 533v-33h-203v33h203zM554 533v-33h-204v33h204zM253 450v-33h-203v33h203zM497 367v-34h-390v34h390zM350 250v33h204v-33h-204zM253 200v-33h-203v33h203zM350 167v33h204v-33h-204z
M50 117h203v-34h-203v34zM554 83h-204v34h204v-34zM107 0v33h390v-33h-390z" />
    <glyph glyph-name="S.ss05" horiz-adv-x="646" 
d="M275 255q-92 0 -158 64.5t-67 156.5t64.5 158t157.5 66h163q40 0 68 -28t28 -68t-28 -68t-68 -28h-162q-12 0 -21 -8.5t-10 -20.5q-1 -13 8 -22t22 -9h100q93 0 158.5 -66t65.5 -159q-1 -93 -67.5 -158t-159.5 -65h-206q-40 0 -68 28t-28 68t28 68t68 28h208q13 0 22 8.5
t10 21.5q1 14 -8.5 23.5t-22.5 9.5h-97zM163 119q-9 0 -15.5 -7t-6.5 -16t6.5 -15.5t15.5 -6.5h206q63 0 107.5 43.5t45.5 105.5q0 63 -43.5 107t-106.5 44h-100q-43 0 -75 32q-31 34 -28 77q1 41 31.5 69.5t72.5 28.5h162q9 0 15.5 7t6.5 16t-6.5 15.5t-15.5 6.5h-163
q-63 0 -105 -44q-45 -45 -43 -106q0 -61 44.5 -104t106.5 -43h97q45 0 76 -33q31 -31 29 -77q-2 -43 -32.5 -71.5t-73.5 -28.5h-208z" />
    <glyph glyph-name="S.ss06" horiz-adv-x="400" 
d="M150 700h100v-100h-100v100zM50 400v200h100v-200h-100zM350 500h-100v100h100v-100zM250 300h-100v100h100v-100zM350 100h-100v200h100v-200zM50 200h100v-100h-100v100zM150 0v100h100v-100h-100z" />
    <glyph glyph-name="S.ss07" horiz-adv-x="684" 
d="M371 700h263l-321 -381h-263zM371 381h263l-321 -381h-263z" />
    <glyph glyph-name="S.ss08" horiz-adv-x="447" 
d="M50 526q0 72 51 123t123 51t122.5 -51t50.5 -123v-173h-173q-72 0 -123 50.5t-51 122.5zM224 0q-72 0 -123 51t-51 123v173h174q72 0 122.5 -50.5t50.5 -122.5t-50.5 -123t-122.5 -51z" />
    <glyph glyph-name="S.ss09" horiz-adv-x="809" 
d="M61 620q38 80 174 80q121 0 257 -66q111 -55 183.5 -132.5t83.5 -148.5h-573q-81 66 -116 139t-9 128zM623 347q81 -66 116.5 -139t9.5 -128q-38 -80 -174 -80q-122 0 -257 66q-111 55 -184 132.5t-84 148.5h573z" />
    <glyph glyph-name="T.ss01" horiz-adv-x="940" 
d="M890 565q0 -56 -39.5 -95.5t-95.5 -39.5h-570q-56 0 -95.5 39.5t-39.5 95.5t39.5 95.5t95.5 39.5h570q56 0 95.5 -39.5t39.5 -95.5zM636 165q0 -68 -49 -116.5t-117 -48.5t-116.5 48.5t-48.5 116.5v91q0 68 48.5 116.5t116.5 48.5h166v-256z" />
    <glyph glyph-name="T.ss02" horiz-adv-x="746" 
d="M696 652h-646v48h646v-48zM696 571h-646v47h646v-47zM696 489h-646v48h646v-48zM267 458h48v-458h-48v458zM397 458v-458h-48v458h48zM478 458v-458h-47v458h47z" />
    <glyph glyph-name="T.ss03" horiz-adv-x="703" 
d="M653 522h-603v178h603v-178zM352 337q-27 0 -46 19t-19 45q0 27 19 46t46 19q26 0 45 -19t19 -46q0 -26 -19 -45t-45 -19zM352 168q-27 0 -46 19t-19 46t19 46t46 19q26 0 45 -19t19 -46t-19 -46t-45 -19zM287 65q0 26 19 45t46 19q26 0 45 -19t19 -45q0 -27 -19 -46
t-45 -19q-27 0 -46 19t-19 46z" />
    <glyph glyph-name="T.ss04" horiz-adv-x="796" 
d="M189 700h418v-139h-140v-561h-139v561h-139v139zM50 421v140h139v-140h-139zM607 561h139v-140h-139v140z" />
    <glyph glyph-name="T.ss05" horiz-adv-x="940" 
d="M226 347q-73 0 -124.5 52t-51.5 125t51.5 124.5t124.5 51.5h488q73 0 124.5 -51.5t51.5 -124.5t-51.5 -125t-124.5 -52h-488zM393 48q0 -20 -14 -34t-34 -14t-34 14t-14 34v291h96v-291zM518 339v-291q0 -20 -14 -34t-34 -14t-34 14t-14 34v291h96zM595 0q-19 0 -33.5 14
t-14.5 34v291h96v-291q0 -20 -14 -34t-34 -14z" />
    <glyph glyph-name="T.ss06" horiz-adv-x="807" 
d="M110 700v-220h-60v220h60zM201 700v-220h-60v220h60zM231 572v128h60v-128h-60zM327 700h60v-700h-60v700zM418 700h60v-700h-60v700zM516 572v128h60v-128h-60zM606 700h60v-220h-60v220zM757 700v-220h-60v220h60z" />
    <glyph glyph-name="T.ss07" horiz-adv-x="789" 
d="M50 353v347h227zM282 700h227v-700h-227v700zM739 700v-347l-228 347h228z" />
    <glyph glyph-name="T.ss08" horiz-adv-x="982" 
d="M50 659q0 17 39.5 29t93.5 12t93.5 -12t39.5 -29t-39 -29.5t-94 -12.5t-94 12.5t-39 29.5zM355 659q0 17 39.5 29t93.5 12q55 0 94 -12t39 -29t-39 -29.5t-94 -12.5t-94 12.5t-39 29.5zM666 659q0 17 39.5 29t93.5 12q55 0 94 -12t39 -29t-39 -29.5t-94 -12.5t-94 12.5
t-39 29.5zM50 535q0 17 39 29.5t94 12.5t94 -12.5t39 -29.5t-39 -29t-94 -12t-94 12t-39 29zM355 535q0 17 39 29.5t94 12.5t94 -12.5t39 -29.5t-38.5 -29t-94.5 -12q-55 0 -94 12t-39 29zM666 535q0 17 39 29.5t94 12.5t94 -12.5t39 -29.5t-38.5 -29t-94.5 -12
q-55 0 -94 12t-39 29zM488 370q-55 0 -94 12.5t-39 29.5t39 29t94 12q56 0 94.5 -12t38.5 -29t-39 -29.5t-94 -12.5zM355 288q0 17 39 29.5t94 12.5t94 -12.5t39 -29.5t-38.5 -29t-94.5 -12q-55 0 -94 12t-39 29zM488 123q-55 0 -94 12.5t-39 29.5t39 29t94 12
q56 0 94.5 -12t38.5 -29t-39 -29.5t-94 -12.5zM488 0q-54 0 -93.5 12t-39.5 29t39 29.5t94 12.5t94 -12.5t39 -29.5t-39 -29t-94 -12z" />
    <glyph glyph-name="T.ss09" 
d="M190 420h-140v280h700v-280h-140v-420h-420v420zM470 140v280h140v140h-420v-140h140v-280h140z" />
    <glyph glyph-name="U.ss01" horiz-adv-x="706" 
d="M350 700v-700q-124 0 -212 88t-88 212v400h300zM356 700h300v-400q0 -124 -88 -212t-212 -88v700z" />
    <glyph glyph-name="U.ss02" horiz-adv-x="784" 
d="M50 625q0 31 22 53t53 22t52.5 -22t21.5 -53t-21.5 -52.5t-52.5 -21.5t-53 21.5t-22 52.5zM659 551q-31 0 -53 21.5t-22 52.5t22 53t53 22t53 -22t22 -53t-22 -52.5t-53 -21.5zM50 442q0 31 22 52.5t53 21.5t52.5 -21.5t21.5 -52.5t-21.5 -53t-52.5 -22t-53 22t-22 53z
M584 442q0 31 22 52.5t53 21.5t53 -21.5t22 -52.5t-22 -53t-53 -22t-53 22t-22 53zM125 184q-31 0 -53 21.5t-22 52.5t22 53t53 22t52.5 -22t21.5 -53t-21.5 -52.5t-52.5 -21.5zM584 258q0 31 22 53t53 22t53 -22t22 -53t-22 -52.5t-53 -21.5t-53 21.5t-22 52.5zM279 0
q-31 0 -52.5 22t-21.5 53t21.5 52.5t52.5 21.5t53 -21.5t22 -52.5t-22 -53t-53 -22zM544 75q0 -31 -22 -53t-53 -22t-52.5 22t-21.5 53t21.5 52.5t52.5 21.5t53 -21.5t22 -52.5z" />
    <glyph glyph-name="U.ss03" horiz-adv-x="711" 
d="M537 244q0 -101 -71 -172.5t-172 -71.5t-172.5 71.5t-71.5 172.5v456h487v-456zM661 0h-118v700h118v-700z" />
    <glyph glyph-name="U.ss04" horiz-adv-x="870" 
d="M524 270q65 110 65 327q0 43 34 73t81 30q48 0 82 -30t34 -73q0 -273 -93 -424q-32 -53 -72.5 -90t-82 -53.5t-73.5 -23t-64 -6.5t-64 6.5t-73.5 23t-82 53.5t-72.5 90q-93 151 -93 424q0 43 34 73t82 30q47 0 81 -30t34 -73q0 -221 65 -327q39 -65 89 -65q48 0 89 65z
" />
    <glyph glyph-name="U.ss05" horiz-adv-x="647" 
d="M597 700v-176l-273 -129l-274 129v176h547zM324 0q-112 0 -191.5 78t-82.5 189l274 128l273 -128q-2 -111 -81.5 -189t-191.5 -78z" />
    <glyph glyph-name="U.ss06" horiz-adv-x="700" 
d="M50 700h157v-543h-157v543zM493 698h157v-541h-157v541zM207 0v157h286v-157h-286z" />
    <glyph glyph-name="U.ss07" horiz-adv-x="798" 
d="M397 700v-347h-347v347h347zM401 700h347v-347h-347v347zM397 0q-144 0 -245.5 101.5t-101.5 245.5v2h347v-349zM401 349h347v-2q0 -144 -101.5 -245.5t-245.5 -101.5v349z" />
    <glyph glyph-name="U.ss08" horiz-adv-x="719" 
d="M236 186q0 -38 -27 -65.5t-66 -27.5q-38 0 -65.5 27.5t-27.5 65.5v421q0 38 27.5 65.5t65.5 27.5q39 0 66 -27.5t27 -65.5v-421zM483 607q0 38 27 65.5t66 27.5q38 0 65.5 -27.5t27.5 -65.5v-421q0 -38 -27.5 -65.5t-65.5 -27.5q-39 0 -66 27.5t-27 65.5v421zM266 93
q0 38 27.5 65.5t65.5 27.5q39 0 66.5 -27t27.5 -66q0 -38 -27.5 -65.5t-66.5 -27.5q-38 0 -65.5 27.5t-27.5 65.5z" />
    <glyph glyph-name="U.ss09" horiz-adv-x="793" 
d="M396 354v346q143 0 245 -102t102 -244h-347zM50 693q140 0 239.5 -99.5t99.5 -239.5h-339v339zM743 346q0 -142 -102 -244t-245 -102q-142 0 -244 102t-102 244h693z" />
    <glyph glyph-name="V.ss01" horiz-adv-x="591" 
d="M109 582q-40 0 -55 39q-9 22 1 44.5t33 30.5q9 4 21 4q40 0 55 -38q8 -23 -2 -45t-33 -31q-14 -4 -20 -4zM462 586q-23 9 -33 31t-2 45q15 38 55 38q12 0 21 -4q23 -8 33 -30.5t1 -44.5q-15 -39 -55 -39q-6 0 -20 4zM109 552q40 0 55 -39q8 -23 -2 -45t-33 -30
q-9 -4 -21 -4q-39 0 -54 38q-9 23 1 45t33 31q14 4 21 4zM462 438q-23 8 -33 30t-2 45q15 39 55 39q7 0 21 -4q23 -9 33 -31t1 -45q-15 -38 -54 -38q-12 0 -21 4zM88 399q9 4 21 4q40 0 55 -38q8 -23 -2 -45t-33 -31q-14 -4 -20 -4q-40 0 -55 39q-9 22 1 44.5t33 30.5z
M482 403q12 0 21 -4q23 -8 33 -30.5t1 -44.5q-15 -39 -55 -39q-6 0 -20 4q-23 9 -33 31t-2 45q15 38 55 38zM142 256q9 4 21 4q39 0 54 -38q8 -23 -2 -45t-32 -30q-9 -4 -21 -4q-40 0 -55 38q-8 23 2 45t33 30zM429 143q-12 0 -21 4q-22 8 -32 30t-2 45q15 38 55 38
q12 0 21 -4q22 -8 32 -30t2 -45q-15 -38 -55 -38zM160 38q-8 23 2 45t33 31q14 4 20 4q40 0 55 -39q9 -22 -1 -44.5t-33 -30.5q-9 -4 -21 -4q-17 0 -32.5 10.5t-22.5 27.5zM355 4q-23 8 -33 30.5t-1 44.5q15 39 55 39q6 0 20 -4q23 -9 33 -31t2 -45q-7 -17 -22.5 -27.5
t-32.5 -10.5q-12 0 -21 4z" />
    <glyph glyph-name="V.ss02" horiz-adv-x="1019" 
d="M151 678q43 22 88 22q69 0 123 -45t64 -116l83 -539l-399 372q-71 67 -58 163.5t99 142.5zM780 700q45 0 88 -22q87 -46 99.5 -142.5t-58.5 -163.5l-399 -372l83 539q11 71 65 116t122 45z" />
    <glyph glyph-name="V.ss03" 
d="M631 700q72 0 106 -64q22 -46 7 -91l-125 -386q-23 -72 -83 -115.5t-136 -43.5t-136 43.5t-83 115.5l-125 386q-15 47 7.5 90.5t68.5 58.5q18 6 36 6q38 0 69.5 -22.5t43.5 -59.5l119 -367l119 367q12 37 43 59.5t69 22.5zM631 626q-32 0 -42 -31l-125 -386
q-15 -47 -64 -47t-65 47l-125 386q-10 31 -42 31q-5 0 -13 -2q-18 -6 -26 -22.5t-3 -33.5l125 -386q16 -49 56.5 -78.5t92.5 -29.5t92 29.5t56 78.5l125 386q6 16 -2 34q-10 16 -26 22q-8 2 -14 2z" />
    <glyph glyph-name="V.ss04" horiz-adv-x="671" 
d="M50 700l282 -346v-354l-282 346v354zM621 700v-354l-282 -346v354z" />
    <glyph glyph-name="V.ss05" horiz-adv-x="1117" 
d="M515 513h-120l169 -475l169 475h-133v187h467v-187h-140l-196 -513h-335l-196 513h-150v187h465v-187z" />
    <glyph glyph-name="V.ss06" horiz-adv-x="776" 
d="M127 690q21 10 47 10q49 0 105 -35.5t107 -99.5v-565q-69 11 -144.5 83t-127.5 181q-67 141 -63.5 266t76.5 160zM602 700q26 0 47 -10q74 -35 77.5 -160t-64.5 -266q-53 -110 -127.5 -181.5t-143.5 -82.5v565q51 63 106.5 99t104.5 36z" />
    <glyph glyph-name="V.ss07" horiz-adv-x="1027" 
d="M183 615q-55 0 -94 12.5t-39 30.5q0 17 39 29.5t94 12.5t94 -12.5t39 -29.5q0 -18 -39 -30.5t-94 -12.5zM844 700q55 0 94 -12.5t39 -29.5q0 -18 -39 -30.5t-94 -12.5q-56 0 -94.5 12.5t-38.5 30.5q0 17 39 29.5t94 12.5zM224 577q55 0 94 -12.5t39 -29.5
q0 -18 -38.5 -30.5t-94.5 -12.5q-55 0 -94 12.5t-39 30.5q0 17 39 29.5t94 12.5zM669 535q0 17 39 29.5t94 12.5t94 -12.5t39 -29.5q0 -18 -38.5 -30.5t-94.5 -12.5q-55 0 -94 12.5t-39 30.5zM266 369q-56 0 -94.5 12.5t-38.5 30.5q0 17 39 29.5t94 12.5t94 -12.5t39 -29.5
q0 -18 -39 -30.5t-94 -12.5zM628 412q0 17 39 29.5t94 12.5t94 -12.5t39 -29.5q0 -18 -38.5 -30.5t-94.5 -12.5q-55 0 -94 12.5t-39 30.5zM307 246q-55 0 -94 12.5t-39 29.5q0 18 38.5 30.5t94.5 12.5q55 0 94 -12.5t39 -30.5q0 -17 -39 -29.5t-94 -12.5zM720 331
q55 0 94 -12.5t39 -30.5q0 -17 -39 -29.5t-94 -12.5t-94 12.5t-39 29.5q0 18 38.5 30.5t94.5 12.5zM348 123q-55 0 -94 12.5t-39 29.5q0 18 39 30.5t94 12.5q56 0 94.5 -12.5t38.5 -30.5q0 -17 -39 -29.5t-94 -12.5zM546 165q0 18 38.5 30.5t94.5 12.5q55 0 94 -12.5
t39 -30.5q0 -17 -39 -29.5t-94 -12.5t-94 12.5t-39 29.5zM374 42q0 18 38.5 30.5t94.5 12.5q55 0 94 -12.5t39 -30.5q0 -17 -39 -29.5t-94 -12.5t-94 12.5t-39 29.5z" />
    <glyph glyph-name="V.ss08" horiz-adv-x="664" 
d="M191 700l141 -350l141 350h141l-282 -700l-282 700h141zM468 700l-136 -337l-136 337h272z" />
    <glyph glyph-name="W.ss01" horiz-adv-x="911" 
d="M455 700q22 0 36.5 -15t14.5 -36v-524q62 38 122 120q130 181 130 404q0 21 15 36t36 15q22 0 37 -15t15 -36q0 -108 -28.5 -211t-74.5 -180t-100 -136.5t-107.5 -90.5t-95.5 -31q-21 0 -36 15t-15 36v208q-65 -116 -151.5 -187.5t-151.5 -71.5q-21 0 -36 15t-15 36v598
q0 21 15 36t36 15t36 -15t15 -36v-524q62 38 122 120q130 181 130 404q0 21 15 36t36 15z" />
    <glyph glyph-name="W.ss02" horiz-adv-x="1066" 
d="M403 223l73 -54q-16 -73 -74.5 -121t-135.5 -48q-89 0 -152.5 63.5t-63.5 152.5v484h78v-484q0 -57 40.5 -97.5t97.5 -40.5t97 40.5t40 97.5v7zM860 622q-21 0 -40 -14q-24 -21 -24 -51v-330q0 -60 -42.5 -102t-102.5 -42q-47 0 -87 29l-267 203q-50 41 -44 102
q3 45 36.5 75t78.5 30q47 0 80 -34t33 -81v-123l-77 60v63q0 15 -11.5 26t-26.5 11q-14 0 -24 -9.5t-12 -24.5q0 -21 15 -32l267 -203q19 -14 40 -14q27 0 46.5 19.5t19.5 46.5v330q0 59 42 101t101 42q18 0 33 -4l122 -29l-19 -76l-121 29q-10 2 -16 2z" />
    <glyph glyph-name="W.ss03" horiz-adv-x="992" 
d="M50 622q0 32 23 55t55 23t55.5 -23t23.5 -55v-352l105 352q12 36 41 56.5t68 20.5q44 -2 74.5 -33.5t30.5 -75.5v-320l90 301q17 58 66 93.5t110 35.5h72q32 0 55 -23t23 -55t-23 -55.5t-55 -23.5h-74q-19 0 -24 -17l-129 -429q-14 -44 -50 -70.5t-81 -26.5h-1
q-56 0 -96 40.5t-40 98.5v128l-51 -170q-14 -43 -50 -70t-81 -27h-1q-56 0 -96 40.5t-40 98.5v483zM180 622q0 21 -15 36t-37 15q-21 0 -36 -15t-15 -36v-483q0 -47 32 -79.5t78 -32.5q37 0 66 21.5t39 56.5l78 257q2 11 14 9t12 -13v-220q0 -46 32 -78.5t77 -32.5h1
q37 0 66 21.5t39 56.5l129 428q12 37 50 37h74q21 0 36 15t15 36q0 22 -15 37t-36 15h-72q-52 0 -94 -30.5t-56 -79.5l-117 -388q-4 -9 -15 -9q-11 2 -11 13v411q0 34 -24.5 58t-58.5 24q-27 0 -48.5 -16t-29.5 -42l-132 -439q-4 -9 -15 -9q-11 2 -11 13v443z" />
    <glyph glyph-name="W.ss04" horiz-adv-x="906" 
d="M253 468q0 -20 14.5 -35t34.5 -15q21 0 35.5 15t14.5 35v232h202v-232q0 -20 15 -35t35 -15t35 15t15 35v232h202v-329q0 -68 -34.5 -127t-93.5 -92l-275 -152l-274 152q-60 33 -94.5 92t-34.5 127v329h203v-232z" />
    <glyph glyph-name="W.ss05" horiz-adv-x="1150" 
d="M50 700h117v-467h-117v467zM517 700h116v-467h-116v467zM983 700h117v-467h-117v467zM167 233h116v-116h-116v116zM400 117v116h117v-116h-117zM633 233h117v-116h-117v116zM867 117v116h116v-116h-116zM283 0v117h117v-117h-117zM750 0v117h117v-117h-117z" />
    <glyph glyph-name="W.ss06" horiz-adv-x="652" 
d="M50 700l137 -346l137 346v-354l-137 -346l-137 346v354zM465 355l137 345v-354l-137 -346l-137 346v354z" />
    <glyph glyph-name="W.ss07" horiz-adv-x="804" 
d="M645 279q48 166 40 315q-1 14 8.5 24.5t23.5 11.5t24.5 -8.5t11.5 -23.5q9 -163 -43 -339q-62 -207 -140 -207q-26 0 -44 20q-54 61 -52 244q-53 -173 -97 -254q-33 -62 -70 -62q-7 0 -10 1q-28 6 -42 38t-23 95q-8 57 -18 217q-10 163 -19 217q-5 36 -13 56
q-15 -19 -37 -68q-7 -17 -14.5 -35t-10.5 -28l-4 -10q-7 -23 -32 -23q-3 0 -11 2q-13 4 -19 17t-2 26q0 1 4.5 13.5t13.5 35t18 42.5q13 28 23.5 46.5t32.5 38t46 19.5q55 -4 72 -122q10 -58 20 -223q7 -125 16 -193q5 -50 13 -78q4 6 6 10q48 89 119 332q16 56 26 86
q18 56 46 56q2 0 4 -0.5t3 -0.5q27 -3 33 -44q1 -15 0 -43q-2 -38 -2 -57q-7 -86 -3 -175t29 -124q38 38 73 155z" />
    <glyph glyph-name="W.ss08" horiz-adv-x="1068" 
d="M348 0q-42 0 -75.5 25t-44.5 65l-178 610h362l117 -401l-60 -209q-12 -40 -45.5 -65t-75.5 -25zM840 90q-12 -40 -45.5 -65t-75.5 -25q-41 0 -74.5 25t-45.5 65l-178 610h597z" />
    <glyph glyph-name="X.ss01" horiz-adv-x="605" 
d="M50 700h505l-253 -350zM50 0l252 350l253 -350h-505z" />
    <glyph glyph-name="X.ss02" horiz-adv-x="681" 
d="M336 355h-145l-141 345h145zM346 355l141 345h144l-141 -345h-144zM336 345l-141 -345h-145l141 345h145zM346 345h144l141 -345h-144z" />
    <glyph glyph-name="X.ss03" 
d="M73 568q-23 22 -23 54t23 55q22 23 55 23q32 0 54 -23q23 -23 23 -55t-23 -54q-23 -23 -54 -23q-32 0 -55 23zM618 568q-23 22 -23 54t23 55q22 23 55 23q32 0 54 -23q23 -23 23 -55t-23 -54q-23 -23 -54 -23q-32 0 -55 23zM209 431q-23 23 -23 55t23 55t55 23t55 -23
t23 -55t-23 -55q-22 -22 -55 -22t-55 22zM481 431q-23 23 -23 55t23 55q25 23 55 23q32 0 55 -23t23 -55t-23 -55q-22 -22 -55 -22q-32 0 -55 22zM209 159q-23 23 -23 55t23 55t55 23t55 -23t23 -55t-23 -55q-22 -22 -55 -22t-55 22zM481 159q-23 23 -23 55t23 55
q25 23 55 23q32 0 55 -23t23 -55t-23 -55q-22 -22 -55 -22q-32 0 -55 22zM73 23q-23 22 -23 54.5t23 54.5q22 23 55 23q32 0 54 -23q23 -23 23 -54.5t-23 -54.5t-54 -23q-32 0 -55 23zM618 23q-23 22 -23 54t23 55q22 23 55 23q32 0 54 -23q23 -23 23 -55t-23 -54
q-23 -23 -54 -23q-32 0 -55 23z" />
    <glyph glyph-name="X.ss04" horiz-adv-x="821" 
d="M771 700l-455 -700h-266l455 700h266zM121 700h112l133 -205l-56 -86zM508 286l187 -286h-113l-130 200z" />
    <glyph glyph-name="X.ss05" horiz-adv-x="806" 
d="M50 593q0 44 31.5 75.5t75.5 31.5t75.5 -31.5t31.5 -75.5t-31.5 -75t-75.5 -31t-75.5 31t-31.5 75zM650 486q-44 0 -75.5 31.5t-31.5 75.5t31.5 75.5t75.5 31.5t75 -31.5t31 -75.5t-31 -75.5t-75 -31.5zM403 243q-44 0 -75.5 31.5t-31.5 75.5t31.5 75.5t75.5 31.5
t75.5 -31.5t31.5 -75.5t-31.5 -75.5t-75.5 -31.5zM50 107q0 44 31.5 75.5t75.5 31.5t75.5 -31.5t31.5 -75.5t-31.5 -75.5t-75.5 -31.5t-75.5 31.5t-31.5 75.5zM543 107q0 44 31.5 75.5t75.5 31.5t75 -31.5t31 -75.5t-31 -75.5t-75 -31.5t-75.5 31.5t-31.5 75.5z" />
    <glyph glyph-name="X.ss06" horiz-adv-x="670" 
d="M599 201q17 -8 20.5 -25.5t-9.5 -31.5l-1 -1q-39 -42 -90 -42q-99 0 -194 176q-18 -19 -93 -94q-69 -68 -85 -91t-14 -47q1 -17 -10 -30t-28 -15h-3q-17 0 -28.5 11t-12.5 27q-4 53 22 92t101 112q90 90 111 113q-18 34 -44 75.5t-69 88t-71 46.5q-3 -1 -10 -1
q-30 0 -38 29q-6 16 2 31.5t24 20.5q12 3 21 3q114 0 244 -228q51 61 92.5 125t57.5 95.5t16 34.5q11 25 39 25q9 0 16 -3q16 -7 22 -23t-1 -32q-84 -168 -201 -301q21 -41 41 -72t34 -47t27 -25.5t20 -11.5t12 -2q14 0 26.5 13t17.5 23z" />
    <glyph glyph-name="X.ss07" horiz-adv-x="789" 
d="M321 700v-282q0 -28 21 -47t52 -19h-73q-112 0 -191.5 72t-79.5 174v102h271zM395 352q31 0 52 19t21 47v282h271v-102q0 -102 -79.5 -174t-191.5 -72h-73zM321 0h-271v102q0 102 79.5 174t191.5 72h73q-31 0 -52 -19t-21 -47v-282zM468 348q112 0 191.5 -72t79.5 -174
v-102h-271v282q0 28 -21 47t-52 19h73z" />
    <glyph glyph-name="X.ss08" horiz-adv-x="823" 
d="M63 700h249l20 -30h-249zM491 670l20 30h249l-20 -30h-249zM366 618h-249l-20 30h249zM457 618l20 30h249l-20 -30h-249zM400 567h-250l-19 30h249zM423 567l20 30h249l-20 -30h-249zM638 515h-454l-20 30h494zM604 464h-386l-20 30h426zM571 412h-319l-20 30h358z
M537 361h-251l-20 30h290zM569 309h-316l20 30h276zM603 258h-383l19 30h344zM579 274h-336l-2 -3h340zM637 206h-451l19 30h412zM613 223h-404l-2 -3h408zM401 155h-249l20 30h479l20 -30h-249l-11 15zM173 168h224l2 3h-224zM649 168l-2 3h-224l2 -3h224zM367 103h-249
l20 30h249zM685 133l20 -30h-249l-20 30h249zM365 120h-224l-2 -3h224zM459 117h224l-2 3h-224zM333 52h-249l20 30h249zM470 82h249l20 -30h-250zM106 65h223l2 3h-223zM717 65l-2 3h-224l2 -3h224zM50 0l20 30h249l-20 -30h-249zM753 30l20 -30h-250l-20 30h250zM72 14
h223l2 3h-223zM525 17l2 -3h224l-2 3h-224z" />
    <glyph glyph-name="X.ss09" horiz-adv-x="728" 
d="M357 354q-131 4 -217.5 108t-89.5 238q132 -5 218 -108t89 -238zM678 700q-5 -136 -90.5 -239t-217.5 -107q5 137 90 239t218 107zM50 0q3 134 89.5 238t217.5 108q-3 -135 -89 -238t-218 -108zM678 0q-132 5 -217.5 107.5t-90.5 238.5q131 -4 218 -108t90 -238z" />
    <glyph glyph-name="Y.ss01" horiz-adv-x="516" 
d="M50 633q0 28 19.5 47.5t47.5 19.5t47.5 -19.5t19.5 -47.5t-19.5 -47.5t-47.5 -19.5t-47.5 19.5t-19.5 47.5zM466 633q0 -28 -19.5 -47.5t-47.5 -19.5t-47.5 19.5t-19.5 47.5t19.5 47.5t47.5 19.5t47.5 -19.5t19.5 -47.5zM117 558q28 0 47.5 -19t19.5 -47t-19.5 -47.5
t-47.5 -19.5t-47.5 19.5t-19.5 47.5t19.5 47t47.5 19zM399 558q28 0 47.5 -19t19.5 -47t-19.5 -47.5t-47.5 -19.5t-47.5 19.5t-19.5 47.5t19.5 47t47.5 19zM50 350q0 28 19.5 47.5t47.5 19.5t47.5 -19.5t19.5 -47.5t-19.5 -47.5t-47.5 -19.5t-47.5 19.5t-19.5 47.5zM191 350
q0 28 19.5 47.5t47.5 19.5t47.5 -19.5t19.5 -47.5t-19.5 -47.5t-47.5 -19.5t-47.5 19.5t-19.5 47.5zM399 417q28 0 47.5 -19.5t19.5 -47.5t-19.5 -47.5t-47.5 -19.5t-47.5 19.5t-19.5 47.5t19.5 47.5t47.5 19.5zM258 142q-28 0 -47.5 19.5t-19.5 46.5q0 28 19.5 47.5
t47.5 19.5t47.5 -19.5t19.5 -47.5q0 -27 -19.5 -46.5t-47.5 -19.5zM191 67q0 28 19.5 47.5t47.5 19.5t47.5 -19.5t19.5 -47.5t-19.5 -47.5t-47.5 -19.5t-47.5 19.5t-19.5 47.5z" />
    <glyph glyph-name="Y.ss02" horiz-adv-x="578" 
d="M421 475q0 -77 -54 -131.5t-131 -54.5t-131.5 54.5t-54.5 131.5v225h371v-225zM155 239q0 -55 39.5 -94.5t94.5 -39.5q56 0 95.5 39t39.5 95v461h104v-461q0 -99 -70 -169t-169 -70t-169 70t-70 169h105z" />
    <glyph glyph-name="Y.ss03" horiz-adv-x="567" 
d="M50 700h117v-233h-117v233zM517 700v-233h-117v233h117zM167 467h233v-117h-233v117zM517 117h-117v233h117v-233zM50 233h117v-116h-117v116zM167 0v117h233v-117h-233z" />
    <glyph glyph-name="Y.ss04" horiz-adv-x="744" 
d="M292 629h-210l-32 71h210zM483 700h211l-32 -71h-210zM348 503h-210l-32 71h210zM427 574h211l-32 -71h-211zM550 377h-356l-32 72h420zM494 252h-244l-32 71h308zM438 126h-211l32 71h210zM382 0h-211l32 71h210z" />
    <glyph glyph-name="Y.ss05" horiz-adv-x="694" 
d="M225 450q32 -52 66 -79t56 -27t55.5 26.5t66.5 79.5q49 80 60 197q2 23 18.5 38t38.5 15h1q25 0 42 -18.5t15 -43.5q-5 -57 -21.5 -115t-44.5 -113.5t-73 -97.5t-100 -57v-197q0 -24 -17 -41t-41 -17t-41 17t-17 41v197q-55 15 -100 57t-73 97.5t-44.5 113.5t-21.5 115
q-2 25 15 43.5t42 18.5h1q23 0 39.5 -15.5t17.5 -37.5q11 -114 60 -197z" />
    <glyph glyph-name="Y.ss06" horiz-adv-x="639" 
d="M320 366l-270 334h539zM320 237q-17 0 -29 12t-12 29t12 29t29 12q16 0 28 -12t12 -29t-11.5 -29t-28.5 -12zM279 159q0 17 12 29t29 12t28.5 -12t11.5 -29t-12 -28.5t-28 -11.5q-17 0 -29 11.5t-12 28.5zM360 41q0 -17 -11.5 -29t-28.5 -12t-29 12t-12 29t12 28.5
t29 11.5q16 0 28 -11.5t12 -28.5z" />
    <glyph glyph-name="Y.ss07" horiz-adv-x="597" 
d="M75 700v-281h-25v281h25zM547 700v-281h-25v281h25zM93 365v281h25v-281h-25zM479 646h25v-281h-25v281zM161 591v-281h-25v281h25zM461 591v-281h-25v281h25zM180 537h25v-281h-25v281zM418 537v-281h-26v281h26zM223 0v482h25v-482h-25zM349 0v482h25v-482h-25z
M291 336v-336h-25v336h25zM306 0v336h25v-336h-25z" />
    <glyph glyph-name="Y.ss08" horiz-adv-x="733" 
d="M218 700q0 -62 44 -105.5t105 -43.5t104.5 43.5t43.5 105.5h168v-383q0 -131 -92.5 -224t-223.5 -93t-224 93t-93 224h168q0 -61 44 -105t105 -44t104.5 43.5t43.5 105.5v103q-71 -37 -148 -37q-131 0 -224 93t-93 224h168z" />
    <glyph glyph-name="Z.ss01" horiz-adv-x="912" 
d="M50 700h812l-631 -615l631 295v-380h-812l631 615l-631 -295v380z" />
    <glyph glyph-name="Z.ss02" horiz-adv-x="802" 
d="M752 700v-168l-702 -366v166l387 202h-387v166h702zM752 0h-702v166h702v-166z" />
    <glyph glyph-name="Z.ss03" horiz-adv-x="929" 
d="M744 700q44 0 79.5 -25.5t48.5 -66.5q14 -41 1.5 -82.5t-46.5 -68.5l-244 -186h161q56 0 95.5 -40t39.5 -96t-39.5 -95.5t-95.5 -39.5h-559q-43 0 -78.5 25.5t-49.5 66.5t-1 82.5t47 68.5l243 186h-161q-56 0 -95.5 40t-39.5 96q0 55 40 95t95 40h559zM812 588
q-7 22 -26 35t-42 13h-559q-29 0 -50 -21t-21 -50q0 -30 21 -51t50 -21h348l-391 -301q-19 -14 -25.5 -36t0.5 -44t26 -35t42 -13h559q30 0 51 21t21 50q0 30 -21 51t-51 21h-347l391 301q18 14 24.5 36t-0.5 44z" />
    <glyph glyph-name="Z.ss04" horiz-adv-x="965" 
d="M915 700l-627 -700h-238l628 700h237zM424 422h-306v278h555zM840 278v-278h-548l250 278h298z" />
    <glyph glyph-name="Z.ss05" horiz-adv-x="928" 
d="M216 700h165v-100h-165v100zM712 700v-100h-165v100h165zM50 500v100h166v-100h-166zM381 600h166v-100h-166v100zM878 500h-166v100h166v-100zM712 500v-100h-165v100h165zM547 400v-100h-166v100h166zM216 300h165v-100h-165v100zM50 200h166v-100h-166v100zM547 100
h-166v100h166v-100zM878 200v-100h-166v100h166zM216 0v100h165v-100h-165zM712 0h-165v100h165v-100z" />
    <glyph glyph-name="Z.ss06" horiz-adv-x="889" 
d="M839 637h-789v63h789v-63zM839 558h-789v62h789v-62zM839 478h-789v63h789v-63zM365 398l122 63h349l-122 -63h-349zM331 381h349l-122 -62h-349zM176 302h348l-122 -63h-349zM839 159h-789v63h789v-63zM839 80h-789v62h789v-62zM839 0h-789v63h789v-63z" />
    <glyph glyph-name="uni0411.ss01" horiz-adv-x="698" 
d="M50 531v169h554v-169h-554zM225 443q0 -35 -25.5 -60.5t-61.5 -25.5q-35 0 -60.5 25.5t-25.5 60.5t25.5 60.5t60.5 25.5q36 0 61.5 -25.5t25.5 -60.5zM50 0v355h420q74 0 126 -52t52 -126t-52 -125.5t-126 -51.5h-420z" />
    <glyph glyph-name="uni0411.ss06" horiz-adv-x="676" 
d="M626 700v-57h-576v57h576zM50 639h301v-639h-301v639zM355 0v462h10q95 0 163 -67.5t68 -163.5t-68 -163.5t-163 -67.5h-10z" />
    <glyph glyph-name="uni0411.ss05" horiz-adv-x="587" 
d="M75 700v-700h-25v700h25zM101 0v700h25v-700h-25zM153 700h25v-212h-25v212zM204 700h25v-212h-25v212zM256 700h25v-212h-25v212zM332 700v-212h-25v212h25zM383 488h-25v212h25v-212zM410 488v212h25v-212h-25zM461 488v212h25v-212h-25zM512 488v212h25v-212h-25z
M153 248v110h25v-110h-25zM204 358h25v-110h-25v110zM256 358h25v-110h-25v110zM307 358h25v-110h-25v110zM358 358h25v-110h-25v110zM435 358v-358h-25v358h25zM486 358v-358h-25v358h25zM512 303h25v-248h-25v248zM153 110h25v-110h-25v110zM204 110h25v-110h-25v110z
M256 110h25v-110h-25v110zM332 110v-110h-25v110h25zM383 0h-25v110h25v-110z" />
    <glyph glyph-name="uni0411.ss04" horiz-adv-x="728" 
d="M331 643q-115 0 -198 8.5t-83 19.5q0 12 82.5 20.5t198.5 8.5t198.5 -8.5t82.5 -20.5q0 -11 -83 -19.5t-198 -8.5zM165 574q-47 0 -81 8.5t-34 19.5q0 12 34 20.5t81 8.5q48 0 81.5 -8.5t33.5 -20.5q0 -11 -33.5 -19.5t-81.5 -8.5zM165 502q-47 0 -81 8.5t-34 20.5
q0 11 34 19.5t81 8.5q48 0 81.5 -8t33.5 -20t-33.5 -20.5t-81.5 -8.5zM50 459q0 12 34 20.5t81 8.5q48 0 81.5 -8.5t33.5 -20.5t-33.5 -20.5t-81.5 -8.5q-47 0 -81 8.5t-34 20.5zM50 387q0 12 82.5 20.5t198.5 8.5t198.5 -8.5t82.5 -20.5t-82 -20t-199 -8t-199 8t-82 20z
M50 316q0 11 34 19.5t81 8.5q48 0 81.5 -8.5t33.5 -19.5q0 -12 -33.5 -20.5t-81.5 -8.5q-47 0 -81 8.5t-34 20.5zM404 316q0 11 34 19.5t81 8.5q48 0 81.5 -8.5t33.5 -19.5q0 -12 -33.5 -20.5t-81.5 -8.5q-47 0 -81 8.5t-34 20.5zM50 244q0 12 33.5 20t81.5 8t81.5 -8
t33.5 -20t-33.5 -20.5t-81.5 -8.5q-47 0 -81 8.5t-34 20.5zM448 244q0 12 33.5 20t81.5 8t81.5 -8t33.5 -20t-33.5 -20.5t-81.5 -8.5q-47 0 -81 8.5t-34 20.5zM165 143q-47 0 -81 8.5t-34 20.5t34 20.5t81 8.5q48 0 81.5 -8.5t33.5 -20.5t-33.5 -20.5t-81.5 -8.5zM448 172
q0 12 33.5 20.5t81.5 8.5t81.5 -8.5t33.5 -20.5t-33.5 -20.5t-81.5 -8.5t-81.5 8.5t-33.5 20.5zM165 72q-47 0 -81 8.5t-34 19.5q0 12 34 20.5t81 8.5q48 0 81.5 -8.5t33.5 -20.5q0 -11 -33.5 -19.5t-81.5 -8.5zM404 100q0 12 34 20.5t81 8.5q48 0 81.5 -8.5t33.5 -20.5
t-33.5 -20t-81.5 -8t-81.5 8t-33.5 20zM331 0q-116 0 -198.5 8.5t-82.5 20.5q0 11 83 19.5t198 8.5t198 -8.5t83 -19.5q0 -12 -82.5 -20.5t-198.5 -8.5z" />
    <glyph glyph-name="uni0411.ss03" horiz-adv-x="523" 
d="M334 419v-140h139v-139h-139v-140h-284v700h423v-140h-283v-141h144zM334 279h-144v-139h144v139z" />
    <glyph glyph-name="uni0411.ss02" horiz-adv-x="665" 
d="M161 56q0 -23 -16 -39.5t-39 -16.5t-39.5 16.5t-16.5 39.5v588q0 23 16.5 39.5t39.5 16.5t39 -16.5t16 -39.5v-588zM195 595q0 43 30.5 74t74.5 31h172q44 0 74.5 -31t30.5 -74t-30.5 -74t-74.5 -31h-172q-44 0 -74.5 31t-30.5 74zM615 223q0 -92 -65.5 -157.5
t-157.5 -65.5h-93q-43 0 -73.5 30.5t-30.5 74.5q0 43 30.5 73.5t73.5 30.5h87q8 0 13 5.5t5 12.5t-5 12.5t-13 5.5h-87q-43 0 -73.5 30.5t-30.5 74.5q0 43 30.5 73.5t73.5 30.5h93q92 0 157.5 -65t65.5 -157v-9z" />
    <glyph glyph-name="uni041B.ss01" horiz-adv-x="1016" 
d="M728 500q-26 0 -35 -24l-115 -304q-30 -78 -96.5 -123t-150.5 -45q-68 0 -127 33.5t-94 91.5l-60 99l171 104l60 -99q18 -29 58 -29q39 3 52 39l115 303q26 69 87.5 111.5t134.5 42.5h30v-200h-30zM966 700v-700h-200v700h200z" />
    <glyph glyph-name="uni041B.ss02" horiz-adv-x="894" 
d="M312 700h264l-262 -700h-264zM449 349l133 351l262 -700h-264z" />
    <glyph glyph-name="uni041B.ss03" horiz-adv-x="638" 
d="M453 81q18 0 32 -10l35 -23v522q0 25 -18 43t-44 18q-20 0 -36.5 -12.5t-21.5 -31.5l-171 -587h-179v39q0 25 17.5 42t41.5 17q12 0 24 -6l44 -21l156 534q12 42 47 68.5t78 26.5q54 0 92 -38t38 -92v-570h-194v23q0 25 17.5 41.5t41.5 16.5z" />
    <glyph glyph-name="uni041B.ss04" horiz-adv-x="561" 
d="M280 700l231 -434h-461zM235 262v-262h-185v262h185zM326 0v262h185v-262h-185z" />
    <glyph glyph-name="uni041B.ss05" horiz-adv-x="591" 
d="M195 586q-23 9 -33 31t-2 45q7 17 22.5 27.5t32.5 10.5q12 0 21 -4q23 -8 33 -30.5t1 -44.5q-15 -39 -55 -39q-6 0 -20 4zM321 621q-9 22 1 44.5t33 30.5q9 4 21 4q17 0 32.5 -10.5t22.5 -27.5q8 -23 -2 -45t-33 -31q-14 -4 -20 -4q-40 0 -55 39zM163 440q-12 0 -21 4
q-23 8 -33 30t-2 45q15 38 55 38q12 0 21 -4q22 -8 32 -30t2 -45q-15 -38 -54 -38zM408 553q9 4 21 4q40 0 55 -38q8 -23 -2 -45t-32 -30q-9 -4 -21 -4q-40 0 -55 38q-8 23 2 45t32 30zM109 297q-12 0 -21 4q-23 8 -33 30.5t-1 44.5q15 39 55 39q6 0 20 -4q23 -9 33 -31
t2 -45q-15 -38 -55 -38zM482 415q40 0 55 -39q9 -22 -1 -44.5t-33 -30.5q-9 -4 -21 -4q-40 0 -55 38q-8 23 2 45t33 31q14 4 20 4zM54 228q15 38 54 38q12 0 21 -4q23 -8 33 -30t2 -45q-15 -39 -55 -39q-7 0 -21 4q-23 9 -33 31t-1 45zM427 187q-8 23 2 45t33 30q9 4 21 4
q39 0 54 -38q9 -23 -1 -45t-33 -31q-14 -4 -21 -4q-40 0 -55 39zM164 38q-15 -38 -55 -38q-12 0 -21 4q-23 8 -33 30.5t-1 44.5q15 39 55 39q6 0 20 -4q23 -9 33 -31t2 -45zM482 118q40 0 55 -39q9 -22 -1 -44.5t-33 -30.5q-9 -4 -21 -4q-40 0 -55 38q-8 23 2 45t33 31
q14 4 20 4z" />
    <glyph glyph-name="uni041B.ss06" horiz-adv-x="802" 
d="M50 0l350 700v-196l-252 -504h-98zM752 0h-98l-252 504v196zM400 291l-145 -291h-98l243 486v-195zM402 291v195l243 -486h-97zM400 77l-38 -77h-98l136 273v-196zM402 77v196l137 -273h-98z" />
    <glyph glyph-name="uni041F.ss01" horiz-adv-x="903" 
d="M725 700q53 0 90.5 -38t37.5 -91t-37.5 -90.5t-90.5 -37.5h-546q-53 0 -91 37.5t-38 90.5t38 91t91 38h546zM320 0q-28 0 -47.5 19.5t-19.5 47.5v372h134v-372q0 -28 -19.5 -47.5t-47.5 -19.5zM584 0q-28 0 -48 19.5t-20 47.5v372h135v-372q0 -28 -19.5 -47.5
t-47.5 -19.5z" />
    <glyph glyph-name="uni041F.ss02" horiz-adv-x="842" 
d="M249 600q0 -41 -29 -70t-70 -29t-70.5 29t-29.5 70t29.5 70.5t70.5 29.5t70 -29.5t29 -70.5zM421 501q-41 0 -70 29t-29 70t29 70.5t70 29.5t70.5 -29.5t29.5 -70.5t-29.5 -70t-70.5 -29zM792 601q0 -41 -29 -70.5t-70 -29.5t-70.5 29t-29.5 70t29.5 70.5t70.5 29.5
t70 -29t29 -70zM249 350q0 -41 -29 -70.5t-70 -29.5t-70.5 29.5t-29.5 70.5t29.5 70.5t70.5 29.5t70 -29.5t29 -70.5zM693 450q41 0 70 -29.5t29 -70.5t-29 -70.5t-70 -29.5t-70.5 29.5t-29.5 70.5t29.5 70.5t70.5 29.5zM249 100q0 -41 -29 -70.5t-70 -29.5t-70.5 29.5
t-29.5 70.5t29.5 70t70.5 29q40 0 69.5 -29.5t29.5 -69.5zM693 199q41 0 70 -29.5t29 -70.5t-29 -70t-70 -29t-70.5 29t-29.5 70t29.5 70.5t70.5 29.5z" />
    <glyph glyph-name="uni041F.ss03" horiz-adv-x="683" 
d="M627 700q-31 -90 -109.5 -147t-176.5 -57t-176 57t-109 147h571zM271 110q0 -46 -32.5 -78t-78.5 -32t-78 32.5t-32 78.5v575q29 -72 87.5 -122.5t133.5 -69.5v-384zM522 0q-46 0 -78 32t-32 78v384q75 19 133.5 69.5t87.5 122.5v-576q0 -46 -32.5 -78t-78.5 -32z" />
    <glyph glyph-name="uni041F.ss04" horiz-adv-x="804" 
d="M754 669q0 -13 -9 -22t-22 -9h-642q-13 0 -22 9t-9 22t9 22t22 9h642q13 0 22 -9t9 -22zM723 609q13 0 22 -9t9 -22t-9 -22t-22 -9h-642q-13 0 -22 9t-9 22t9 22t22 9h642zM50 487q0 13 9 22t22 9h255q13 0 22 -9t9 -22t-9 -22t-22 -9h-255q-13 0 -22 9t-9 22zM754 487
q0 -13 -9 -22t-22 -9h-255q-13 0 -22 9t-9 22t9 22t22 9h255q13 0 22 -9t9 -22zM50 396q0 13 9 22t22 9h255q13 0 22 -9t9 -22t-9 -22t-22 -9h-255q-13 0 -22 9t-9 22zM754 396q0 -13 -9 -22t-22 -9h-255q-13 0 -22 9t-9 22t9 22t22 9h255q13 0 22 -9t9 -22zM81 273
q-13 0 -22 9t-9 22t9 22t22 9h255q13 0 22 -9t9 -22t-9 -22t-22 -9h-255zM723 335q13 0 22 -9t9 -22t-9 -22t-22 -9h-255q-13 0 -22 9t-9 22t9 22t22 9h255zM50 213q0 13 9 22t22 9h255q13 0 22 -9t9 -22t-9 -22t-22 -9h-255q-13 0 -22 9t-9 22zM723 244q13 0 22 -9t9 -22
t-9 -22t-22 -9h-255q-13 0 -22 9t-9 22t9 22t22 9h255zM81 91q-13 0 -22 9t-9 22t9 22t22 9h255q13 0 22 -9t9 -22t-9 -22t-22 -9h-255zM723 153q13 0 22 -9t9 -22t-9 -22t-22 -9h-255q-13 0 -22 9t-9 22t9 22t22 9h255zM50 31q0 13 9 22t22 9h255q13 0 22 -9t9 -22t-9 -22
t-22 -9h-255q-13 0 -22 9t-9 22zM723 62q13 0 22 -9t9 -22t-9 -22t-22 -9h-255q-13 0 -22 9t-9 22t9 22t22 9h255z" />
    <glyph glyph-name="uni041F.ss05" horiz-adv-x="668" 
d="M236 93q0 -38 -27.5 -65.5t-65.5 -27.5t-65.5 27.5t-27.5 65.5v514q0 38 27.5 65.5t65.5 27.5q39 0 66 -27.5t27 -65.5v-514zM241 607q0 38 27 65.5t66 27.5q38 0 65.5 -27.5t27.5 -65.5t-27.5 -65.5t-65.5 -27.5t-65.5 27t-27.5 66zM525 0q-39 0 -66 27.5t-27 65.5v514
q0 38 27 65.5t66 27.5q38 0 65.5 -27.5t27.5 -65.5v-514q0 -38 -27.5 -65.5t-65.5 -27.5z" />
    <glyph glyph-name="uni042A.ss01" horiz-adv-x="640" 
d="M109 582q-25 0 -42 17t-17 42t17 42t42 17t42 -17t17 -42t-17 -42t-42 -17zM258 582q-25 0 -42 17t-17 42t17 42t42 17q24 0 41.5 -17t17.5 -42t-17.5 -42t-41.5 -17zM258 436q-25 0 -42 17.5t-17 41.5q0 25 17 42t42 17q24 0 41.5 -17t17.5 -42q0 -24 -17.5 -41.5
t-41.5 -17.5zM199 350q0 25 17 42t42 17q24 0 41.5 -17t17.5 -42t-17.5 -42t-41.5 -17q-25 0 -42 17t-17 42zM403 291q-25 0 -42 17t-17 42t17 42t42 17q24 0 41.5 -17t17.5 -42t-17.5 -42t-41.5 -17zM472 277q0 25 17 42t42 17t42 -17t17 -42q0 -24 -17 -41.5t-42 -17.5
t-42 17.5t-17 41.5zM258 145q-25 0 -42 17.5t-17 41.5q0 25 17 42t42 17q24 0 41.5 -17t17.5 -42q0 -24 -17.5 -41.5t-41.5 -17.5zM403 145q-25 0 -42 17.5t-17 41.5q0 25 17 42t42 17q24 0 41.5 -17t17.5 -42q0 -24 -17.5 -41.5t-41.5 -17.5zM472 132q0 24 17 41.5t42 17.5
t42 -17.5t17 -41.5q0 -25 -17 -42t-42 -17t-42 17t-17 42zM199 59q0 25 17 42t42 17q24 0 41.5 -17t17.5 -42t-17.5 -42t-41.5 -17q-25 0 -42 17t-17 42zM344 59q0 25 17 42t42 17q24 0 41.5 -17t17.5 -42t-17.5 -42t-41.5 -17q-25 0 -42 17t-17 42z" />
    <glyph glyph-name="uni042A.ss02" horiz-adv-x="746" 
d="M50 528v172l385 -1v-699h-67v528h-318zM204 0v514h67v-514h-67zM286 514h67v-514h-67v514zM554 480q59 0 100.5 -41.5t41.5 -100.5v-196q0 -59 -41.5 -100.5t-100.5 -41.5h-105v480h105z" />
    <glyph glyph-name="uni042A.ss03" horiz-adv-x="782" 
d="M462 127q31 0 55.5 20t31.5 50h3v-15q0 -75 -53.5 -128.5t-129.5 -53.5q-75 0 -128.5 53.5t-53.5 128.5v399h-137v119h319v-478q0 -39 27 -67t66 -28zM549 507q76 0 129.5 -53.5t53.5 -129.5v-119h-183v84q0 38 -26.5 64.5t-63.5 26.5q-28 0 -51 -15.5t-33 -41.5v54
q17 57 65 93.5t109 36.5z" />
    <glyph glyph-name="uni042A.ss04" horiz-adv-x="729" 
d="M154 0v529h71v12h-175v159h330v-700h-226zM452 173v134h-59v173h286v-480h-286v173h59z" />
    <glyph glyph-name="uni042B.ss01" horiz-adv-x="609" 
d="M50 672v28l123 -69v-29zM436 700l123 -69v-29l-123 70v28zM173 576v-28l-123 69v28zM436 645l123 -69v-28l-123 69v28zM173 521v-28l-123 69v28zM436 590l123 -69v-28l-123 69v28zM50 507v29l123 -70v-28zM436 536l123 -70v-28l-123 69v29zM173 412v-29l-123 70v28z
M436 481l123 -69v-29l-123 70v28zM173 357v-28l-123 69v28zM436 426l123 -69v-28l-123 69v28zM50 343v28l123 -69v-28zM326 274l-124 69v28l124 -69v-28zM559 302v-28l-123 69v28zM50 288v29l123 -70v-28zM436 288v29l123 -70v-28zM367 196l-123 69v28l123 -69v-28zM173 193
v-29l-123 70v28zM559 193v-29l-123 70v28zM286 187v28l123 -69v-29zM50 179v28l123 -69v-28zM436 179v28l123 -69v-28zM286 160l123 -69v-28l-123 69v28zM173 83v-28l-123 69v28zM436 124v28l123 -69v-28zM367 31l-123 70v28l123 -69v-29zM173 28v-28l-123 69v29zM325 0
l-123 69v29l123 -70v-28zM436 69v29l123 -70v-28z" />
    <glyph glyph-name="uni042B.ss02" horiz-adv-x="621" 
d="M50 0v700h92v-700h-92zM479 0v700h92v-700h-92zM168 567q117 0 200 -83t83 -200t-83 -200t-200 -83v158q52 0 88.5 36.5t36.5 88.5t-36.5 88.5t-88.5 36.5v158z" />
    <glyph glyph-name="uni042B.ss03" horiz-adv-x="653" 
d="M109 582q-25 0 -42 17t-17 42t17 42t42 17t42 -17t17 -42t-17 -42t-42 -17zM603 641q0 -25 -17.5 -42t-41.5 -17q-25 0 -42 17t-17 42t17 42t42 17q24 0 41.5 -17t17.5 -42zM50 496q0 24 17 41t42 17t42 -17t17 -41q0 -25 -17 -42t-42 -17t-42 17t-17 42zM485 495
q0 25 17 42t42 17q24 0 41.5 -17t17.5 -42q0 -24 -17.5 -41.5t-41.5 -17.5q-25 0 -42 17.5t-17 41.5zM50 350q0 25 17 42t42 17t42 -17t17 -42t-17 -42t-42 -17t-42 17t-17 42zM254 291q-25 0 -42 17t-17 42t17 42t42 17t42 -17t17 -42t-17 -42t-42 -17zM544 291
q-25 0 -42 17t-17 42t17 42t42 17q24 0 41.5 -17t17.5 -42t-17.5 -42t-41.5 -17zM441 277q0 -24 -17 -41.5t-42 -17.5q-24 0 -41.5 17.5t-17.5 41.5q0 25 17.5 42t41.5 17q25 0 42 -17t17 -42zM50 204q0 25 17 42t42 17t42 -17t17 -42q0 -24 -17 -41.5t-42 -17.5t-42 17.5
t-17 41.5zM195 204q0 25 17 42t42 17t42 -17t17 -42q0 -24 -17 -41.5t-42 -17.5t-42 17.5t-17 41.5zM544 263q24 0 41.5 -17t17.5 -42q0 -24 -17.5 -41.5t-41.5 -17.5q-25 0 -42 17.5t-17 41.5q0 25 17 42t42 17zM441 132q0 -25 -17 -42t-42 -17q-24 0 -41.5 17t-17.5 42
q0 24 17.5 41.5t41.5 17.5q25 0 42 -17.5t17 -41.5zM168 59q0 -25 -17 -42t-42 -17t-42 17t-17 42t17 42t42 17t42 -17t17 -42zM195 59q0 25 17 42t42 17t42 -17t17 -42t-17 -42t-42 -17t-42 17t-17 42zM485 59q0 25 17 42t42 17q24 0 41.5 -17t17.5 -42t-17.5 -42
t-41.5 -17q-25 0 -42 17t-17 42z" />
    <glyph glyph-name="uni042B.ss04" horiz-adv-x="840" 
d="M92 336q7 -25 26.5 -40.5t44.5 -17.5v-72q0 -38 27 -65t65 -27h49q36 0 61.5 25.5t25.5 62.5v10q0 37 -25.5 62.5t-61.5 25.5h-135q-20 0 -36 13.5t-20 34.5q-5 29 19 51l302 279q23 22 58 22q37 0 61 -25t24 -62v-482q0 -13 12 -17q2 -1 6 -1q8 0 13 6l81 103
q17 22 44 22q18 0 35 -12q18 -14 21 -37.5t-11 -41.5l-83 -106q-39 -47 -100 -47q-35 0 -66 18t-48 48q46 60 46 136v10q0 91 -63 156v154l51 46q7 8 0 17q-3 3 -8 3q-4 0 -8 -3l-186 -172q80 -4 135.5 -62t55.5 -138v-11q0 -83 -58.5 -142t-141.5 -59h-50q-84 0 -144 60
t-60 145v438q0 23 16.5 39.5t39.5 16.5q24 0 40.5 -16.5t16.5 -39.5v-186l-46 -42q-36 -33 -25 -80z" />
    <glyph glyph-name="uni042B.ss05" horiz-adv-x="725" 
d="M91 627q-15 0 -26 11t-11 26t11 25.5t26 10.5t25.5 -10.5t10.5 -25.5t-10.5 -26t-25.5 -11zM181 627q-15 0 -25.5 11t-10.5 26t10.5 25.5t25.5 10.5t26 -10.5t11 -25.5t-11 -26t-26 -11zM548 700q15 0 25.5 -10.5t10.5 -25.5t-10.5 -26t-25.5 -11t-25.5 11t-10.5 26
t10.5 25.5t25.5 10.5zM639 627q-15 0 -26 11t-11 26t11 25.5t26 10.5t25.5 -10.5t10.5 -25.5t-10.5 -26t-25.5 -11zM91 538q-15 0 -26 10.5t-11 25.5t11 25.5t26 10.5t25.5 -10.5t10.5 -25.5t-10.5 -25.5t-25.5 -10.5zM181 538q-15 0 -25.5 10.5t-10.5 25.5t10.5 25.5
t25.5 10.5t26 -10.5t11 -25.5t-11 -25.5t-26 -10.5zM584 574q0 -15 -10.5 -25.5t-25.5 -10.5t-25.5 10.5t-10.5 25.5t10.5 25.5t25.5 10.5t25.5 -10.5t10.5 -25.5zM639 538q-15 0 -26 10.5t-11 25.5t11 25.5t26 10.5t25.5 -10.5t10.5 -25.5t-10.5 -25.5t-25.5 -10.5zM91 448
q-15 0 -26 10.5t-11 25.5t11 26t26 11t25.5 -11t10.5 -26t-10.5 -25.5t-25.5 -10.5zM145 484q0 15 10.5 26t25.5 11t26 -11t11 -26t-11 -25.5t-26 -10.5t-25.5 10.5t-10.5 25.5zM548 521q15 0 25.5 -11t10.5 -26t-10.5 -25.5t-25.5 -10.5t-25.5 10.5t-10.5 25.5t10.5 26
t25.5 11zM602 484q0 15 11 26t26 11t25.5 -11t10.5 -26t-10.5 -25.5t-25.5 -10.5t-26 10.5t-11 25.5zM50 327v105h208q90 0 153.5 -63.5t63.5 -152.5t-63.5 -152.5t-153.5 -63.5h-208v105h135q46 0 78.5 32.5t32.5 78.5t-32.5 78.5t-78.5 32.5h-135zM548 358q-15 0 -25.5 11
t-10.5 26t10.5 25.5t25.5 10.5t25.5 -10.5t10.5 -25.5t-10.5 -26t-25.5 -11zM639 358q-15 0 -26 11t-11 26t11 25.5t26 10.5t25.5 -10.5t10.5 -25.5t-10.5 -26t-25.5 -11zM584 305q0 -15 -10.5 -25.5t-25.5 -10.5t-25.5 10.5t-10.5 25.5t10.5 26t25.5 11t25.5 -11t10.5 -26z
M639 269q-15 0 -26 10.5t-11 25.5t11 26t26 11t25.5 -11t10.5 -26t-10.5 -25.5t-25.5 -10.5zM91 225q-15 0 -26 10.5t-11 25.5t11 26t26 11t25.5 -11t10.5 -26t-10.5 -25.5t-25.5 -10.5zM181 225q-15 0 -25.5 10.5t-10.5 25.5t10.5 26t25.5 11t26 -11t11 -26t-11 -25.5
t-26 -10.5zM548 252q15 0 25.5 -10.5t10.5 -25.5t-10.5 -26t-25.5 -11t-25.5 11t-10.5 26t10.5 25.5t25.5 10.5zM602 216q0 15 11 25.5t26 10.5t25.5 -10.5t10.5 -25.5t-10.5 -26t-25.5 -11t-26 11t-11 26zM91 135q-15 0 -26 11t-11 26t11 25.5t26 10.5t25.5 -10.5
t10.5 -25.5t-10.5 -26t-25.5 -11zM181 135q-15 0 -25.5 11t-10.5 26t10.5 25.5t25.5 10.5t26 -10.5t11 -25.5t-11 -26t-26 -11zM584 126q0 -15 -10.5 -25.5t-25.5 -10.5t-25.5 10.5t-10.5 25.5t10.5 25.5t25.5 10.5t25.5 -10.5t10.5 -25.5zM639 90q-15 0 -26 10.5t-11 25.5
t11 25.5t26 10.5t25.5 -10.5t10.5 -25.5t-10.5 -25.5t-25.5 -10.5zM548 73q15 0 25.5 -11t10.5 -26t-10.5 -25.5t-25.5 -10.5t-25.5 10.5t-10.5 25.5t10.5 26t25.5 11zM639 0q-15 0 -26 10.5t-11 25.5t11 26t26 11t25.5 -11t10.5 -26t-10.5 -25.5t-25.5 -10.5z" />
    <glyph glyph-name="uni042C.ss01" horiz-adv-x="655" 
d="M147 700q31 0 53 -22t22 -53t-22 -53t-53 -22t-53 22t-22 53t22 53t53 22zM231 458q0 40 28 68.5t68 28.5q41 0 69 -28.5t28 -68.5t-28.5 -68.5t-68.5 -28.5t-68 28.5t-28 68.5zM508 509q24 0 41 -17t17 -41t-17 -41t-41 -17t-41 17t-17 41t17 41t41 17zM147 394
q-24 0 -40.5 17t-16.5 40q0 24 16.5 40.5t40.5 16.5q23 0 40 -16.5t17 -40.5q0 -23 -16.5 -40t-40.5 -17zM244 278q0 -40 -28 -68.5t-69 -28.5q-40 0 -68.5 28t-28.5 68q0 41 28 69t69 28q40 0 68.5 -28t28.5 -68zM605 277q0 -40 -28.5 -68t-68.5 -28t-68.5 28t-28.5 68
t28.5 68.5t68.5 28.5t68.5 -28t28.5 -69zM231 97q0 40 28 68.5t68 28.5q41 0 69 -28t28 -69t-28 -69t-69 -28q-40 0 -68 28.5t-28 68.5zM566 104q0 -24 -17 -41t-41 -17t-41 17t-17 41t17 41t41 17t41 -17t17 -41zM147 62q-17 0 -29.5 12t-12.5 30q0 17 12.5 29.5t29.5 12.5
t29.5 -12.5t12.5 -29.5q0 -18 -12.5 -30t-29.5 -12z" />
    <glyph glyph-name="uni042C.ss02" horiz-adv-x="605" 
d="M147 700v-700h-97v700h97zM358 395q82 0 139.5 -57.5t57.5 -139.5t-57.5 -140t-139.5 -58t-140 58t-58 140t58 139.5t140 57.5zM358 133q26 0 45 19t19 46q0 26 -19 45.5t-45 19.5q-27 0 -46 -19t-19 -46t19 -46t46 -19z" />
    <glyph glyph-name="uni042C.ss03" horiz-adv-x="805" 
d="M401 651q0 -20 -14.5 -34.5t-34.5 -14.5h-253q-20 0 -34.5 14.5t-14.5 34.5t14.5 34.5t34.5 14.5h253q20 0 34.5 -14.5t14.5 -34.5zM99 451q-20 0 -34.5 14.5t-14.5 34.5q0 21 14.5 35.5t34.5 14.5h253q20 0 34.5 -14.5t14.5 -35.5q0 -20 -14.5 -34.5t-34.5 -14.5h-253z
M575 399q21 0 35.5 -14.5t14.5 -34.5t-14.5 -34.5t-35.5 -14.5h-476q-20 0 -34.5 14.5t-14.5 34.5t14.5 34.5t34.5 14.5h476zM99 150q-20 0 -34.5 14.5t-14.5 35.5q0 20 14.5 34.5t34.5 14.5h253q20 0 34.5 -14.5t14.5 -34.5q0 -21 -14.5 -35.5t-34.5 -14.5h-253zM706 249
q20 0 34.5 -14.5t14.5 -34.5q0 -21 -14.5 -35.5t-34.5 -14.5h-253q-20 0 -34.5 14.5t-14.5 35.5q0 20 14.5 34.5t34.5 14.5h253zM625 49q0 -20 -14.5 -34.5t-35.5 -14.5h-476q-20 0 -34.5 14.5t-14.5 34.5t14.5 34.5t34.5 14.5h476q20 0 34.5 -14.5t15.5 -34.5z" />
    <glyph glyph-name="uni042C.ss04" horiz-adv-x="590" 
d="M50 642q0 24 17 41t41 17t41 -17t17 -41t-17 -41t-41 -17t-41 17t-17 41zM108 452q-24 0 -41 17t-17 41t17 41t41 17t41 -17t17 -41t-17 -41t-41 -17zM295 490q24 0 41 -17t17 -41t-17 -41t-41 -17t-41 17t-17 41t17 41t41 17zM108 319q-24 0 -41 17t-17 41t17 41t41 17
t41 -17t17 -41t-17 -41t-41 -17zM386 418q17 17 41 17q25 0 41 -17q17 -16 17 -40.5t-17 -41.5q-16 -16 -41 -16q-24 0 -41 16q-16 17 -16 41.5t16 40.5zM108 187q-24 0 -41 17t-17 41t17 41t41 17t41 -17t17 -41t-17 -41t-41 -17zM295 187q-24 0 -41 17t-17 41t17 41t41 17
t41 -17t17 -41t-17 -41t-41 -17zM482 303q24 0 41 -17t17 -41t-17 -41t-41 -17t-41 17t-17 41t17 41t41 17zM163 171q24 0 41 -17t17 -41.5t-17 -40.5q-17 -17 -41 -17q-22 0 -41 17q-17 16 -17 40.5t17 41.5t41 17zM386 72q-16 16 -16 40.5t16 41.5q19 17 41 17
q24 0 41 -17t17 -41.5t-17 -40.5q-17 -17 -41 -17q-22 0 -41 17zM353 58q0 -24 -17 -41t-41 -17t-41 17t-17 41t17 41t41 17t41 -17t17 -41z" />
    <glyph glyph-name="uni042C.ss05" horiz-adv-x="644" 
d="M292 700v-700h-242v700h242zM452 481q58 0 100 -41.5t42 -100.5v-197q0 -58 -42 -100t-100 -42h-143v481h143z" />
    <glyph glyph-name="uni042C.ss06" horiz-adv-x="564" 
d="M202 232q0 -33 23.5 -56.5t56.5 -23.5t56.5 23.5t23.5 56.5t-23.5 56.5t-56.5 23.5t-58 -25v169q30 8 58 8q96 0 164 -68t68 -164t-68 -164t-164 -68t-164 68t-68 164v468h151v-468h1z" />
    <glyph glyph-name="uni042D.ss01" horiz-adv-x="696" 
d="M435 492q-57 58 -139 58t-139 -58l-107 106q102 102 246 102t246 -102zM544 596q102 -102 102 -246t-102 -246l-245 246zM157 208q58 -58 139 -58t139 58l106 -106q-101 -102 -245 -102t-246 102z" />
    <glyph glyph-name="uni042D.ss02" horiz-adv-x="607" 
d="M249 700q133 -5 218 -107t90 -239q-132 4 -217.5 107t-90.5 239zM224 285q-98 0 -174 64q61 66 157 66t174 -64q-63 -66 -157 -66zM557 346q-5 -137 -90 -239t-218 -107q5 136 90.5 239t217.5 107z" />
    <glyph glyph-name="uni042D.ss03" horiz-adv-x="723" 
d="M236 613q0 36 25.5 61.5t61.5 25.5t61.5 -25.5t25.5 -61.5t-25.5 -61.5t-61.5 -25.5t-61.5 25.5t-25.5 61.5zM75 475q-25 25 -25 61t25 62q25 25 62 25q36 0 61 -25q26 -26 26 -62t-26 -61q-25 -25 -61 -25q-37 0 -62 25zM448 475q-26 25 -26 61t26 62q25 25 61 25
t61 -25q26 -26 26 -62t-26 -61q-25 -25 -61 -25t-61 25zM323 263q-36 0 -61.5 25.5t-25.5 61.5t25.5 61.5t61.5 25.5t61.5 -25.5t25.5 -61.5t-25.5 -61.5t-61.5 -25.5zM499 350q0 36 25.5 61.5t61.5 25.5t61.5 -25.5t25.5 -61.5t-25.5 -61.5t-61.5 -25.5t-61.5 25.5
t-25.5 61.5zM75 102q-25 26 -25 62t25 61q26 26 62 26q35 0 61 -26q26 -25 26 -61t-26 -62q-27 -25 -61 -25q-35 0 -62 25zM448 102q-26 26 -26 62t26 61q26 26 61 26t61 -26q26 -25 26 -61t-26 -62q-27 -25 -61 -25t-61 25zM323 0q-36 0 -61.5 25.5t-25.5 61.5t25.5 61.5
t61.5 25.5t61.5 -25.5t25.5 -61.5t-25.5 -61.5t-61.5 -25.5z" />
    <glyph glyph-name="uni042D.ss04" 
d="M279 678q58 22 121 22t121 -22h-242zM179 621q22 19 44 31h354q22 -12 44 -31h-442zM650 594q11 -10 27 -30h-554q16 20 27 30h500zM330 537q-28 -10 -54 -30h-189q5 10 17 30h226zM524 507q-26 20 -54 30h226q12 -20 17 -30h-189zM573 449q-8 15 -21 31h173
q8 -20 11 -31h-163zM53 392q2 22 5 31h684q3 -10 5 -31h-694zM750 365v-30h-700v30h700zM58 277q-3 9 -5 31h694q-1 -12 -5 -31h-684zM552 220q13 16 21 31h163q-3 -11 -11 -31h-173zM276 193q26 -20 54 -30h-226q-12 20 -17 30h189zM470 163q28 10 54 30h189
q-5 -10 -17 -30h-226zM677 136q-16 -20 -27 -30h-500q-11 10 -27 30h554zM223 48q-22 12 -44 31h442q-22 -19 -44 -31h-354zM521 22q-58 -22 -121 -22t-121 22h242z" />
    <glyph glyph-name="uni042D.ss05" horiz-adv-x="599" 
d="M349 700v-100h-199v100h199zM150 599v-99h-100v99h100zM349 500v99h100v-99h-100zM549 499v-100h-100v100h100zM150 399h299v-100h-299v100zM549 200h-100v99h100v-99zM50 200h100v-100h-100v100zM349 100v100h100v-100h-100zM150 0v100h199v-100h-199z" />
    <glyph glyph-name="uni042D.ss06" horiz-adv-x="598" 
d="M105 490q-23 0 -39 15t-16 37v107q0 21 16 36t39 15t39 -15t16 -36v-107q0 -22 -16 -37t-39 -15zM177 649q0 21 16 36t39 15q22 0 38 -15t16 -36v-107q0 -22 -15.5 -37t-38.5 -15t-39 15t-16 37v107zM303 649q0 21 16 36t39 15t39 -15t16 -36v-107q0 -22 -16 -37t-39 -15
t-39 15t-16 37v107zM438 553q0 21 16 36t39 15t39 -15t16 -36v-406q0 -21 -16 -36t-39 -15t-39 15t-16 36v406zM177 403q0 22 16 37t39 15t38.5 -15t15.5 -37v-106q0 -22 -15.5 -37t-38.5 -15t-39 15t-16 37v106zM358 245q-23 0 -39 15t-16 37v106q0 22 16 37t39 15t39 -15
t16 -37v-106q0 -22 -16 -37t-39 -15zM105 209q23 0 39 -15t16 -36v-107q0 -21 -16 -36t-39 -15t-39 15t-16 36v107q0 21 16 36t39 15zM177 158q0 21 16 36t39 15q22 0 38 -15t16 -36v-107q0 -21 -16 -36t-38 -15q-23 0 -39 15t-16 36v107zM303 158q0 21 16 36t39 15t39 -15
t16 -36v-107q0 -21 -16 -36t-39 -15t-39 15t-16 36v107z" />
    <glyph glyph-name="uni042D.ss07" horiz-adv-x="562" 
d="M50 662q0 16 11 27t27 11t27 -11t11 -27t-11 -27t-27 -11t-27 11t-11 27zM228 624q-16 0 -27.5 11t-11.5 27t11.5 27t27.5 11t27 -11t11 -27t-11 -27t-27 -11zM346 544q-16 0 -27.5 11t-11.5 27t11.5 27t27.5 11t27 -11t11 -27t-11 -27t-27 -11zM512 504q0 -16 -11 -27
t-27 -11t-27.5 11t-11.5 27t11.5 27.5t27.5 11.5t27 -11.5t11 -27.5zM307 426q0 16 11.5 27.5t27.5 11.5t27 -11.5t11 -27.5t-11 -27t-27 -11t-27.5 11t-11.5 27zM88 387q16 0 27 -11.5t11 -27.5t-11 -27t-27 -11t-27 11t-11 27t11 27.5t27 11.5zM223 310q-16 0 -27 11
t-11 27t11 27.5t27 11.5t27 -11.5t11 -27.5t-11 -27t-27 -11zM474 310q-16 0 -27.5 11t-11.5 27t11.5 27.5t27.5 11.5t27 -11.5t11 -27.5t-11 -27t-27 -11zM346 232q-16 0 -27.5 11t-11.5 27t11.5 27.5t27.5 11.5t27 -11.5t11 -27.5t-11 -27t-27 -11zM474 154
q-16 0 -27.5 11.5t-11.5 27.5t11.5 27t27.5 11t27 -11t11 -27t-11 -27.5t-27 -11.5zM346 76q-16 0 -27.5 11.5t-11.5 27.5t11.5 27t27.5 11t27 -11t11 -27t-11 -27.5t-27 -11.5zM50 38q0 16 11 27t27 11t27 -11t11 -27t-11 -27t-27 -11t-27 11t-11 27zM228 0q-16 0 -27.5 11
t-11.5 27t11.5 27t27.5 11t27 -11t11 -27t-11 -27t-27 -11z" />
    <glyph glyph-name="uni042D.ss08" horiz-adv-x="753" 
d="M50 525q47 80 127.5 127.5t175.5 47.5t175.5 -47.5t127.5 -127.5h-606zM703 350q0 -87 -41 -164l-612 164l612 165q41 -79 41 -165zM353 0q-95 0 -175.5 47.5t-127.5 127.5h606q-47 -80 -127.5 -127.5t-175.5 -47.5z" />
    <glyph glyph-name="uni042D.ss09" horiz-adv-x="729" 
d="M50 700h279l140 -140h-419v140zM469 560l210 -210l-210 -210v140h-419v140h419v140zM50 0v140h419l-140 -140h-279z" />
    <glyph glyph-name="uni042D.ss10" horiz-adv-x="660" 
d="M190 700h280v-140h-280v140zM50 420v140h140v-140h-140zM470 560h140v-420h-140v140h-140v140h140v140zM50 280h140v-140h-140v140zM190 0v140h280v-140h-280z" />
    <glyph glyph-name="uni042D.ss11" horiz-adv-x="791" 
d="M168 700h220v-150h-141zM741 350q0 -144 -101.5 -246t-245.5 -104v150q82 1 139.5 60t57.5 140q0 82 -57 140.5t-140 59.5v150q144 -2 245.5 -104t101.5 -246zM309 430h260q16 -40 16 -80q0 -38 -13 -70h-184zM388 0q-123 1 -217 78.5t-121 194.5h157q23 -54 72 -88
t109 -35v-150z" />
    <glyph glyph-name="uni042D.ss12" horiz-adv-x="780" 
d="M641 350q0 108 -76.5 184.5t-184.5 76.5q-75 0 -137.5 -39.5t-95.5 -104.5h-97q36 103 126.5 168t203.5 65q145 0 247.5 -102.5t102.5 -247.5t-102.5 -247.5t-247.5 -102.5q-113 0 -203.5 65t-126.5 168h97q33 -65 95.5 -104.5t137.5 -39.5q108 0 184.5 76.5t76.5 184.5z
M312 331q-62 32 -122 32v92q61 0 116 -31q40 -20 74 -20t74 20q55 31 116 31v-92q-60 0 -122 -32q-36 -19 -68 -19q-35 0 -68 19zM496 225q-60 -30 -116 -30t-116 30q-37 20 -74 20v92q58 0 110 -29q40 -21 80 -21t80 21q52 29 110 29v-92q-37 0 -74 -20z" />
    <glyph glyph-name="uni042D.ss13" horiz-adv-x="753" 
d="M151 233q31 -53 85 -84.5t117 -31.5q97 0 165 68t68 165t-68 165t-165 68q-63 0 -117 -31.5t-85 -84.5l-101 58q46 80 126.5 127.5t176.5 47.5q146 0 248 -102.5t102 -247.5t-102 -247.5t-248 -102.5q-96 0 -176.5 47.5t-126.5 127.5zM352 233q-48 1 -82 35t-34 82t34 82
t82 35v-234zM469 334q-5 -42 -38.5 -71t-75.5 -30v234q42 -1 75.5 -30t38.5 -71v-32z" />
    <glyph glyph-name="uni042D.ss14" horiz-adv-x="702" 
d="M328 400l-278 300h278l324 -350l-324 -350h-278l286 309h-286v91h278z" />
    <glyph glyph-name="uni042E.ss01" horiz-adv-x="895" 
d="M295 425q0 114 80.5 194.5t194.5 80.5t194.5 -80.5t80.5 -194.5h-550zM50 699h235v-274h-235v274zM845 283h-795v134h795v-134zM50 275h235v-275h-235v275zM570 0q-114 0 -194.5 80.5t-80.5 194.5h550q0 -114 -80.5 -194.5t-194.5 -80.5z" />
    <glyph glyph-name="uni042E.ss02" horiz-adv-x="1024" 
d="M50 663v37h243v-37h-243zM620 700h123v-37h-123v37zM293 617v-37h-243v37h243zM502 580v37h359v-37h-359zM50 497v37h243v-37h-243zM974 534v-37h-584v37h584zM974 451v-36h-924v36h924zM50 368h924v-36h-924v36zM50 249v36h924v-36h-924zM293 203v-37h-243v37h243z
M974 203v-37h-584v37h584zM293 120v-37h-243v37h243zM502 83v37h359v-37h-359zM50 37h243v-37h-243v37zM620 37h123v-37h-123v37z" />
    <glyph glyph-name="uni042E.ss03" horiz-adv-x="996" 
d="M50 700h86v-700h-86v700zM153 0v700h86v-700h-86zM429 700v-296h97v86q0 87 61.5 148.5t148.5 61.5t148.5 -61.5t61.5 -148.5v-280q0 -87 -61.5 -148.5t-148.5 -61.5t-148.5 61.5t-61.5 148.5v89h-97v-299h-172v700h172z" />
    <glyph glyph-name="uni042E.ss04" horiz-adv-x="806" 
d="M50 700h178v-286l-178 -64v350zM504 153q35 0 60 25t25 60v224q0 35 -25 60t-60 25q-29 0 -51.5 -18t-29.5 -45l-170 -61v26q0 104 73.5 177.5t177.5 73.5t178 -73.5t74 -177.5v-198q0 -104 -74 -177.5t-178 -73.5q-97 0 -168.5 65t-81.5 161l166 59v-47q0 -35 24.5 -60
t59.5 -25zM420 468v-167l-370 -133v167zM228 0h-178v153l178 64v-217z" />
    <glyph glyph-name="uni042E.ss05" horiz-adv-x="822" 
d="M530 700v-138h-44v138h44zM50 656v43h138v-43h-138zM395 676l69 -120l-38 -22l-69 120zM621 676l38 -22l-69 -120l-38 22zM188 616v-43h-138v43h138zM290 587l120 -69l-22 -38l-120 69zM606 518l120 69l22 -38l-120 -69zM188 537v-44h-138v44h138zM50 414v44h138v-44
h-138zM382 458v-44h-138v44h138zM634 458h138v-44h-138v44zM50 328v44h332v-44h-332zM772 372v-44h-138v44h138zM382 286v-44h-138v44h138zM634 286h138v-44h-138v44zM50 242v43h138v-43h-138zM388 220l22 -38l-120 -69l-22 38zM628 220l120 -69l-22 -38l-120 69zM50 159v43
h138v-43h-138zM357 46l69 120l38 -22l-69 -120zM552 144l38 22l69 -120l-38 -21zM486 138h44v-138h-44v138zM50 123h138v-44h-138v44zM50 44h138v-44h-138v44z" />
    <glyph glyph-name="uni042F.ss01" horiz-adv-x="713" 
d="M154 652q0 20 13.5 34t33.5 14t34 -14t14 -34t-14 -34t-34 -14q-19 0 -33 14t-14 34zM257 652q0 20 14 34t34 14t34 -14t14 -34t-14.5 -34t-33.5 -14q-20 0 -34 14t-14 34zM361 652q0 20 13.5 34t33.5 14t34 -14t14 -34t-14 -34t-34 -14q-19 0 -33 14t-14 34zM464 652
q0 20 14 34t34 14t34 -14t14 -34t-14 -34t-34 -14t-34 14t-14 34zM615 604q-19 0 -33.5 14t-14.5 34t14 34t34 14t34 -14t14 -34t-14 -34t-34 -14zM50 551q0 20 14 34t34 14t34 -14t14 -34q0 -19 -14 -33t-34 -14t-34 13.5t-14 33.5zM201 504q-19 0 -33 14t-14 33
q0 20 13.5 34t33.5 14t34 -14t14 -34t-14 -33.5t-34 -13.5zM512 504q-20 0 -34 13.5t-14 33.5t14 34t34 14t34 -14t14 -34q0 -19 -14 -33t-34 -14zM615 504q-20 0 -34 14t-14 33q0 20 14 34t34 14t34 -14t14 -34t-14 -33.5t-34 -13.5zM98 403q-20 0 -34 14t-14 34t14 34
t34 14t34 -14.5t14 -33.5q0 -20 -14 -34t-34 -14zM154 451q0 20 14 34t33 14q20 0 34 -14t14 -34t-14 -34t-34 -14t-33.5 14t-13.5 34zM464 451q0 20 14 34t34 14t34 -14.5t14 -33.5q0 -20 -14 -34t-34 -14t-34 14t-14 34zM615 403q-20 0 -34 14t-14 34q0 19 14.5 33.5
t33.5 14.5q20 0 34 -14t14 -34t-14 -34t-34 -14zM98 302q-20 0 -34 14t-14 34t14 34t34 14t34 -14t14 -34t-14 -34t-34 -14zM154 350q0 20 14 34t33 14q20 0 34 -14t14 -34t-14 -34t-34 -14q-19 0 -33 14t-14 34zM305 302q-20 0 -34 14t-14 34t14 34t34 14q19 0 33.5 -14
t14.5 -34t-14.5 -34t-33.5 -14zM456 350q0 -20 -14 -34t-34 -14q-19 0 -33 14t-14 34t14 34t33 14q20 0 34 -14t14 -34zM512 302q-20 0 -34 14t-14 34t14 34t34 14t34 -14t14 -34t-14 -34t-34 -14zM615 302q-19 0 -33.5 14t-14.5 34t14.5 34t33.5 14q20 0 34 -14t14 -34
t-14 -34t-34 -14zM201 201q-19 0 -33 14t-14 34t13.5 34t33.5 14t34 -14t14 -34t-14 -34t-34 -14zM257 249q0 20 14 34t34 14t34 -14t14 -34q0 -19 -14.5 -33.5t-33.5 -14.5q-20 0 -34 14t-14 34zM512 201q-20 0 -34 14t-14 34t14 34t34 14t34 -14t14 -34q0 -19 -14 -33.5
t-34 -14.5zM567 249q0 20 14 34t34 14t34 -14t14 -34t-14 -34t-34 -14q-19 0 -33.5 14.5t-14.5 33.5zM98 101q-20 0 -34 14t-14 34t14 33.5t34 13.5t34 -14t14 -33q0 -20 -14 -34t-34 -14zM154 149q0 19 14 33t33 14q20 0 34 -13.5t14 -33.5t-14 -34t-34 -14t-33.5 14
t-13.5 34zM305 101q-20 0 -34 14t-14 34t14 33.5t34 13.5t34 -14t14 -33q0 -20 -14 -34t-34 -14zM464 149q0 20 14 33.5t34 13.5t34 -14t14 -33q0 -20 -14 -34t-34 -14t-34 14t-14 34zM615 101q-20 0 -34 14t-14 34q0 19 14 33t34 14t34 -13.5t14 -33.5t-14 -34t-34 -14z
M98 0q-20 0 -34 14t-14 34t14 34t34 14t34 -14t14 -34t-14 -34t-34 -14zM201 0q-20 0 -33.5 14t-13.5 34t14 34t33 14q20 0 34 -14t14 -34t-14 -34t-34 -14zM464 48q0 20 14 34t34 14t34 -14t14 -34t-14 -34t-34 -14t-34 14t-14 34zM615 0q-20 0 -34 14t-14 34t14.5 34
t33.5 14q20 0 34 -14t14 -34t-14 -34t-34 -14z" />
    <glyph glyph-name="uni042F.ss02" horiz-adv-x="637" 
d="M254 700q73 0 124.5 -51.5t51.5 -124.5t-51.5 -124t-124.5 -51t-124.5 51t-51.5 124t51.5 124.5t124.5 51.5zM587 680v-680h-152v680h152zM184 524q0 -29 20.5 -49.5t49.5 -20.5t49.5 20.5t20.5 49.5t-20.5 50t-49.5 21t-49.5 -21t-20.5 -50zM227 0h-177l204 343h177z
" />
    <glyph glyph-name="uni042F.ss03" horiz-adv-x="611" 
d="M241 318q-79 0 -135 56t-56 135t56 135t135 56h229q38 0 64.5 -26.5t26.5 -64.5v-575q0 -14 -10 -24t-24 -10t-24 10t-10 24v575q0 9 -6.5 15.5t-16.5 6.5h-229q-51 0 -86.5 -35.5t-35.5 -86.5q0 -50 35.5 -86t86.5 -36h134q28 0 49.5 -15.5t30.5 -41.5t1 -51.5
t-30 -42.5l-291 -228q-8 -7 -21 -7q-18 0 -27 13q-9 11 -7.5 25t12.5 23l292 228q9 7 6 18q-2 10 -15 10h-134z" />
    <glyph glyph-name="uni042F.ss04" horiz-adv-x="590" 
d="M193 217q-59 0 -101 42t-42 101v197q0 59 42 101t101 42h198v-483h-198zM394 700h68v-700h-68v700zM540 700v-700h-68v700h68zM217 215h80l-141 -215h-80zM391 215l-141 -215h-80l141 215h80z" />
    <glyph glyph-name="uni042F.ss05" horiz-adv-x="641" 
d="M107 486q0 -65 46 -111t111 -46h8l-15 -57q-86 3 -146.5 65t-60.5 149q0 88 63 151t151 63h215v-144q-13 3 -28 3h-4q-17 0 -26 -2v86h-157q-64 0 -110.5 -46.5t-46.5 -110.5zM286 128q-15 -56 -60.5 -91t-102.5 -35h-71v58h71q38 0 68 23t40 60l80 305q9 34 33 60t57 37
l3 1q10 2 16 4q16 2 27 2h4q58 0 99 -41t41 -99q0 -48 -29.5 -86t-75.5 -49v60q48 24 48 75q0 46 -38 69v1q-2 0 -2 1l-7 3q-2 2 -4 2l-4 2q-15 5 -28 5h-4q-10 0 -26 -4q-43 -15 -54 -58l-25 -91l-22 -87zM421 483q13 5 26 5h4q15 0 28 -6v-482h-58v483zM414 329v-57h-83
l16 57h67z" />
    <glyph glyph-name="uni042F.ss06" horiz-adv-x="708" 
d="M658 439l-381 -439h-227l607 700zM305 302q-80 0 -136 58.5t-56 140.5t56.5 140t135.5 58h345zM481 0v228l177 203v-431h-177z" />
    <glyph glyph-name="uni042F.ss07" horiz-adv-x="882" 
d="M316 700h237v-31h-237v31zM575 700h257v-31h-257v31zM236 639h316v-31h-316v31zM832 639v-31h-257v31h257zM552 578v-31h-397v31h397zM832 578v-31h-257v31h257zM155 518h397v-31h-397v31zM575 487v31h257v-31h-257zM553 457v-31h-397v31h397zM575 426v31h257v-31h-257z
M236 396h317v-31h-317v31zM575 365v31h257v-31h-257zM273 304l23 31h257l-23 -31h-257zM575 335h257v-31h-257v31zM229 243l22 31h257l-23 -31h-256zM575 274h257v-31h-257v31zM184 182l23 32h256l-22 -32h-257zM575 214h257v-32h-257v32zM139 122l23 31h257l-23 -31h-257z
M575 122v31h257v-31h-257zM117 92h257l-23 -31h-256zM575 92h257v-31h-257v31zM50 0l23 31h257l-23 -31h-257zM575 31h257v-31h-257v31z" />
    <glyph glyph-name="uni042F.ss08" horiz-adv-x="585" 
d="M129 0q-28 0 -48 16q-26 20 -30.5 52.5t15.5 58.5l96 126q-51 33 -81.5 87t-30.5 117q0 101 71 172t172 71q100 0 171 -71.5t71 -171.5v-378q0 -33 -23 -56t-56 -23t-56 23t-23 56v378q0 35 -25 60t-60 25t-59.5 -25t-24.5 -60t25 -59.5t59 -24.5q50 0 71 -44t-8 -83
l-163 -215q-25 -31 -63 -31z" />
    <glyph glyph-name="uni042F.ss09" horiz-adv-x="700" 
d="M547 700l-245 -229h-252l245 229h252zM650 700v-700h-97v700h97zM295 235l-245 230h252l245 -230h-252zM295 229h252l-245 -229h-252z" />
    <glyph glyph-name="uni042F.ss10" horiz-adv-x="629" 
d="M516 0q-26 0 -44 18t-18 44v513h-178q-14 0 -19 -12q-8 -10 1 -23l110 -154q11 -16 11 -36t-11 -36l-205 -286q-18 -26 -51 -26q-21 0 -36 11q-21 15 -25 40.5t11 46.5l178 250l-84 118q-24 34 -26.5 74.5t16.5 77.5t54 58.5t76 21.5h240q26 0 44.5 -18t18.5 -44v-576
q0 -26 -18.5 -44t-44.5 -18z" />
    <glyph glyph-name="uni042F.ss11" horiz-adv-x="586" 
d="M236 700v-350h-1l-114 -350h-71l114 352v348h72zM136 700v-333h-72v333h72zM264 700h72v-350h-1l-114 -350h-71l114 352v348zM364 0v700h72v-700h-72zM464 0v700h72v-700h-72z" />
    <glyph glyph-name="uni0404.ss01" horiz-adv-x="753" 
d="M400 0q-146 0 -248 102.5t-102 247.5t102 247.5t248 102.5q96 0 176.5 -47.5t126.5 -127.5l-101 -58q-30 53 -84 84.5t-118 31.5q-97 0 -165 -68t-68 -165q0 -96 68 -164.5t165 -68.5q63 0 117 31.5t85 84.5l101 -58q-46 -80 -126.5 -127.5t-176.5 -47.5zM284 366
q5 42 38.5 71t75.5 30v-234q-42 1 -75.5 30t-38.5 71v32zM402 467q47 -2 81 -36t34 -81t-34 -81t-81 -36v234z" />
    <glyph glyph-name="uni0404.ss02" horiz-adv-x="780" 
d="M633 467q-33 65 -95.5 104.5t-137.5 39.5q-108 0 -184.5 -76.5t-76.5 -184.5t76.5 -184.5t184.5 -76.5q75 0 137.5 39.5t95.5 104.5h97q-36 -103 -126.5 -168t-203.5 -65q-145 0 -247.5 102.5t-102.5 247.5t102.5 247.5t247.5 102.5q113 0 203.5 -65t126.5 -168h-97z
M400 404q34 0 74 20q55 31 116 31v-92q-60 0 -122 -32q-33 -19 -68 -19q-32 0 -68 19q-62 32 -122 32v92q61 0 116 -31q40 -20 74 -20zM400 195q-56 0 -116 30q-37 20 -74 20v92q58 0 110 -29q40 -21 80 -21t80 21q52 29 110 29v-92q-37 0 -74 -20q-60 -30 -116 -30z" />
    <glyph glyph-name="uni0404.ss03" horiz-adv-x="791" 
d="M50 350q0 144 101.5 246t245.5 104v-150q-82 -1 -139.5 -60t-57.5 -140t58 -140t139 -60v-150q-144 2 -245.5 104t-101.5 246zM403 700h220l-78 -150h-142v150zM219 280q-13 36 -13 70q0 41 17 80h259l-78 -150h-185zM741 273q-27 -117 -121 -194.5t-217 -78.5v150
q61 1 110 35t72 88h156z" />
    <glyph glyph-name="uni0404.ss04" horiz-adv-x="660" 
d="M190 700h280v-140h-280v140zM50 140v420h140v-140h140v-140h-140v-140h-140zM610 420h-140v140h140v-140zM610 280v-140h-140v140h140zM470 0h-280v140h280v-140z" />
    <glyph glyph-name="uni0404.ss05" horiz-adv-x="729" 
d="M679 700v-140h-419l140 140h279zM50 350l210 210v-140h419v-140h-419v-140zM679 0h-279l-140 140h419v-140z" />
    <glyph glyph-name="uni0404.ss06" horiz-adv-x="753" 
d="M400 700q95 0 175.5 -47.5t127.5 -127.5h-606q47 80 127.5 127.5t175.5 47.5zM703 350l-612 -164q-41 77 -41 164q0 86 41 165zM703 175q-47 -80 -127.5 -127.5t-175.5 -47.5t-175.5 47.5t-127.5 127.5h606z" />
    <glyph glyph-name="uni0404.ss07" horiz-adv-x="562" 
d="M296 662q0 16 11 27t27 11t27 -11t12 -27q0 -16 -11.5 -27t-27.5 -11t-27 11t-11 27zM474 700q16 0 27 -11t11 -27t-11 -27t-27 -11t-27.5 11t-11.5 27t11.5 27t27.5 11zM178 582q0 16 11 27t27 11t27 -11t11 -27t-11 -27t-27 -11t-27 11t-11 27zM88 466q-16 0 -27 11
t-11 27t11 27.5t27 11.5t27 -11.5t11 -27.5t-11 -27t-27 -11zM254 426q0 -16 -11 -27t-27 -11t-27 11t-11 27t11 27.5t27 11.5t27 -11.5t11 -27.5zM88 310q-16 0 -27 11t-11 27t11 27.5t27 11.5t27 -11.5t11 -27.5t-11 -27t-27 -11zM377 348q0 -16 -11 -27t-27 -11t-27 11
t-11 27t11 27.5t27 11.5t27 -11.5t11 -27.5zM435 348q0 16 11.5 27.5t27.5 11.5t27 -11.5t11 -27.5t-11 -27t-27 -11t-27.5 11t-11.5 27zM216 232q-16 0 -27 11t-11 27t11 27.5t27 11.5t27 -11.5t11 -27.5t-11 -27t-27 -11zM126 193q0 -16 -11 -27.5t-27 -11.5t-27 11.5
t-11 27.5t11 27t27 11t27 -11t11 -27zM216 76q-16 0 -27 11.5t-11 27.5t11 27t27 11t27 -11t11 -27t-11 -27.5t-27 -11.5zM296 38q0 16 11 27t27 11t27 -11t12 -27q0 -16 -11.5 -27t-27.5 -11t-27 11t-11 27zM512 38q0 -16 -11 -27t-27 -11t-27.5 11t-11.5 27t11.5 27
t27.5 11t27 -11t11 -27z" />
    <glyph glyph-name="uni0407.ss01" horiz-adv-x="499" 
d="M310 700q58 0 98.5 -41t40.5 -98q0 -53 -34.5 -92t-85.5 -46v-423h-158v423q-51 7 -86 46t-35 92q0 57 41 98t98 41q31 0 61 -14q28 14 60 14zM213 660q-12 3 -24 3q-42 0 -72 -30t-30 -72q0 -43 30 -73t72 -30q12 0 24 3q-42 40 -42 100q0 59 42 99zM287 660
q42 -42 42 -99q0 -56 -42 -100q11 -3 23 -3q43 0 73 30t30 73q0 42 -30 72t-73 30q-12 0 -23 -3zM250 478q42 32 42 83q0 50 -42 82q-42 -29 -42 -82q0 -52 42 -83zM292 423q-22 3 -42 12q-20 -9 -42 -12v-386h84v386z" />
    <glyph glyph-name="uni0407.ss02" horiz-adv-x="604" 
d="M290 580q0 -50 -35 -85t-85 -35t-85 35t-35 85t35 85t85 35t85 -35t35 -85zM434 460q-50 0 -85 35t-35 85t35 85t85 35t85 -35t35 -85t-35 -85t-85 -35zM290 0h-120v413h120v-413zM434 413v-413h-120v413h120z" />
    <glyph glyph-name="uni0407.ss03" horiz-adv-x="633" 
d="M225 655h-175v45h175v-45zM577 655h-174v45h174v-45zM225 561h-175v45h175v-45zM579 561h-178v45h178v-45zM583 374h-531v45h531v-45zM492 281h-349v45h349v-45zM234 187v45h167v-45h-167zM490 94h-346v45h346v-45zM583 0h-531v45h531v-45z" />
    <glyph glyph-name="uni0407.ss04" horiz-adv-x="450" 
d="M138 525q-37 0 -62.5 25.5t-25.5 61.5q0 37 25.5 62.5t62.5 25.5q36 0 61.5 -25.5t25.5 -62.5q0 -36 -25.5 -61.5t-61.5 -25.5zM313 525q-37 0 -62.5 25.5t-25.5 61.5q0 37 25.5 62.5t62.5 25.5q36 0 61.5 -25.5t25.5 -62.5q0 -36 -25.5 -61.5t-61.5 -25.5zM50 411v57
h350v-57h-91v-354h91v-57h-350v57h91v354h-91z" />
    <glyph glyph-name="uni0407.ss05" horiz-adv-x="609" 
d="M281 638q0 26 18.5 44t43.5 18t43 -18t18 -44t-18 -44t-43 -18t-43.5 18t-18.5 44zM436 638q0 26 18 44t43 18q26 0 44 -18t18 -44t-18.5 -44t-43.5 -18t-43 18t-18 44zM430 523q18 -21 13.5 -48.5t-30.5 -53.5q-18 -18 -54 -52q-3 -10 -48 -203l71 68q12 12 29 12
q18 0 30 -13q12 -12 11.5 -29t-12.5 -29l-170 -163q-12 -12 -28 -12q-10 0 -20 5q-26 15 -21 45q2 7 9.5 41t19 85.5t21.5 95.5q-45 -39 -133 -113q-12 -9 -27 -9q-19 0 -31 15q-11 13 -9.5 30t14.5 28q154 129 220 190q14 53 21 69q26 63 75 63q31 0 49 -22z" />
    <glyph glyph-name="uni0407.ss06" horiz-adv-x="511" 
d="M153 522l-103 178h206zM256 700h205l-103 -178zM153 419v83h205v-83h-205zM153 314v83h205v-83h-205zM153 209v84h205v-84h-205zM153 105v83h205v-83h-205zM153 0v83h205v-83h-205z" />
    <glyph glyph-name="uni0413.ss01" horiz-adv-x="565" 
d="M191 700q115 0 185 -91q58 -76 46 -171t-88 -154v-1q-21 -16 -24.5 -42.5t12.5 -47.5q20 -25 52 -25q22 0 39 13l102 -133q-63 -48 -141 -48q-115 0 -185 91q-58 76 -46 171t88 154v1q21 16 24.5 42.5t-12.5 47.5q-20 25 -51 25q-23 0 -40 -13l-102 133q63 48 141 48z
" />
    <glyph glyph-name="uni0413.ss02" horiz-adv-x="504" 
d="M130 700v-700h-80v700h80zM454 700v-299l-320 299h320z" />
    <glyph glyph-name="uni0413.ss03" horiz-adv-x="479" 
d="M240 641q-13 0 -21.5 8.5t-8.5 21.5q0 12 8.5 20.5t21.5 8.5q12 0 20.5 -8.5t8.5 -20.5q0 -13 -8.5 -21.5t-20.5 -8.5zM134 634q-6 11 -3 22.5t14 18.5q7 4 14 4q18 0 26 -15q6 -11 3 -22.5t-14 -17.5q-8 -5 -15 -5q-17 0 -25 15zM345 634q-8 -15 -25 -15q-7 0 -15 5
q-11 6 -14 17.5t3 22.5q8 15 26 15q8 0 15 -4q11 -7 14 -18.5t-4 -22.5zM86 565q-11 6 -14 17.5t3 22.5q10 15 27 15q7 0 14 -4q11 -6 14 -17.5t-4 -22.5q-8 -15 -26 -15q-7 0 -14 4zM379 561q-18 0 -26 15q-6 11 -3 22.5t14 17.5q7 4 14 4q18 0 26 -15q6 -11 3 -22.5
t-14 -17.5q-7 -4 -14 -4zM50 510q0 13 8.5 21.5t20.5 8.5q13 0 21.5 -8.5t8.5 -21.5q0 -12 -8.5 -20.5t-21.5 -8.5q-12 0 -20.5 8.5t-8.5 20.5zM371 510q0 13 8.5 21.5t20.5 8.5t20.5 -8.5t8.5 -21.5q0 -12 -8.5 -20.5t-20.5 -8.5t-20.5 8.5t-8.5 20.5zM353 445q8 15 26 15
q7 0 14 -4q10 -6 13.5 -18.5t-2.5 -22.5q-8 -15 -25 -15q-7 0 -15 5q-11 6 -14 17.5t3 22.5zM305 397q7 4 14 4q18 0 26 -15q7 -11 4 -22.5t-14 -17.5q-7 -4 -15 -4q-18 0 -26 15q-6 11 -3 22.5t14 17.5zM210 350q0 12 8.5 20.5t21.5 8.5q12 0 20.5 -8.5t8.5 -20.5
t-8.5 -20.5t-20.5 -8.5q-13 0 -21.5 8.5t-8.5 20.5zM134 314q-6 11 -3 22.5t14 17.5q7 4 14 4q18 0 26 -15q6 -11 3 -22.5t-14 -17.5q-7 -4 -14 -4q-18 0 -26 15zM86 244q-10 6 -13.5 18.5t2.5 22.5q10 15 26 15q7 0 15 -5q11 -6 14 -17.5t-4 -22.5q-8 -15 -26 -15
q-7 0 -14 4zM50 190q0 12 8.5 20.5t20.5 8.5q13 0 21.5 -8.5t8.5 -20.5q0 -13 -8.5 -21.5t-21.5 -8.5q-12 0 -20.5 8.5t-8.5 21.5zM400 160q-12 0 -20.5 8.5t-8.5 21.5q0 12 8.5 20.5t20.5 8.5t20.5 -8.5t8.5 -20.5q0 -13 -8.5 -21.5t-20.5 -8.5zM75 95q-6 11 -3 22.5
t14 17.5q7 4 14 4q18 0 26 -15q7 -11 4 -22.5t-14 -17.5q-7 -4 -14 -4q-17 0 -27 15zM364 84q-11 6 -14 17.5t3 22.5q8 15 26 15q7 0 14 -4q11 -6 14 -17.5t-3 -22.5q-8 -15 -26 -15q-7 0 -14 4zM145 25q-11 7 -14 18.5t3 22.5q8 15 25 15q7 0 15 -5q11 -6 14 -17.5
t-3 -22.5q-8 -15 -26 -15q-7 0 -14 4zM335 25q-7 -4 -15 -4q-18 0 -26 15q-6 11 -3 22.5t14 17.5q8 5 15 5q17 0 25 -15q7 -11 4 -22.5t-14 -18.5zM210 29q0 13 8.5 21.5t21.5 8.5q12 0 20.5 -8.5t8.5 -21.5q0 -12 -8.5 -20.5t-20.5 -8.5q-13 0 -21.5 8.5t-8.5 20.5z" />
    <glyph glyph-name="uni0413.ss04" horiz-adv-x="513" 
d="M50 0v700h50v-700h-50zM191 700v-700h-50v700h50zM231 700h50v-178h-50v178zM372 700v-178h-50v178h50zM412 522v178h51v-178h-51z" />
    <glyph glyph-name="uni0413.ss05" horiz-adv-x="640" 
d="M300 125q0 -52 -36.5 -88.5t-88.5 -36.5t-88.5 36.5t-36.5 88.5v277q0 124 87 211t211 87h117q52 0 88.5 -36.5t36.5 -88.5t-36.5 -88.5t-88.5 -36.5h-117q-20 0 -34 -14t-14 -34v-277zM348 680q-115 0 -196.5 -81.5t-81.5 -196.5v-277q0 -43 31 -74t74 -31t74 31t31 74
v277q0 28 20 48t48 20h117q43 0 74 31t31 74t-31 74t-74 31h-117zM224 125q0 -20 -14.5 -34.5t-34.5 -14.5t-34.5 14.5t-14.5 34.5v277q0 91 65 156t157 65h117q20 0 34.5 -14t14.5 -34t-14.5 -34.5t-34.5 -14.5h-117q-52 0 -88 -36t-36 -88v-277z" />
    <glyph glyph-name="uni0414.ss01" 
d="M330 700h139v-139h-139v139zM328 286h-139v275h139v-275zM471 286v275h139v-275h-139zM750 144h-699v138h699v-138zM189 139v-139h-139v139h139zM749 139v-139h-139v139h139z" />
    <glyph glyph-name="uni0414.ss02" horiz-adv-x="684" 
d="M206 595q-21 7 -31 26.5t-3 40.5q12 38 51 38q9 0 16 -3q22 -7 32 -26.5t3 -40.5q-12 -38 -51 -38q-8 0 -17 3zM288 646q0 22 16 38t38 16t38 -16t16 -38t-16 -38t-38 -16t-38 16t-16 38zM461 592q-23 0 -38.5 16t-15.5 38t15.5 38t38.5 16q22 0 38 -16t16 -38t-16 -38
t-38 -16zM342 674q-11 0 -19.5 -8.5t-8.5 -19.5t8.5 -19t19.5 -8t19 8t8 19t-8 19.5t-19 8.5zM461 674q-11 0 -19.5 -8.5t-8.5 -19.5t8.5 -19t19.5 -8t19 8t8 19t-8 19.5t-19 8.5zM215 620q3 -1 9 -1q19 0 25 19q4 11 -1.5 21t-16.5 13q-3 1 -9 1q-20 0 -25 -18
q-4 -11 1.5 -21t16.5 -14zM169 526q0 22 15.5 38t38.5 16t38.5 -16t15.5 -38t-15.5 -38t-38.5 -16t-38.5 16t-15.5 38zM461 472q-23 0 -38.5 16t-15.5 38t15.5 38t38.5 16q22 0 38 -16t16 -38t-16 -38t-38 -16zM223 553q-11 0 -19.5 -8t-8.5 -19t8.5 -19.5t19.5 -8.5t19 8.5
t8 19.5t-8 19t-19 8zM461 553q-11 0 -19.5 -8t-8.5 -19t8.5 -19.5t19.5 -8.5t19 8.5t8 19.5t-8 19t-19 8zM223 352q-23 0 -38.5 16t-15.5 38t16 38t38 16q23 0 38.5 -16t15.5 -38t-15.5 -38t-38.5 -16zM461 352q-23 0 -38.5 16t-15.5 38t16 38t38 16t38 -16t16 -38t-16 -38
t-38 -16zM223 433q-11 0 -19.5 -8t-8.5 -19t8.5 -19.5t19.5 -8.5t19 8.5t8 19.5t-8 19t-19 8zM488 406q0 11 -8 19t-19 8t-19.5 -8t-8.5 -19t8.5 -19.5t19.5 -8.5t19 8.5t8 19.5zM169 286q0 22 16 37.5t38 15.5t38 -15.5t16 -37.5t-15.5 -38t-38.5 -16t-38.5 16t-15.5 38z
M461 232q-23 0 -38.5 16t-15.5 38t16 37.5t38 15.5t38 -15.5t16 -37.5t-16 -38t-38 -16zM223 313q-11 0 -19.5 -8t-8.5 -19q0 -12 8.5 -20t19.5 -8t19 8t8 20q0 11 -8 19t-19 8zM433 286q0 -12 8.5 -20t19.5 -8t19 8t8 20q0 11 -8 19t-19 8t-19.5 -8t-8.5 -19zM158 165
q0 -22 -16 -38t-38 -16t-38 16t-16 38q0 23 16 38.5t38 15.5t38 -15.5t16 -38.5zM169 165q0 23 15.5 38.5t38.5 15.5t38.5 -15.5t15.5 -38.5q0 -22 -16 -38t-38 -16t-38 16t-16 38zM288 165q0 23 16 38.5t38 15.5t38 -15.5t16 -38.5q0 -22 -16 -38t-38 -16t-38 16t-16 38z
M407 165q0 23 15.5 38.5t38.5 15.5q22 0 38 -16t16 -38t-16 -38t-38 -16t-38 16t-16 38zM580 219q22 0 38 -16t16 -38t-16 -37.5t-38 -15.5t-38 15.5t-16 37.5q0 23 16 38.5t38 15.5zM104 138q11 0 19 8t8 19q0 12 -8 20t-19 8t-19.5 -8t-8.5 -20q0 -11 8.5 -19t19.5 -8z
M195 165q0 -11 8.5 -19t19.5 -8t19 8t8 19q0 12 -8 20t-19 8t-19.5 -8t-8.5 -20zM342 193q-11 0 -19.5 -8t-8.5 -20q0 -11 8.5 -19t19.5 -8t19 8t8 19q0 12 -8 20t-19 8zM461 193q-11 0 -19.5 -8t-8.5 -20q0 -11 8.5 -19t19.5 -8t19 8t8 19q0 12 -8 20t-19 8zM607 165
q0 12 -8 20t-19 8t-19.5 -8t-8.5 -20q0 -11 8.5 -19t19.5 -8t19 8t8 19zM50 54q0 22 16 38t38 16t38 -16t16 -38t-16 -38t-38 -16t-38 16t-16 38zM580 108q22 0 38 -16t16 -38t-16 -38t-38 -16t-38 16t-16 38t16 38t38 16zM104 26q11 0 19 8.5t8 19.5t-8 19t-19 8t-19.5 -8
t-8.5 -19t8.5 -19.5t19.5 -8.5zM580 26q11 0 19 8.5t8 19.5t-8 19t-19 8t-19.5 -8t-8.5 -19t8.5 -19.5t19.5 -8.5z" />
    <glyph glyph-name="uni0414.ss03" horiz-adv-x="653" 
d="M404 648q12 -23 -8 -39q0 -5 -2 -13q-4 -76 -7 -115q113 56 158 113q11 12 26 12q12 0 20 -7q10 -9 11.5 -22.5t-6.5 -23.5q-27 -33 -66 -62t-68.5 -45t-80.5 -41q-6 -63 -12 -102.5t-20 -94.5t-40.5 -97.5t-65.5 -73.5q-33 -27 -68 -35q-16 -2 -24 -2q-36 0 -62 21
q-52 41 -35 130q10 56 33.5 102t60.5 81t77 61t94 53l3 39q-55 -38 -99 -38q-11 0 -22 3q-32 11 -44 43.5t-3 67.5q14 56 60.5 96.5t102.5 40.5q27 0 51 -14t36 -38zM224 514q18 0 45.5 17t39.5 33q15 18 20 42q1 4 1.5 13t0.5 13q-6 2 -9 2h-7q-33 0 -61 -27t-37 -60
q-2 -9 -1.5 -16t2 -11t3.5 -5q1 -1 3 -1zM278 201q20 54 31 145l3 25q-80 -42 -129.5 -97t-64.5 -134q-9 -52 12 -68q8 -6 21 -6q7 0 11 1q36 6 68.5 49t47.5 85z" />
    <glyph glyph-name="uni0414.ss04" horiz-adv-x="694" 
d="M322 700h50v-580h-50v580zM390 700h50v-580h-50v580zM459 120v580h49v-580h-49zM186 522h50v-402h-50v402zM304 522v-402h-50v402h50zM50 0v211h49v-211h-49zM118 0v211h49v-211h-49zM527 0v211h49v-211h-49zM644 211v-211h-49v211h49z" />
    <glyph glyph-name="uni0416.ss01" horiz-adv-x="1080" 
d="M50 700h140v-140h-140v140zM610 700v-280h-140v280h140zM1030 700v-140h-140v140h140zM190 560h140v-140h-140v140zM890 560v-140h-140v140h140zM330 420h140v-140h-140v140zM610 420h140v-140h-140v140zM190 140v140h140v-140h-140zM470 0v280h140v-280h-140zM890 140
h-140v140h140v-140zM50 0v140h140v-140h-140zM1030 0h-140v140h140v-140z" />
    <glyph glyph-name="uni0416.ss02" horiz-adv-x="1222" 
d="M436 700l135 -335l-521 335h386zM478 700h266l-133 -347zM1172 700l-521 -335l135 335h386zM478 0l133 347l147 -347h-280zM571 335l-135 -335h-386zM651 335l521 -335h-386z" />
    <glyph glyph-name="uni0416.ss03" horiz-adv-x="1076" 
d="M67 600q-17 17 -17 41.5t17 41.5t42 17t41 -17t16 -41.5t-16 -41.5q-16 -16 -41 -16t-42 16zM926 600q-17 17 -17 41.5t17 41.5t42 17t41 -17q17 -17 17 -41.5t-17 -41.5q-16 -16 -41 -16t-42 16zM579 663q17 -17 17 -41.5t-17 -41.5t-41 -17q-23 0 -42 17
q-16 17 -16 41.5t16 41.5q19 17 42 17q24 0 41 -17zM164 503q-17 17 -17 41.5t17 41.5t42 17t41 -17q17 -17 17 -41.5t-17 -41.5t-41 -17q-23 0 -42 17zM829 586q17 17 41 17q25 0 41 -17q17 -17 17 -41.5t-17 -41.5t-41 -17q-22 0 -41 17q-17 17 -17 41.5t17 41.5zM579 527
q17 -17 17 -41.5t-17 -41.5t-41 -17q-23 0 -42 17q-16 17 -16 41.5t16 41.5q17 17 42 17t41 -17zM261 406q-17 17 -17 41.5t17 41.5q19 17 42 17q24 0 41 -17t17 -41.5t-17 -41.5t-41 -17q-23 0 -42 17zM732 406q-17 17 -17 41.5t17 41.5q19 17 41 17q24 0 41 -17t17 -41.5
t-17 -41.5t-41 -17q-22 0 -41 17zM676 409q24 0 41 -17t17 -41.5t-17 -41.5t-41 -17t-41 17t-17 41.5t17 41.5t41 17zM359 308q-17 17 -17 41.5t17 41.5t42 17t41 -17t16 -41.5t-16 -41.5q-16 -16 -41 -16t-42 16zM579 391q17 -17 17 -41.5t-17 -41.5q-16 -16 -41 -16
t-42 16q-16 17 -16 41.5t16 41.5q17 17 42 17t41 -17zM262 211q-17 17 -17 41.5t17 41.5t41 17q25 0 41 -17q17 -17 17 -41.5t-17 -41.5q-16 -16 -41 -16q-24 0 -41 16zM732 211q-16 17 -16 41.5t16 41.5q17 17 42 17t41 -17q17 -17 17 -41.5t-17 -41.5q-16 -16 -41 -16
t-42 16zM579 256q17 -17 17 -41.5t-17 -41.5q-16 -16 -41 -16t-42 16q-16 17 -16 41.5t16 41.5q17 17 42 17t41 -17zM165 114q-17 17 -17 41.5t17 41.5t41 17q25 0 41 -17q17 -17 17 -41.5t-17 -41.5t-41 -17t-41 17zM871 97q-23 0 -42 17q-17 17 -17 41.5t17 41.5t42 17
t41 -17q17 -17 17 -41.5t-17 -41.5t-41 -17zM579 120q17 -16 17 -40.5t-17 -41.5t-41 -17q-23 0 -42 17q-16 17 -16 41.5t16 40.5q17 17 42 17t41 -17zM68 17q-17 17 -17 41.5t17 41.5t41 17t41 -17t17 -41.5t-17 -41.5t-41 -17t-41 17zM927 17q-17 17 -17 41.5t17 41.5
t41 17t41 -17t17 -41.5t-17 -41.5t-41 -17t-41 17z" />
    <glyph glyph-name="uni0416.ss04" horiz-adv-x="991" 
d="M270 700v-32h-220v32h220zM543 668h-93v32h93v-32zM941 700v-32h-220v32h220zM320 633v-32h-220v32h220zM543 601h-93v32h93v-32zM892 633v-32h-221v32h221zM149 534v32h220v-32h-220zM543 566v-32h-93v32h93zM622 566h220v-32h-220v32zM199 500h220v-32h-220v32z
M543 468h-93v32h93v-32zM572 468v32h220v-32h-220zM743 401h-495v32h495v-32zM634 334h-277v32h277v-32zM743 267h-495v32h495v-32zM199 200v32h220v-32h-220zM543 200h-93v32h93v-32zM572 232h220v-32h-220v32zM149 166h220v-32h-220v32zM543 134h-93v32h93v-32zM842 166
v-32h-220v32h220zM100 67v32h220v-32h-220zM543 67h-93v32h93v-32zM892 99v-32h-221v32h221zM50 0v32h220v-32h-220zM543 0h-93v32h93v-32zM941 32v-32h-220v32h220z" />
    <glyph glyph-name="uni0417.ss01" horiz-adv-x="576" 
d="M50 596v104h476v-130l-476 -284v154l263 156h-263zM50 154l237 132h-224l178 103h285v-105l-476 -284v154z" />
    <glyph glyph-name="uni0417.ss02" horiz-adv-x="531" 
d="M71 700v-102h-21v102h21zM108 598v102h21v-102h-21zM186 700v-102h-21v102h21zM223 598v102h21v-102h-21zM280 598v102h21v-102h-21zM326 592l51 88l18 -11l-51 -88zM362 563l88 51l11 -18l-88 -51zM379 499v21h102v-21h-102zM373 474l88 -50l-11 -19l-88 51zM161 350
l-44 78l18 10l51 -88l-51 -88l-18 10zM231 350l-45 78l19 10l51 -88l-51 -88l-19 10zM301 350l-45 78l18 10l51 -88l-51 -88l-18 10zM395 350l-51 -88l-18 10l45 78l-45 78l18 10zM450 295l11 -19l-88 -50l-11 18zM379 180v21h102v-21h-102zM373 155l88 -51l-11 -18l-88 51z
M395 31l-18 -11l-51 88l18 11zM50 0v102h21v-102h-21zM108 102h21v-102h-21v102zM186 102v-102h-21v102h21zM223 0v102h21v-102h-21zM301 102v-102h-21v102h21z" />
    <glyph glyph-name="uni0417.ss03" horiz-adv-x="604" 
d="M331 358l20 43q12 29 -11 49q-10 10 -26 10t-27 -10l-45 -37q-7 -7 -18 -7q-9 0 -17 6q-17 15 -7 35l79 152q6 11 3 23t-14 18q-8 5 -17 5q-15 0 -25 -13l-30 -43q-9 -12 -23 -12q-8 0 -16 5q-9 7 -11 18t5 20l30 43q26 37 71 37q23 0 44 -12q29 -18 38.5 -51t-6.5 -63
l-31 -60q5 1 15 1q38 0 64 -23q36 -32 33 -80l102 69q7 4 15 4q14 0 23 -11q15 -22 -7 -39l-167 -114l-117 -257q-13 -30 -40 -47t-60 -17q-35 0 -66 23q-44 33 -42 89t47 87zM105 110q0 -28 21 -43q14 -12 32 -12q34 0 49 32l80 174l-158 -108q-22 -15 -24 -43z" />
    <glyph glyph-name="uni0417.ss04" horiz-adv-x="583" 
d="M364 700v-38h-314v38h314zM476 627v-39h-426v39h426zM533 553v-38h-213v38h213zM320 441v39h213v-39h-213zM431 406v-38h-381v38h381zM431 333v-39h-381v39h381zM320 221v38h213v-38h-213zM533 186v-39h-213v39h213zM476 112v-38h-426v38h426zM364 39v-39h-314v39h314z
" />
    <glyph glyph-name="uni0417.ss05" horiz-adv-x="486" 
d="M50 77q0 32 22.5 54.5t54.5 22.5h95q24 0 42 18t18 42q-1 24 -18 41t-41 17h-44q-32 0 -54.5 22.5t-22.5 54.5v2q0 31 23 54t54 23h44q24 0 41 17t18 41q0 24 -18 42t-42 18h-32v-17q0 -29 -20.5 -49.5t-49.5 -20.5t-49.5 20.5t-20.5 49.5v101q0 29 20.5 49.5t49.5 20.5
h101q88 0 151 -62t64 -149q2 -78 -50 -139q52 -61 50 -139q-1 -87 -64 -149t-151 -62h-94q-31 0 -54 23t-23 54zM102 529q0 -7 5.5 -12t12.5 -5t12.5 5t5.5 12v69h84q46 0 79 -33.5t33 -79.5q-1 -45 -33.5 -77t-77.5 -32h-44q-10 0 -17.5 -7.5t-7.5 -17.5v-2
q0 -10 7.5 -17.5t17.5 -7.5h44q45 0 77.5 -32t33.5 -77q0 -47 -33 -80t-79 -33h-95q-11 0 -18 -7t-7 -18t7 -18t18 -7h94q67 0 114.5 47t48.5 113q0 71 -51 119l-21 19l21 19q51 48 51 119q-1 66 -48.5 113t-114.5 47h-119v-119z" />
    <glyph glyph-name="uni0417.ss06" horiz-adv-x="545" 
d="M114 700q26 0 45 -19t19 -45t-19 -45t-45 -19t-45 19t-19 45t19 45t45 19zM439 270q24 -3 40 -21t16 -42q0 -25 -16.5 -43t-39.5 -20q-18 -39 -54 -64t-80 -26q-4 -23 -21.5 -38.5t-41.5 -15.5q-26 0 -45 18.5t-19 45.5q0 26 19 45t45 19q24 0 41.5 -15t21.5 -38
q36 1 65.5 20.5t45.5 49.5q-21 5 -35 22.5t-14 39.5t14 39.5t35 22.5q-16 30 -45.5 49.5t-65.5 20.5q-4 -23 -21.5 -38t-41.5 -15q-26 0 -45 19t-19 45t19 45t45 19q24 0 41.5 -15t21.5 -38q36 1 65.5 20.5t45.5 49.5q-21 5 -35 22.5t-14 39.5t14 39.5t35 22.5
q-16 30 -45.5 49.5t-65.5 20.5q-4 -23 -21.5 -38t-41.5 -15q-26 0 -45 19t-19 45t19 45t45 19q24 0 41.5 -15.5t21.5 -38.5q44 -1 80 -26t54 -64q24 -3 40 -21t16 -42t-16 -42t-40 -21q-26 -56 -84 -80q58 -24 84 -80zM114 128q26 0 45 -19t19 -45t-19 -45t-45 -19t-45 19
t-19 45t19 45t45 19z" />
    <glyph glyph-name="uni0418.ss01" horiz-adv-x="711" 
d="M537 244q0 -101 -71 -172.5t-172 -71.5t-172.5 71.5t-71.5 172.5v456h487v-456zM661 0h-118v700h118v-700z" />
    <glyph glyph-name="uni0418.ss02" horiz-adv-x="667" 
d="M403 316l-65 -259q-13 -44 -55 -55q-12 -2 -18 -2q-26 0 -46.5 16t-27.5 41l-139 549q-7 30 9 57t46 35q12 2 18 2q26 0 46.5 -16t27.5 -41l65 -259l66 258q10 45 55 56q12 2 18 2q26 0 46 -16t27 -41l139 -549q8 -30 -8 -57t-47 -35q-12 -2 -18 -2q-26 0 -46.5 16
t-27.5 41z" />
    <glyph glyph-name="uni0418.ss03" horiz-adv-x="709" 
d="M659 700l-355 -700h-254l355 700h254zM50 13v687h254v-185zM658 687v-687h-254v184z" />
    <glyph glyph-name="uni0418.ss04" horiz-adv-x="981" 
d="M52 127v72h206l438 501h235v-72h-235l-438 -501h-206zM50 626v72h206v-72h-206zM287 74l438 501h206v-73h-206l-438 -500h-235v72h235zM50 573h206v-72h-206v72zM50 448h206v-73h-206v73zM725 448h206v-73h-206v73zM50 323h206v-73h-206v73zM725 323h206v-73h-206v73z
M725 198h206v-73h-206v73zM725 72h206v-72h-206v72z" />
    <glyph glyph-name="uni0418.ss05" horiz-adv-x="643" 
d="M592 54q4 -16 -5 -30.5t-26 -18.5q-3 -1 -9 -1q-14 0 -25.5 9t-14.5 23l-99 444q-46 -117 -140 -401q-12 -36 -41.5 -57.5t-65.5 -21.5q-13 0 -20 2q-42 7 -69 38t-27 74q0 302 11 547q1 17 13.5 28.5t29.5 10.5t28.5 -13.5t10.5 -29.5q-11 -213 -11 -542q0 -17 9 -24.5
t18 -8.5q30 0 37 22q72 220 119 348q20 54 48 120q16 35 29 51.5t33 17.5q36 0 43 -31z" />
    <glyph glyph-name="uni0418.ss06" horiz-adv-x="687" 
d="M50 700h240l-240 -700v700zM451 700h177l-392 -700h-177zM637 0h-240l240 700v-700z" />
    <glyph glyph-name="uni0418.ss07" horiz-adv-x="701" 
d="M50 700h146v-700h-146v700zM505 0v700h146v-700h-146zM405 500q-22 7 -32 28.5t-2 44.5q13 37 53 37q11 0 20 -3q22 -8 32 -29.5t2 -43.5q-15 -38 -53 -38q-6 0 -20 4zM376 361q-11 0 -20 3q-23 8 -32.5 29.5t-1.5 43.5q13 38 54 38q10 0 19 -3q22 -8 32 -29.5t2 -44.5
q-13 -37 -53 -37zM307 229q-22 8 -32 29.5t-2 43.5q14 37 54 37q10 0 19 -3q23 -8 32.5 -29.5t1.5 -43.5q-13 -38 -53 -38q-6 0 -20 4zM258 93q-22 8 -32 29.5t-2 43.5q15 38 53 38q6 0 20 -4q22 -7 32.5 -28.5t2.5 -44.5q-7 -17 -21.5 -27t-32.5 -10q-11 0 -20 3z" />
    <glyph glyph-name="uni0418.ss08" horiz-adv-x="675" 
d="M209 700v-28h-159v28h159zM625 672h-242l11 28h231v-28zM209 625v-28h-159v28h159zM625 597h-271l11 28h260v-28zM209 551v-29h-159v29h159zM625 522h-300l11 29h289v-29zM209 476v-28h-159v28h159zM625 448h-329l11 28h318v-28zM50 373v29h159v-29h-159zM267 373l11 29
h159l-11 -29h-159zM466 373v29h159v-29h-159zM209 327v-29h-159v29h159zM249 327h159l-11 -29h-159zM466 298v29h159v-29h-159zM379 252l-11 -28h-318v28h329zM625 252v-28h-159v28h159zM50 149v29h300l-11 -29h-289zM625 178v-29h-159v29h159zM50 75v28h271l-11 -28h-260z
M625 103v-28h-159v28h159zM292 28l-11 -28h-231v28h242zM625 28v-28h-159v28h159z" />
    <glyph glyph-name="uni0418.ss09" horiz-adv-x="833" 
d="M50 599q0 42 29.5 71.5t71.5 29.5t71.5 -29.5t29.5 -71.5t-29.5 -71.5t-71.5 -29.5t-71.5 29.5t-29.5 71.5zM682 700q42 0 71.5 -29.5t29.5 -71.5t-29.5 -71.5t-71.5 -29.5t-71.5 29.5t-29.5 71.5t29.5 71.5t71.5 29.5zM533 422q-22 -28 -56 -28q-22 0 -42 14
q-23 17 -27 46t13 52q22 28 56 28q22 0 42 -14q23 -17 27 -46t-13 -52zM50 350q0 42 29.5 71.5t71.5 29.5t71.5 -29.5t29.5 -71.5t-29.5 -71.5t-71.5 -29.5t-71.5 29.5t-29.5 71.5zM682 249q-42 0 -71.5 29.5t-29.5 71.5t29.5 71.5t71.5 29.5t71.5 -29.5t29.5 -71.5
t-29.5 -71.5t-71.5 -29.5zM352 160q-28 2 -46.5 22.5t-17.5 48.5q1 29 21.5 46.5t49.5 17.5q28 -2 46.5 -22.5t17.5 -48.5q-1 -29 -21.5 -46.5t-49.5 -17.5zM94 185q25 17 57 17q54 0 83 -44q24 -35 16.5 -76t-42.5 -65q-26 -17 -57 -17q-54 0 -84 44q-23 35 -15.5 76
t42.5 65zM625 184q25 18 57 18q54 0 83 -44q24 -35 16 -76t-43 -65q-24 -17 -56 -17q-54 0 -84 44q-23 34 -15 75.5t42 64.5z" />
    <glyph glyph-name="uni0418.ss10" horiz-adv-x="552" 
d="M90 700v-700h-40v700h40zM142 700v-700h-41v700h41zM193 700v-700h-40v700h40zM358 0v700h41v-700h-41zM410 700h40v-700h-40v700zM461 0v700h41v-700h-41zM347 697v-309l-40 -109v310zM256 141v309l40 109v-309zM204 3v309l41 109v-310z" />
    <glyph glyph-name="uni0418.ss11" horiz-adv-x="669" 
d="M245 700l-45 -140h-59l46 140h58zM594 700l-46 -140h-57l45 140h58zM490 560l-45 -140h-58l45 140h58zM153 417l-45 -137h-58l46 140h58l45 137h58l-46 -140h-58zM502 417l46 140h58l-46 -140h-58zM283 280l45 140h59l-46 -140h-58zM561 420h58l-46 -140h-58zM179 140
l45 139h58l-46 -141h-58l-45 -138h-58l46 140h58zM166 277l-46 -140h-58l45 140h59zM514 277l-45 -140h-59l46 140h58zM424 0l46 140h58l-46 -140h-58z" />
    <glyph glyph-name="uni0418.ss12" horiz-adv-x="583" 
d="M533 508l-483 -508v192l483 508v-192zM242 655v-248l-192 -202v450h192zM533 495v-444h-192v242z" />
    </font>
</defs>
</svg>
